<?xml version="1.0" encoding="UTF-8"?><svg id="a" xmlns="http://www.w3.org/2000/svg" viewBox="0 0 200 200"><defs><style>.b,.c,.d{fill:none;}.e,.f{fill:#fff;}.g{fill:#ebebde;}.c{stroke:#ff001f;}.c,.f,.d{stroke-miterlimit:10;}.c,.d{stroke-width:12.7995536px;}.f{stroke:#ebebde;stroke-width:8.5330357px;}.d{stroke:#000;}</style></defs><line class="d" x1="118.0694003" y1="100.802295" x2="118.0694003" y2="90.1883237"/><circle class="b" cx="100.1918783" cy="99.8997655" r="88"/><path class="g" d="M99.999949,11.8997382c-17.6120605,0-34.0134277,5.177124-47.7716675,14.0878296v16.5432739h-18.9558105c-13.256958,15.4053955-21.272522,35.4503784-21.272522,57.3688965,0,48.6010742,39.3989868,88,88,88,48.6010742,0,88-39.3989258,88-88S148.6010233,11.8997382,99.999949,11.8997382Z"/><rect class="e" x="25.5601682" y="45.4958338" width="97.2399507" height="64.052204"/><line class="c" x1="25.5601682" y1="45.4958338" x2="122.800119" y2="45.4958338"/><line class="c" x1="49.7063644" y1="45.4958338" x2="49.7063644" y2="24.1600725"/><line class="c" x1="98.6539228" y1="45.4958338" x2="98.6539228" y2="24.1600725"/><circle cx="45.1096599" cy="64.591044" r="5.303915"/><circle cx="64.4899824" cy="64.591044" r="5.303915"/><circle cx="83.8703048" cy="64.591044" r="5.303915"/><circle cx="103.2506273" cy="64.591044" r="5.303915"/><circle cx="45.1096599" cy="80.8058698" r="5.303915"/><circle cx="64.4899824" cy="80.8058698" r="5.303915"/><circle cx="83.8703048" cy="80.8058698" r="5.303915"/><circle cx="45.1096599" cy="97.0206957" r="5.303915"/><circle cx="64.4899824" cy="97.0206957" r="5.303915"/><circle class="f" cx="128.3221199" cy="124.7788129" r="45.449218"/><circle cx="128.3221199" cy="124.7788129" r="41.6811752"/><path class="e" d="M133.0462524,144.7414219c-5.4257738,0-10.2427967-3.1036959-13.3059918-7.884411h20.0163559v-9.3679793h-23.2882492c-.1019667-.8884447-.172867-1.7882297-.172867-2.7094563s.0709002-1.8210115.1726764-2.7094563h23.2884398v-9.3679793h-20.0171183c3.0631951-4.7817634,7.8804086-7.8859357,13.3067542-7.8859357,4.1381341,0,8.126844,1.8479803,11.2281575,5.2039247l6.8796098-6.35815c-4.895928-5.2969336-11.3257406-8.213754-18.1077673-8.213754-10.5662314,0-19.665476,7.0951694-23.7744495,17.2539151h-8.5758789v9.3679793h6.353957c-.0733779.8934954-.1223601,1.7949004-.1223601,2.7094563s.0489822,1.8160561.1223601,2.7094563h-6.353957v9.3679793h8.5758789c4.1091641,10.1580786,13.2084087,17.2523903,23.7744495,17.2523903,6.780502,0,13.2103146-2.9168204,18.1077673-8.2107045l-6.8796098-6.3611995c-3.1013135,3.3559444-7.0900234,5.2039247-11.2281575,5.2039247Z"/></svg>