<?xml version="1.0" encoding="UTF-8"?>
<svg id="Ebene_1" xmlns="http://www.w3.org/2000/svg" xmlns:xlink="http://www.w3.org/1999/xlink" version="1.1" viewBox="0 0 1800 900">
  <!-- Generator: Adobe Illustrator 29.2.1, SVG Export Plug-In . SVG Version: 2.1.0 Build 116)  -->
  <defs>
    <style>
      .st0 {
        fill: none;
      }

      .st1 {
        fill: #778ab7;
      }

      .st2 {
        fill: #8c6957;
      }

      .st3 {
        fill: #ddddd3;
      }

      .st4 {
        fill: #ffbf9e;
      }

      .st5 {
        fill: #802621;
      }

      .st6 {
        fill: #cccbbe;
      }

      .st7 {
        fill: #1d1d1b;
      }

      .st8 {
        fill: #eb996e;
      }

      .st9 {
        clip-path: url(#clippath-17);
      }

      .st10 {
        clip-path: url(#clippath-11);
      }

      .st11 {
        clip-path: url(#clippath-16);
      }

      .st12 {
        clip-path: url(#clippath-18);
      }

      .st13 {
        clip-path: url(#clippath-10);
      }

      .st14 {
        clip-path: url(#clippath-15);
      }

      .st15 {
        clip-path: url(#clippath-13);
      }

      .st16 {
        clip-path: url(#clippath-14);
      }

      .st17 {
        clip-path: url(#clippath-12);
      }

      .st18 {
        clip-path: url(#clippath-1);
      }

      .st19 {
        clip-path: url(#clippath-3);
      }

      .st20 {
        clip-path: url(#clippath-4);
      }

      .st21 {
        clip-path: url(#clippath-2);
      }

      .st22 {
        clip-path: url(#clippath-7);
      }

      .st23 {
        clip-path: url(#clippath-6);
      }

      .st24 {
        clip-path: url(#clippath-9);
      }

      .st25 {
        clip-path: url(#clippath-8);
      }

      .st26 {
        clip-path: url(#clippath-5);
      }

      .st27 {
        fill: #fff;
      }

      .st28 {
        fill: #fafafa;
      }

      .st29 {
        fill: #455963;
      }

      .st30 {
        fill: #ebebde;
      }

      .st31 {
        fill: #a8abb0;
      }

      .st32 {
        fill: #263338;
      }

      .st33 {
        fill: #c47852;
      }

      .st34 {
        fill: #b08778;
      }

      .st35 {
        fill: #e30521;
      }

      .st36 {
        fill: #785445;
      }

      .st37 {
        clip-path: url(#clippath);
      }
    </style>
    <clipPath id="clippath">
      <rect class="st0" x="512.1" y="84" width="772.5" height="728.1"/>
    </clipPath>
    <clipPath id="clippath-1">
      <rect class="st0" x="512.1" y="84" width="772.5" height="728.1"/>
    </clipPath>
    <clipPath id="clippath-2">
      <rect class="st0" x="512.1" y="84" width="772.5" height="728.1"/>
    </clipPath>
    <clipPath id="clippath-3">
      <rect class="st0" x="512.1" y="84" width="772.5" height="728.1"/>
    </clipPath>
    <clipPath id="clippath-4">
      <rect class="st0" x="512.1" y="84" width="772.5" height="728.1"/>
    </clipPath>
    <clipPath id="clippath-5">
      <rect class="st0" x="512.1" y="84" width="772.5" height="728.1"/>
    </clipPath>
    <clipPath id="clippath-6">
      <rect class="st0" x="512.1" y="84" width="772.5" height="728.1"/>
    </clipPath>
    <clipPath id="clippath-7">
      <rect class="st0" x="512.1" y="84" width="772.5" height="728.1"/>
    </clipPath>
    <clipPath id="clippath-8">
      <rect class="st0" x="512.1" y="84" width="772.5" height="728.1"/>
    </clipPath>
    <clipPath id="clippath-9">
      <rect class="st0" x="512.1" y="84" width="772.5" height="728.1"/>
    </clipPath>
    <clipPath id="clippath-10">
      <rect class="st0" x="512.1" y="84" width="772.5" height="728.1"/>
    </clipPath>
    <clipPath id="clippath-11">
      <rect class="st0" x="512.1" y="84" width="772.5" height="728.1"/>
    </clipPath>
    <clipPath id="clippath-12">
      <rect class="st0" x="512.1" y="84" width="772.5" height="728.1"/>
    </clipPath>
    <clipPath id="clippath-13">
      <rect class="st0" x="512.1" y="84" width="772.5" height="728.1"/>
    </clipPath>
    <clipPath id="clippath-14">
      <rect class="st0" x="512.1" y="84" width="772.5" height="728.1"/>
    </clipPath>
    <clipPath id="clippath-15">
      <rect class="st0" x="512.1" y="84" width="772.5" height="728.1"/>
    </clipPath>
    <clipPath id="clippath-16">
      <rect class="st0" x="512.1" y="84" width="772.5" height="728.1"/>
    </clipPath>
    <clipPath id="clippath-17">
      <rect class="st0" x="512.1" y="84" width="772.5" height="728.1"/>
    </clipPath>
    <clipPath id="clippath-18">
      <rect class="st0" x="512.1" y="84" width="772.5" height="728.1"/>
    </clipPath>
  </defs>
  <rect class="st6" y="747.7" width="1800" height="152.3"/>
  <rect class="st3" y="0" width="1800" height="754.5"/>
  <rect class="st30" x="1060.4" y="103" width="112.6" height="175.4"/>
  <rect class="st27" x="1054.5" y="103" width="118.4" height="175.4"/>
  <rect class="st27" x="1069.2" y="122" width="89" height="137.4"/>
  <g class="st37">
    <path class="st30" d="M1158.2,259.4s0-.2,0-.7c0-.5,0-1.1,0-1.9,0-1.7,0-4.3,0-7.5,0-6.6,0-16.2,0-28.3,0-24.2,0-58.5-.1-98.9l.3.3c-27.2,0-57.3,0-89,0h0l.3-.3c0,51.8,0,99.6,0,137.4l-.3-.3c27.1,0,49.3.1,64.8.1,7.7,0,13.8,0,17.9,0,2,0,3.6,0,4.7,0,1.1,0,1.6,0,1.6,0,0,0-.5,0-1.6,0-1.1,0-2.6,0-4.6,0-4.1,0-10.1,0-17.8,0-15.5,0-37.8,0-64.9.1h-.3s0-.3,0-.3c0-37.8,0-85.6,0-137.4v-.3h.3c31.7,0,61.8,0,89,0h.3v.3c0,40.5-.1,74.9-.1,99.1,0,12.1,0,21.7,0,28.2,0,3.3,0,5.8,0,7.5,0,.8,0,1.5,0,1.9,0,.4,0,.6,0,.6"/>
    <path class="st30" d="M1173.2,103c0,0-.7,1.3-2.1,3.1-1.4,1.9-3.3,4.4-5.6,7.2-2.2,2.8-4.3,5.2-5.9,7-1.5,1.7-2.5,2.8-2.6,2.7,0,0,.8-1.2,2.3-3,1.6-2,3.5-4.4,5.7-7.1,2.2-2.7,4.1-5.1,5.7-7.1,1.5-1.8,2.4-2.9,2.5-2.8"/>
    <path class="st27" d="M1158.6,259c4.4,7.2,9.6,13.9,15.5,19.8"/>
    <path class="st30" d="M1174.2,278.8c0,0-1.1-.9-2.7-2.5-1.6-1.6-3.7-4-5.9-6.7-2.2-2.8-3.9-5.4-5.2-7.3-1.2-1.9-1.9-3.2-1.8-3.3,0,0,.9,1.1,2.2,3,1.3,1.9,3.1,4.4,5.3,7.2,2.1,2.7,4.2,5.1,5.7,6.8,1.5,1.7,2.4,2.8,2.4,2.8"/>
    <path class="st27" d="M1054.5,278.3c5.2-6.5,10.3-13,15.5-19.6"/>
    <path class="st30" d="M1070,258.7c.1.1-3.2,4.6-7.5,10-4.3,5.4-7.9,9.7-8,9.6-.1-.1,3.2-4.6,7.5-10,4.3-5.4,7.9-9.7,8-9.6"/>
    <path class="st30" d="M1054.5,103c.1-.1,3.5,4,7.5,9.2,4,5.2,7.2,9.5,7,9.6-.1.1-3.5-4-7.5-9.2-4-5.2-7.2-9.5-7-9.6"/>
  </g>
  <rect class="st30" x="1100.7" y="149.9" width="29.8" height="86.5"/>
  <polygon class="st30" points="709.3 84.8 714.9 198 870.3 198 870.3 84 709.3 84.8"/>
  <rect class="st27" x="709.3" y="84.8" width="160.2" height="112.9"/>
  <path class="st30" d="M710,85.6h158.7v111.4h-158.7v-111.4ZM708.5,198.5h161.7v-114.5h-161.7v114.5Z"/>
  <rect class="st27" x="726.6" y="98.9" width="125.5" height="84.9"/>
  <g class="st18">
    <path class="st30" d="M852.1,98.9s-.2,0-.6,0c-.4,0-1,0-1.8,0-1.6,0-3.9,0-6.9,0-6,0-14.8,0-25.9,0-22.1,0-53.4.1-90.3.2l.4-.4c0,25.9,0,54.7,0,84.9h0s-.4-.4-.4-.4c47.3,0,91,0,125.5,0l-.3.3c0-25.8.1-47,.2-61.7,0-7.4,0-13.1,0-17.1,0-2,0-3.4,0-4.5,0-1,0-1.6,0-1.6,0,0,0,.5,0,1.5,0,1,0,2.5,0,4.4,0,3.9,0,9.7,0,17,0,14.8,0,36,.2,61.9v.3s-.3,0-.3,0c-34.5,0-78.1,0-125.5,0h-.4v-.4h0c0-30.2,0-58.9,0-84.9v-.4h.4c37,0,68.4.1,90.6.2,11,0,19.8,0,25.8,0,3,0,5.2,0,6.8,0,.8,0,1.3,0,1.7,0,.4,0,.6,0,.6,0"/>
    <path class="st30" d="M709.3,84.5c0,0,1.1.6,2.8,1.8,1.6,1.2,3.9,2.9,6.3,4.9,2.4,2,4.5,3.8,6,5.2,1.5,1.4,2.4,2.3,2.3,2.4-.1.2-4-3.1-8.8-7-4.8-3.9-8.7-7.2-8.5-7.3"/>
    <path class="st30" d="M869.4,84.8c.1.2-3.6,3.5-8.4,7.3-4.8,3.9-8.8,6.9-8.9,6.7-.1-.2,3.6-3.5,8.4-7.3,4.8-3.9,8.8-6.9,8.9-6.7"/>
    <path class="st27" d="M869.3,197.8c-6-4.9-11.9-9.9-17.9-14.8"/>
    <path class="st30" d="M851.4,183c.1-.2,4.2,3,9.2,7.1,4.9,4.1,8.8,7.5,8.7,7.7-.1.2-4.2-3-9.2-7.1-4.9-4.1-8.8-7.5-8.7-7.7"/>
    <path class="st30" d="M709.3,197.8c-.1-.2,3.6-3.4,8.3-7.3,4.7-3.8,8.7-6.8,8.8-6.6.1.2-3.6,3.4-8.3,7.3-4.7,3.8-8.7,6.8-8.8,6.6"/>
  </g>
  <rect class="st30" x="752.1" y="125.3" width="79" height="28.4"/>
  <g class="st21">
    <path class="st29" d="M1124.2,175.7c-12.1-5.3-26.1,2.3-31.6,10.7-5.4,8.4-7.7,18.5-9.3,28.4-3.2,20.4-3.7,41.3-1.5,61.9.6,6.1,1.8,12.7,6.3,16.6,4.3,3.8,10.6,4.1,16.2,3.1,5-.9,10.2-2.9,13.5-6.9,5-6.2,4.4-15.2,3.8-23.2-1.9-27.7,1-55.6,8.4-82.3"/>
    <path class="st29" d="M1097.9,186.9c5.5-11.3,22.3-17.3,36-13.6,11.5,3.2,23.8,15.2,24.6,27.6,1.2,18-8.3,36.3-2.7,53.4,6.5,19.9,30.7,29.5,36.8,49.5,2.5,8.2,1.5,17.4-2.7,24.8-2.2,3.8-5.5,7.4-9.8,8.1-5.3.9-10.3-2.8-14.5-6.3-11.4-9.4-23-18.9-30.9-31.5-9.4-14.8-13-32.8-13.1-50.4-.2-17.6,2.9-35.1,6-52.4"/>
    <path class="st2" d="M1146,208.7c1.8-14.8-8.6-28.3-23.3-29.7-13.8-1.3-26.1,9.2-28.2,23.2-1.8,12.3-3.4,24.7-3.3,29.3.2,13.6,8,18.9,11.1,20.5.7.4,2.7.8,3.5.9h0c0,.1-3,15.7-3,15.7-1.3,10.2,4.3,19.4,14.3,20.9,10,1.5,17.9-6.4,19.4-16.6l9.5-64.2Z"/>
    <path class="st29" d="M1097.5,209c-.2,1.1.6,2.2,1.7,2.5,1.1.2,2.2-.5,2.4-1.6.2-1.1-.6-2.2-1.7-2.5-1.1-.2-2.2.5-2.4,1.6"/>
    <path class="st29" d="M1097.5,205.9c.2.3,2-.6,4.2-.3,2.3.3,3.7,1.7,4,1.5.1-.1,0-.6-.7-1.3-.6-.6-1.8-1.3-3.2-1.5-1.4-.2-2.7.1-3.4.6-.8.4-1.1.9-1,1.1"/>
    <path class="st29" d="M1118.9,212.5c-.2,1.1.6,2.2,1.7,2.5,1.1.2,2.2-.5,2.4-1.6.2-1.1-.6-2.2-1.7-2.5-1.1-.2-2.2.5-2.4,1.6"/>
    <path class="st29" d="M1119.6,209.6c.2.3,2-.6,4.2-.3,2.3.3,3.7,1.7,4,1.5.1-.1,0-.6-.7-1.3-.6-.6-1.8-1.3-3.2-1.5-1.4-.2-2.7.1-3.4.6-.8.4-1.1.9-1,1.1"/>
    <path class="st29" d="M1109,225.5c0-.1-1.3-.6-3.6-1.2-.6-.1-1.1-.3-1.1-.8,0-.4.3-1,.6-1.7.7-1.3,1.5-2.8,2.3-4.2,3.3-6,5.7-11,5.5-11.2-.2-.1-3.1,4.6-6.4,10.7-.8,1.5-1.6,2.9-2.3,4.3-.3.6-.8,1.3-.6,2.3,0,.5.5.8.8,1,.4.2.7.2,1,.3,2.3.5,3.7.7,3.7.6"/>
    <path class="st36" d="M1105.8,252.9s8.6,2,20.4-3c0,0-5.1,11.3-21.2,7.3l.8-4.2Z"/>
    <path class="st36" d="M1109.2,231.2c1-1,2.5-1.4,3.9-1,1,.3,1.9.9,2.4,1.8.5.9.4,2.1-.2,2.8-.7.8-2,.8-3.1.3-1-.5-1.9-1.3-2.6-2.2-.2-.2-.4-.5-.5-.8-.1-.3,0-.7.1-.9"/>
    <path class="st29" d="M1115.4,228.1c-.4,0-.7,2.4-3.1,3.9-2.3,1.5-4.9.8-5,1.1,0,.2.5.6,1.6.8,1.1.2,2.7,0,4.1-.8,1.4-.9,2.2-2.3,2.4-3.3.2-1,0-1.7-.1-1.7"/>
    <path class="st29" d="M1119.2,205.5c.1.7,2.4.7,5,1.4,2.6.7,4.6,1.8,5.1,1.3.2-.2,0-.9-.9-1.6-.8-.7-2.1-1.5-3.6-1.9-1.6-.4-3.1-.4-4.1-.1-1,.3-1.6.7-1.5,1"/>
    <path class="st29" d="M1099,201.3c.3.6,2,.3,3.8.5,1.9.2,3.4.9,3.8.4.2-.2,0-.8-.6-1.4-.6-.6-1.7-1.2-3-1.3-1.3-.1-2.5.2-3.2.6-.7.4-1,.9-.9,1.2"/>
    <path class="st29" d="M1104.8,180.6c1.4,10.4,9.2,19.6,19,22.5-.3-1.3-.5-2.6-.8-3.9,4.3,8.8,12,15.7,21,19.1,6.2-10.8,3.9-25.9-5.3-34.2-9.2-8.3-24.2-8.8-33.9-1.2"/>
  </g>
  <g class="st19">
    <path class="st29" d="M1191,314.2c-.1,0,1.3-1.3,2.6-4.1,1.3-2.8,2.4-7.5,1.3-13.1-.5-2.8-1.6-5.7-3.3-8.6-1.6-2.9-3.8-5.7-6.4-8.4-5.1-5.5-11.7-10.3-17.8-16.5-3-3.1-5.6-6.6-7.3-10.4-1.7-3.8-2.6-7.7-3.1-11.5-.9-7.6-.4-14.4,0-20.1.4-5.7.9-10.3,1.2-13.5.1-1.5.3-2.7.3-3.7,0-.8.1-1.3.2-1.3,0,0,0,.4,0,1.3,0,.9-.1,2.1-.2,3.7-.2,3.3-.5,7.9-.9,13.5-.3,5.7-.7,12.5.3,19.9.5,3.7,1.4,7.6,3.1,11.2,1.7,3.7,4.2,7.1,7.2,10.1,6,6.1,12.7,11,17.8,16.5,2.6,2.8,4.8,5.6,6.4,8.6,1.6,2.9,2.8,6,3.2,8.8,1,5.7-.2,10.5-1.6,13.3-.7,1.4-1.5,2.4-2,3.1-.6.6-.9.9-.9.9"/>
    <path class="st35" d="M1204,736.8l8,40,15.2,29.8c1.1,2.1.2,4.8-2,5.8-1.2.5-2.6.5-3.7-.2-7.2-4.4-33.8-20.9-34.2-23.9-.5-3.4-11.2-41.6-11.2-41.6l27.9-9.8Z"/>
    <path class="st27" d="M1189.3,790.6h-.3c.1,0,.2.2.3.3,3.1,2.4,11.9,8.8,32,21.2.6.4,1.4.6,2.1.6s1.2-.1,1.7-.4c-.5.2-1.1.4-1.6.4s-1.4-.2-2.1-.6c-6.1-3.7-25.7-15.9-32.2-21.5M1187.8,789.1c.2.3.4.6.7.9h.2c-.4-.4-.7-.7-.9-.9M1186.7,785.5l.4,1.7c0,.2,0,.3.1.5-.1-.5-.3-1.2-.5-2.2"/>
    <path class="st31" d="M1188.5,790.1c.2.2.4.4.5.5h.3c-.2-.2-.4-.4-.6-.5h-.2Z"/>
    <path class="st5" d="M1186.7,785.5h0c.2.9.4,1.7.5,2.2.2.5.4,1,.6,1.4.2.3.5.6.9.9.2.2.4.4.6.5,6.4,5.6,26.1,17.8,32.2,21.5.6.4,1.4.6,2.1.6s1.1-.1,1.7-.4l-38.6-26.8Z"/>
  </g>
  <g class="st20">
    <path class="st5" d="M1191.1,770.7c-.9,0-1.9.6-2.3,1.4-.5,1.1.3,2.8,1.4,3.3.2,0,.5.1.7.1,1,0,1.9-.6,2.2-1.6.4-1.1-.2-2.4-1.2-3-.3-.2-.6-.3-.9-.3"/>
    <path class="st29" d="M1212.4,797c.2,0,.7-2.2,2.7-3.9,2-1.7,4.3-1.7,4.3-1.9,0-.1-.6-.3-1.5-.2-.9,0-2.2.5-3.4,1.4-1.1.9-1.8,2.1-2.1,3-.3.9-.2,1.5,0,1.5"/>
    <path class="st29" d="M1216.4,801.7c.2.1,1.2-1.5,3.1-2.5,1.9-1.1,3.7-1.1,3.7-1.4,0-.2-2-.6-4.1.6-2.1,1.2-2.9,3.2-2.6,3.3"/>
    <path class="st29" d="M1205.8,791.4c.2.1,1.7-2.3,4.5-4.2,2.8-2,5.5-2.5,5.5-2.7,0-.2-3-.1-6,2-3,2.1-4.2,4.9-4,4.9"/>
    <path class="st29" d="M1202.3,779.4c.2.2,2.1-1.2,4.9-2,2.8-.8,5.1-.6,5.2-.9,0-.2-2.4-.9-5.4,0-3,.8-4.8,2.7-4.6,2.8"/>
    <path class="st29" d="M1199.7,767.7c.2.2,2-1.6,5-2.2,3-.6,5.4.4,5.5.1,0,0-.5-.5-1.5-.8-1-.3-2.5-.5-4.1-.2-1.6.3-2.9,1-3.8,1.7-.8.7-1.2,1.3-1.1,1.3"/>
    <path class="st29" d="M1204.2,763.4s0-.6-.3-1.5c-.3-.9-.9-2.3-2-3.7-.6-.6-1.2-1.5-2.4-1.8-.6-.1-1.4.2-1.7.8-.3.6-.3,1.3-.2,1.9.6,2.5,3.3,4.5,6.1,4.2,2.9-.3,5-2.6,5.6-5,.1-.6.1-1.4-.3-2-.4-.6-1.3-.7-1.8-.5-1.1.4-1.7,1.3-2.3,2-1.1,1.4-1.7,2.8-2,3.7-.3,1-.3,1.5-.3,1.5.2,0,.5-2.2,2.7-4.8.6-.6,1.2-1.4,2-1.7.4-.1.8,0,1,.3.2.3.2.8.1,1.3-.5,2-2.5,4-4.9,4.3-2.4.3-4.8-1.5-5.3-3.5-.1-.5,0-1,0-1.4.2-.3.6-.5.9-.4.8.1,1.5.9,2.1,1.5,2.3,2.5,2.6,4.8,2.8,4.8"/>
    <path class="st35" d="M1098.3,741l1.9,32.5s-31.7,12.8-31.9,18.9l61.8-1.4-.9-50.7-30.8.8Z"/>
    <path class="st5" d="M1118.7,770.2c-1,0-2.1.8-2.4,1.8-.4,1.2.7,2.8,1.9,3.1.2,0,.3,0,.5,0,1.1,0,2.1-.8,2.3-1.9.2-1.2-.5-2.4-1.6-2.8-.2-.1-.5-.2-.7-.2"/>
    <path class="st27" d="M1068.9,790.7h-.3c-.3.5-.5,1-.4,1.6,0-.5.2-1,.7-1.6"/>
    <path class="st31" d="M1069.2,790.3h-.3c-.1.1-.2.3-.3.4h.3c0-.1.2-.3.3-.4"/>
    <path class="st5" d="M1129.7,785.8l-39.2,2.2v1.4c.1,0,.1,0,.1,0l-21.4.9c-.1.1-.2.3-.3.4-.4.6-.6,1.1-.7,1.6l61.8-1.4-.3-5.1Z"/>
    <path class="st29" d="M1099.1,773.2c0,.3,1.5.4,3,1.4,1.5.9,2.3,2.2,2.6,2.1.3,0-.2-1.9-2.1-3-1.8-1.1-3.6-.7-3.6-.5"/>
    <path class="st29" d="M1092.7,776c0,.3,1.3.8,2.3,2.1,1.1,1.3,1.4,2.7,1.7,2.6.3,0,.5-1.8-.9-3.3-1.3-1.6-3.1-1.7-3.1-1.4"/>
    <path class="st29" d="M1089.2,784.1c.3,0,.7-1.5-.1-3.2-.8-1.7-2.2-2.3-2.4-2-.2.3.8,1.1,1.4,2.5.7,1.4.8,2.7,1.1,2.7"/>
    <path class="st29" d="M1099.5,765.7c.1.3,1.5-.2,3.2-.1,1.7,0,3,.6,3.2.3.2-.2-1.1-1.3-3.2-1.4-2,0-3.4.9-3.3,1.2"/>
  </g>
  <path class="st31" d="M1099,753.1h0c0,.1,0,0,0,0ZM1129.3,747h0v5.2c0,0,0-5.2,0-5.2Z"/>
  <g class="st26">
    <path class="st29" d="M1099.3,759.1c0,.1,1.2.3,3.1,0,.9-.2,2.1-.5,3.2-1.1.6-.3,1.2-.6,1.8-1,.3-.2.6-.4.9-.8.3-.3.5-1.1.1-1.6-.3-.5-.9-.7-1.3-.7-.5,0-.8,0-1.2.2-.7.2-1.3.4-1.9.7-1.2.6-2.1,1.3-2.8,2-1.4,1.4-1.9,2.5-1.8,2.6.1,0,.8-.9,2.3-2,.7-.6,1.6-1.2,2.7-1.7.5-.2,1.1-.4,1.8-.6.6-.2,1.2-.2,1.4,0,0,.1,0,.2,0,.4-.1.2-.4.4-.7.6-.5.4-1.1.7-1.6,1-1.1.6-2.1,1-3,1.2-1.8.5-2.9.7-2.9.8"/>
    <path class="st29" d="M1099.7,759.6c.1,0,.7-1.1.8-3.1,0-1,0-2.2-.5-3.5-.2-.6-.5-1.3-.8-1.9-.4-.6-.8-1.4-2-1.6-.6,0-1.1.5-1.3.9-.2.4-.2.8-.3,1.2,0,.7,0,1.5,0,2.1.2,1.3.8,2.4,1.4,3.2,1.2,1.6,2.5,1.9,2.5,1.8,0-.2-1-.7-1.9-2.3-.5-.8-.9-1.8-1-2.9,0-.6,0-1.2,0-1.8,0-.7.3-1.2.6-1.2.3,0,.8.5,1.1,1,.3.6.6,1.1.8,1.7.4,1.1.6,2.2.7,3.1.1,1.9-.2,3,0,3.1"/>
    <path class="st29" d="M1146.3,393.4s18.2,40.3,20.9,52c2.7,11.8,53.4,322.4,53.4,322.4l-46.6,2.9-63.3-303.8,25.4,301.6-45.8,3.9s-34.6-318.8-33.2-327.8c2.2-13.6,13.4-52.6,13.4-52.6l75.6,1.4Z"/>
    <path class="st29" d="M1110.4,464.9s0,.3-.4.5c-.4.2-1.1.4-1.8-.2-.7-.6-.9-1.6-1.1-2.7-.2-1.1-.4-2.4-.6-3.7-.9-5.5-2-13.1-3.3-21.5-1.2-8.4-2.3-16-3-21.5-.3-2.6-.6-4.8-.8-6.5-.2-1.5-.2-2.4-.2-2.4,0,0,.2.8.5,2.4.3,1.7.7,3.9,1.1,6.5.9,5.5,2,13.1,3.3,21.5,1.2,8.4,2.3,16,3,21.5.2,1.4.3,2.6.5,3.7.1,1.1.3,2,.8,2.5.5.5,1.2.4,1.5.3.3-.2.4-.4.5-.4"/>
    <path class="st29" d="M1105.7,413s0-.3.4-.5c.4-.2,1-.5,1.8-.3.8.1,1.8.9,2,2.1.2,1.1-.3,2.5-1.5,3.2-1.2.6-2.6.2-3.4-.6-.8-.8-1-2-.8-2.7.4-1.7,1.5-2,1.5-1.9.1.1-.8.7-.9,2,0,.7,0,1.5.7,2,.6.5,1.6.8,2.5.4.8-.4,1.2-1.4,1.1-2.2,0-.8-.7-1.4-1.3-1.6-1.3-.4-2.1.3-2.1.2"/>
    <path class="st2" d="M1025.5,215.4l-28.6-45-8.7-14.8s-2.6-14.9-3.8-19.1c-2.5-8.6-3.3-8.4-4.2-7.9-2.5,1.3,3.9,15.3.8,13.1-3.1-2.2-5.9-18.1-8.5-16.7-3.3,1.9,3.6,16.4,4.2,17.7.5,1.2-1.3,2.1-1.7.9-.6-1.7-6.9-19.3-10.2-17.5-1.8,1,.2,4.2.2,4.2,0,0,7.1,16.1,5.6,16.9-1.6.8-6.1-8.5-7.4-11.7-1.3-3.2-3.3-3.9-4.2-2.1-.6,1.2,3.1,11.2,4.5,14.4,1.4,3.2,5.2,11.8,0,9.1-5.3-2.7-10.4-2.7-11.7-1.7-1.4,1-.5,3.3,1.3,3.3,1.5,0,3.9.9,5.8,1.6,1.5.6,2.9,1.4,4.1,2.5,1.4,1.2,2.6,2.4,3.5,3.3l7.1,15.1,31.3,62.8,65.6,55.5,16.5-30.5-61.4-53.4Z"/>
    <path class="st2" d="M1194.8,467c.4,1.3.8,2.9,1.3,4.7.4,1.6.5,3.2.3,4.9-.2,2-.6,4.6-1.2,6-.8,1.7.8,3.5,2.3,2.7,1.5-.8,3.8-5.4,3.9-11.4.1-6,5.8,1.4,8,4.1,2.1,2.7,9.1,10.7,10.5,10.7,1.9,0,2.3-2.2,0-4.8-2.2-2.7-8.2-11-6.8-12.1,1.4-1.1,12.1,12.8,12.1,12.8,0,0,1.8,3.3,3.5,2.1,3.1-2.2-9.4-16-10.6-17.3-.8-.9.7-2.1,1.5-1.1.9,1,10.4,14.1,13.5,11.9,2.4-1.7-10.1-11.5-10.6-15.3-.5-3.8,8.8,8.4,11,6.8.8-.6,1.4-1.2-4.9-7.5-3.1-3-14.8-12.2-14.8-12.2l-24.9-83.7-30.9.5,36.8,98.3Z"/>
    <path class="st35" d="M1099.2,268.7h0s-10.1-4-14.8-6.7l-49.1-38-21.9,29.9s56,51.6,56.9,51.4c.9-.2,28.8-36.5,28.8-36.5"/>
    <path class="st35" d="M1102.9,268.6h-3.7c-10.7.5-20.1,7.6-23.5,18-3.7,11.5-3.5,15.3-6.1,23.8-6.2,20.5,4.9,45.4,4.9,45.4l-3.8,36.1,75.6,1.4,3.8-43.5,14.1-65.1s-3.1-14-15.1-15.1c-6.3-.6-46.2-1-46.2-1"/>
    <path class="st35" d="M1151.3,270.8s17.9,0,23.4,21c5.5,21.1,16.3,76.7,16.3,76.7l-34,10.4-18.2-76.2c-1.2-4.3-1.8-8.8-1.5-13.3.6-7.6,3.4-17.5,14-18.6"/>
  </g>
  <polygon class="st35" points="1097.5 269.6 1103.5 257.9 1113.6 263.8 1113.6 268.9 1116.8 263.8 1140.6 257.9 1140.6 272.4 1112.8 275.5 1097.5 269.6"/>
  <g class="st23">
    <path class="st29" d="M1078.8,287.4c0,0-.4.9-1.3,2.5-.4.8-1,1.7-1.5,2.9-.5,1.1-1.2,2.4-1.8,3.9-.6,1.5-1.3,3.1-1.8,4.9-.7,1.8-1.1,3.7-1.7,5.7-1,4.1-1.8,8.7-2.1,13.5-.3,4.9,0,9.5.4,13.7.3,2.1.5,4.1,1,5.9.3,1.9.8,3.5,1.2,5.1.4,1.6.9,2.9,1.3,4.1.4,1.2.8,2.2,1.1,3.1.7,1.7,1,2.6.9,2.6,0,0-.5-.9-1.3-2.5-.4-.8-.8-1.8-1.3-3-.4-1.2-1-2.5-1.4-4.1-.5-1.5-1-3.2-1.3-5.1-.5-1.8-.7-3.8-1.1-6-.5-4.2-.8-8.9-.5-13.9.3-4.9,1.2-9.5,2.2-13.7.6-2,1.1-4,1.8-5.8.6-1.8,1.3-3.4,2-4.9.6-1.5,1.3-2.8,1.9-3.9.6-1.1,1.1-2.1,1.6-2.8,1-1.5,1.5-2.3,1.6-2.3"/>
    <path class="st29" d="M1111.8,262.9c.1,0-.2,1.4-.9,3.5-.7,2.1-1.6,5.1-2.7,8.3-.2.5-.4,1-.5,1.5l-.2.5-.5-.3c-2.6-1.6-4.7-3.4-6-4.7-1.4-1.4-2.1-2.3-2-2.4.2-.2,3.3,3.3,8.5,6.4l-.6.2c.2-.5.3-1,.5-1.5,1.1-3.2,2.2-6.1,3-8.2.8-2.1,1.4-3.4,1.5-3.3"/>
    <path class="st29" d="M1131.3,273.7c0,.1-1.3.7-3.6,1.6-2.3.9-5.4,2-8.9,3.2l-.5.2v-.5c0,0-.1-.4-.1-.4-.6-3.9-1-7.3-1.3-9.9-.3-2.5-.4-4.1-.3-4.1.1,0,.5,1.5.9,4,.4,2.5,1,6,1.5,9.8v.4c0,0-.5-.4-.5-.4,3.5-1.2,6.7-2.3,9-3,2.3-.7,3.8-1.1,3.8-1"/>
    <path class="st29" d="M1143.9,378c.1-.2,2.5,2.4,3.1,6.5.7,4.1-.7,7.3-.9,7.2-.3,0,.7-3.2,0-7-.6-3.9-2.5-6.5-2.3-6.6"/>
    <path class="st27" d="M1188.2,356.2c0,.1-1.8.7-4.9,1.5-3,.8-7.3,1.8-11.9,2.7-4.7.9-9,1.5-12.1,1.9-3.1.4-5,.5-5.1.4,0-.1,1.9-.5,5-1,3.1-.5,7.3-1.3,12-2.2,4.7-.9,8.9-1.8,12-2.4,3.1-.6,5-1,5-.9"/>
    <path class="st27" d="M1184.3,335.1c0,.1-1.9.9-5,1.9-3.1,1-7.5,2.2-12.4,3.4-4.9,1.2-9.2,2.3-12.4,3.2-3.2.8-5.1,1.4-5.2,1.3,0-.1,1.9-.9,5-1.9,3.1-1,7.5-2.2,12.4-3.4,4.9-1.2,9.2-2.3,12.4-3.2,3.2-.8,5.1-1.4,5.2-1.3"/>
    <path class="st29" d="M1157.1,378.9c0,0-.3-.7-.6-2-.4-1.5-.8-3.4-1.4-5.6-1.1-4.7-2.6-11.2-4.2-18.4-1.6-7.2-3-13.7-3.9-18.5-.4-2.2-.8-4.1-1.1-5.6-.2-1.3-.3-2.1-.3-2.1,0,0,.3.7.6,2,.4,1.5.8,3.3,1.4,5.6,1.1,4.7,2.6,11.2,4.2,18.4,1.6,7.2,3,13.7,3.9,18.5.4,2.2.8,4.1,1.1,5.6.2,1.3.3,2.1.3,2.1"/>
    <path class="st27" d="M1182.5,318.9c0,.2-25.4-.2-56.7-1.1-31.3-.9-56.7-1.8-56.7-2,0-.2,25.4.3,56.7,1.1,31.3.9,56.7,1.8,56.7,2"/>
    <path class="st27" d="M1173.8,289.4s-.3,0-1,.1c-.7,0-1.7.1-2.8.3-2.4.2-6,.4-10.4.7-8.8.5-20.9,1.1-34.3,1.5-13.4.4-25.6.5-34.3.4-4.4,0-8,0-10.4-.1-1.2,0-2.1,0-2.8,0-.6,0-1,0-1,0s.3,0,1,0c.7,0,1.7,0,2.8,0,2.6,0,6.1,0,10.4-.1,8.8-.1,20.9-.3,34.3-.7,13.4-.4,25.5-.9,34.3-1.2,4.3-.2,7.8-.3,10.4-.4,1.1,0,2.1,0,2.8,0,.6,0,1,0,1,0"/>
    <path class="st27" d="M1052.5,290.7c-.2-.2,5.6-7.3,12.9-15.9,7.3-8.6,13.4-15.5,13.6-15.3.2.2-5.6,7.3-12.9,15.9-7.3,8.6-13.4,15.5-13.6,15.3"/>
    <path class="st27" d="M1147.5,351.1c0,.2-17.3-1.3-38.6-3.5-21.3-2.2-38.6-4.1-38.5-4.4,0-.2,17.3,1.3,38.6,3.5,21.3,2.2,38.6,4.1,38.5,4.4"/>
    <path class="st27" d="M1148.4,375c0,.2-16.8,0-37.5-.4-20.7-.5-37.5-1.1-37.5-1.3,0-.2,16.8,0,37.5.4,20.7.5,37.5,1.1,37.5,1.3"/>
    <path class="st29" d="M1097.5,391.8s0-.4,0-1.3c0-.8,0-2.1,0-3.6,0-3.2.2-7.7.6-13.4.2-2.8.4-5.9.8-9.2.3-3.3.8-6.8,1.3-10.5.9-7.4,1.7-15.6,2.5-24.2,1.6-17.2,3.6-32.7,6.2-43.7,1.2-5.5,2.5-9.9,3.4-12.9.5-1.4.9-2.6,1.2-3.4.3-.8.4-1.2.5-1.2,0,0,0,.4-.3,1.2-.3.9-.6,2-1,3.5-.8,3-2,7.5-3.1,13-2.4,11-4.3,26.5-5.9,43.7-.8,8.6-1.6,16.8-2.6,24.2-.5,3.7-1,7.2-1.4,10.5-.4,3.3-.6,6.4-.9,9.2-.4,5.6-.7,10.2-.9,13.3,0,1.5-.1,2.7-.2,3.6,0,.8,0,1.3-.1,1.3"/>
  </g>
  <rect class="st27" x="1124.8" y="315.8" width="18.3" height="4.9"/>
  <g class="st22">
    <path class="st31" d="M1150.1,349.9h0l-.9,10.3c.4-3,.8-5.9,1.3-8.9l-.4-1.5Z"/>
    <path class="st5" d="M1145.7,331.2c-3.5,5.6-5.3,12.3-5.4,18.9,4.6.5,7.3.9,7.3,1,0,0,0,0-.3,0-.8,0-3.3-.2-7-.5,0,8.1,2.3,16.2,7.1,22.7.6-4.4,1.2-8.8,1.9-13.2l.9-10.3-4.5-18.7Z"/>
    <path class="st5" d="M1146.1,330.6c-.1.2-.3.4-.4.6l4.5,18.7.4,1.5c0,0,0-.1,0-.2-1.4-6.5-2.7-12.4-3.6-16.7-.1-.7-.3-1.3-.4-1.9l-.5-2Z"/>
    <path class="st7" d="M1146.6,332.6c.1.6.2,1.2.4,1.9.9,4.3,2.1,10.2,3.6,16.7,0-.7.2-1.3.3-2l-4.2-16.6Z"/>
    <path class="st31" d="M1140.2,350.1c0,.2,0,.4,0,.5,3.8.3,6.2.5,7,.5s.2,0,.3,0c0,0-2.7-.5-7.3-1"/>
    <path class="st29" d="M1135.4,210.3c2.2,4.5,1.1,9.9-.5,14.7-1.6,4.8-3.6,9.6-3.2,14.7.4,4.7,2.8,9,3.3,13.6.8,7.9-4.2,15-6.2,22.6-2.6,9.8,0,20.8,6.6,28.4.7.8,1.5,1.6,2.5,1.5,1.2,0,2.1-1.2,2.3-2.3.2-1.2,0-2.4,0-3.6-.9-11.3,9.7-20.3,11.2-31.5,1-7.3-1.9-14.5-2.4-21.8-.6-9.2,2.9-18.2,4-27.3.4-3.1.5-6.4-.5-9.4-1-3-3.2-5.7-6.2-6.5-3-.8-6.6.8-7.5,3.8"/>
    <path class="st8" d="M931.5,279.3l-35.7,23.1,25.3-70.7,6.8-13.9c.9-1.2,2-2.5,3.4-4,1.2-1.3,2.6-2.4,4.1-3.2,1.9-1,4.4-2.2,6-2.5,2-.3,2.6-2.9,1-3.7s-7-.2-12.4,3.4c-5.4,3.6-2.3-6.2-1.2-9.8,1.1-3.6,3.9-14.9,3-16.1-1.2-1.8-3.3-.8-4.3,2.8-1,3.7-4.7,14.3-6.5,13.6-1.8-.7,3.9-18.9,3.9-18.9,0,0,1.8-3.7-.3-4.5-3.8-1.5-8.4,18.3-8.8,20.2-.3,1.3-2.3.7-1.9-.7.4-1.4,6.1-18,2.2-19.6-2.9-1.2-4,16.3-7,19.1-3.1,2.8,2.1-13.2-.8-14.2-1.1-.4-1.9-.5-3.6,9.1-.8,4.7-1.7,21-1.7,21l-8.3,16.7.2.2-34,73.4c-6.5,17.6,4.1,31.8,14.8,38.2,9.9,6,22.3,5.6,31.9-.9l41.2-28.1-17.5-29.7Z"/>
    <path class="st1" d="M953.7,741.4l1.8,31.9s-31.1,12.6-31.3,18.5l60.6-.3-.9-50.9-30.3.8Z"/>
    <path class="st31" d="M973.7,770.1c-1,0-2.1.8-2.4,1.7-.4,1.2.7,2.7,1.9,3,.1,0,.3,0,.4,0,1,0,2.1-.8,2.3-1.9.2-1.1-.5-2.4-1.6-2.8-.2-.1-.5-.2-.7-.2"/>
  </g>
  <path class="st27" d="M984.8,790.8v.8s0-.8,0-.8h0ZM984.8,786.4v3.5h0v-3.5s0,0,0,0Z"/>
  <polygon class="st31" points="984.8 789.9 984.8 790.8 984.8 790.8 984.8 789.9 984.8 789.9"/>
  <g class="st25">
    <path class="st27" d="M924.5,790.8h-.2c-.1.3-.2.7-.1,1.1,0-.3.1-.7.3-1.1M926.1,788.9c-.3.2-.8.5-1.2,1h.3c.3-.3.6-.6.9-1"/>
    <path class="st31" d="M924.9,789.9c-.2.3-.4.6-.6.9h.2c.2-.3.4-.6.6-.9h-.3Z"/>
    <path class="st31" d="M984.8,786.4l-58.2,2.2s-.2,0-.5.3c-.3.3-.6.7-.9,1-.3.3-.5.6-.6.9-.2.4-.3.7-.3,1.1l60.6-.3v-.8s0-.9,0-.9v-3.5Z"/>
    <path class="st29" d="M954.5,773c0,.3,1.5.4,3,1.3,1.5.9,2.3,2.2,2.6,2.1.3,0-.2-1.9-2-3-1.8-1.1-3.6-.7-3.5-.4"/>
    <path class="st29" d="M948.2,775.9c0,.3,1.2.8,2.3,2,1.1,1.2,1.4,2.6,1.6,2.6.3,0,.4-1.7-.9-3.3-1.3-1.5-3-1.6-3-1.3"/>
    <path class="st29" d="M944.8,783.7c.3,0,.6-1.5-.1-3.1-.8-1.6-2.2-2.3-2.3-2-.2.3.8,1.1,1.4,2.5.7,1.3.8,2.6,1.1,2.6"/>
    <path class="st29" d="M954.9,765.7c.1.3,1.5-.2,3.2,0,1.7,0,3,.6,3.1.3.2-.2-1.1-1.3-3.1-1.4-2,0-3.3.9-3.2,1.1"/>
    <path class="st29" d="M954.7,759.3c0,.1,1.2.3,3,0,.9-.2,2-.5,3.2-1.1.6-.3,1.1-.6,1.7-1,.3-.2.6-.4.9-.8.3-.3.5-1.1.1-1.6-.3-.5-.9-.7-1.3-.7-.4,0-.8,0-1.1.2-.7.2-1.3.4-1.9.7-1.1.6-2.1,1.3-2.8,1.9-1.4,1.4-1.8,2.5-1.7,2.6.1,0,.8-.9,2.2-2,.7-.6,1.6-1.1,2.7-1.6.5-.2,1.1-.4,1.7-.6.6-.2,1.2-.2,1.4,0,0,.1,0,.2,0,.4-.1.2-.4.4-.7.5-.5.4-1.1.7-1.6,1-1,.6-2,.9-2.9,1.2-1.7.5-2.9.6-2.9.8"/>
    <path class="st29" d="M955.1,759.7c.1,0,.7-1.1.7-3,0-1,0-2.1-.5-3.4-.2-.6-.5-1.3-.8-1.9-.4-.6-.8-1.4-2-1.5-.6,0-1.1.5-1.2.9-.2.4-.2.8-.3,1.1,0,.7,0,1.4,0,2.1.2,1.3.8,2.4,1.4,3.2,1.2,1.6,2.5,1.9,2.5,1.8,0-.2-1-.7-1.9-2.2-.5-.7-.9-1.7-1-2.9,0-.6,0-1.2,0-1.8,0-.7.3-1.2.6-1.1.3,0,.8.5,1.1,1,.3.5.6,1.1.8,1.7.4,1.1.6,2.2.7,3.1.1,1.8-.2,3,0,3"/>
    <path class="st1" d="M1058.6,741l2.4,31.8s-30.9,13.2-31,19.1l60.6-2.5-4.9-49.6-27.1,1.2Z"/>
    <path class="st31" d="M1079.2,769.3c-1,0-2.1.8-2.4,1.8-.4,1.2.7,2.7,1.9,3,.1,0,.3,0,.4,0,1.1,0,2.1-.8,2.3-1.9.2-1.1-.5-2.4-1.6-2.7-.2-.1-.4-.2-.7-.2"/>
    <path class="st27" d="M1030.4,790.7h-.2c-.1.4-.2.8-.1,1.2,0-.4.1-.8.4-1.2M1058.9,790.7h0l-28.9,1.2,28.9-1.2ZM1031.8,789c-.3.2-.8.5-1.1,1h.3c.2-.3.5-.6.9-1"/>
    <path class="st31" d="M1068.9,790.3l-10.1.4h0l10-.4ZM1030.7,789.9c-.2.2-.4.5-.5.8h.2c.1-.3.3-.5.6-.8,0,0-.2,0-.3,0"/>
  </g>
  <path class="st28" d="M1068.9,790.3h.3s-.3,0-.3,0Z"/>
  <g class="st24">
    <path class="st31" d="M1090.1,784.4l-57.8,4.3s-.2,0-.5.3c-.3.3-.6.6-.9,1-.2.3-.4.6-.6.8-.2.4-.4.8-.4,1.2l28.9-1.2,10.1-.4h.3s21.4-.9,21.4-.9h0s-.1-1.4-.1-1.4l-.4-3.6Z"/>
    <path class="st29" d="M1060,772.6c0,.3,1.5.4,3,1.3,1.5.9,2.3,2.1,2.6,2,.3,0-.2-1.9-2.1-2.9-1.8-1.1-3.6-.7-3.5-.4"/>
    <path class="st29" d="M1053.8,775.5c0,.3,1.2.8,2.3,2,1.1,1.2,1.4,2.6,1.7,2.6.3,0,.4-1.7-.9-3.3-1.3-1.5-3.1-1.6-3.1-1.3"/>
    <path class="st29" d="M1050.5,783.4c.3,0,.6-1.5-.2-3.1-.8-1.6-2.2-2.2-2.4-2-.2.3.8,1.1,1.4,2.5.7,1.3.8,2.6,1.1,2.6"/>
    <path class="st29" d="M1060.3,765.2c.1.3,1.5-.2,3.2-.2,1.7,0,3,.5,3.1.3.2-.2-1.2-1.3-3.1-1.3-2,0-3.3,1-3.2,1.2"/>
    <path class="st29" d="M1059.9,758.8c0,.1,1.2.3,3-.1.9-.2,2-.6,3.1-1.1.6-.3,1.1-.6,1.7-1,.3-.2.6-.4.9-.8.3-.3.5-1.1,0-1.6-.3-.5-.9-.6-1.3-.6-.4,0-.8.1-1.1.2-.7.2-1.3.4-1.9.7-1.1.6-2,1.3-2.7,2-1.4,1.4-1.8,2.5-1.7,2.6.1,0,.8-.9,2.2-2,.7-.6,1.6-1.2,2.6-1.7.5-.2,1.1-.5,1.7-.6.6-.2,1.2-.2,1.4,0,0,.1,0,.2,0,.3-.1.2-.4.4-.7.6-.5.4-1,.7-1.6,1-1,.6-2,1-2.9,1.3-1.7.6-2.9.7-2.8.9"/>
    <path class="st29" d="M1060.3,759.2c.1,0,.7-1.1.7-3,0-1-.1-2.1-.5-3.4-.2-.6-.5-1.2-.9-1.9-.4-.6-.8-1.4-2-1.5-.6,0-1.1.5-1.2.9-.2.4-.2.8-.3,1.1,0,.7,0,1.4,0,2.1.2,1.3.8,2.4,1.4,3.1,1.2,1.6,2.5,1.9,2.5,1.8,0-.2-1-.7-1.9-2.2-.5-.7-.9-1.7-1.1-2.9,0-.6,0-1.2,0-1.8,0-.7.3-1.2.5-1.1.3,0,.8.5,1.1,1,.3.5.6,1.1.8,1.7.4,1.1.6,2.2.7,3.1.2,1.8-.1,3,0,3"/>
    <path class="st8" d="M1008.7,201.5l-5.9,70.5-34.5-2.8c-.2-4.1,0-20.1,0-20.1,0,0-14.4-2.3-14.5-17,0-7.1.9-21.9,2-35.1,1.2-14.7,13.6-25.8,28.1-24.9h0c14.9.9,26.2,14.2,24.9,29.5"/>
    <path class="st33" d="M968.3,248.9s9.1.8,18.7-5.4c0,0-4.4,10.6-18.8,9.2v-3.8Z"/>
    <path class="st29" d="M959.1,209.1c.2.3,1.9-.8,4.1-.7,2.2,0,3.8,1.3,4,1.1.1-.1-.1-.6-.8-1.2-.7-.6-1.8-1.1-3.2-1.2-1.4,0-2.6.4-3.2.9-.7.5-1,1-.8,1.1"/>
    <path class="st29" d="M979.3,209.5c.3.3,1.8-1,4-1,2.2,0,3.9,1,4.1.7.1-.1-.2-.6-.9-1.1-.7-.5-1.9-1-3.3-.9-1.4,0-2.5.6-3.2,1.1-.7.6-.9,1.1-.8,1.2"/>
    <path class="st29" d="M972.5,223.1c0-.1-1.4-.4-3.6-.7-.6,0-1.1-.2-1.2-.6-.1-.4.1-1,.4-1.7.5-1.4,1.1-2.9,1.7-4.4,2.3-6.2,4-11.4,3.7-11.5-.2,0-2.3,4.9-4.6,11.1-.6,1.5-1.1,3-1.6,4.4-.2.7-.6,1.4-.3,2.3.2.4.6.7.9.8.4.1.7.1,1,.1,2.2.1,3.6.1,3.6,0"/>
    <path class="st29" d="M979,224.7c-.4,0-.4,2.4-2.4,4.2-2,1.7-4.6,1.5-4.6,1.8,0,.2.6.5,1.6.5,1.1,0,2.6-.3,3.9-1.4s1.8-2.5,1.9-3.5c0-1-.2-1.6-.3-1.6"/>
    <path class="st29" d="M979.9,199c.2.6,2.4.3,5,.6,2.6.3,4.7,1,5,.5.2-.3-.2-.8-1.1-1.4-.8-.6-2.2-1.2-3.7-1.3-1.6-.2-3,0-3.9.5-1,.4-1.4.9-1.3,1.2"/>
    <path class="st29" d="M959.6,200.1c.4.6,2.2,0,4.3,0,2.1-.1,3.9.4,4.3-.2.2-.3-.1-.9-.9-1.4-.8-.6-2-1-3.5-1-1.4,0-2.7.6-3.4,1.2-.7.6-1,1.2-.8,1.5"/>
    <path class="st29" d="M993.1,185.4h0c2.3,1.9,3.8,4.6,4.2,7.5v.3c.6,4.2.5,8.4,1.1,12.6.6,4.2,2,8.4,5,11.3,1.2,1.2,3.4,2,4.5.6.4-.5.5-1.3.5-1.9.8-10.1,3.5-19.1,3.5-29.7,0-2.9-1.3-5.6-3.6-7.3-2.2-1.6-4.8-3.2-7.2-2.1-2.4,1.2-5.5,5.8-7.4,7.7"/>
    <path class="st8" d="M1003.9,208.2c.2-.1,9.9-3,9.6,7.1-.3,10-10.1,7.6-10.1,7.4,0-.3.6-14.4.6-14.4"/>
    <path class="st33" d="M1006.4,218.9s.2.1.5.3c.3.1.8.2,1.3,0,1-.4,2-2,2.1-3.8,0-.9-.1-1.8-.4-2.5-.3-.7-.7-1.3-1.2-1.4-.5-.1-.9.2-1,.4-.1.3,0,.5-.1.5,0,0-.2-.2-.1-.6,0-.2.2-.4.4-.6.2-.2.6-.3,1-.2.8,0,1.4.8,1.7,1.6.4.8.6,1.8.5,2.8-.1,2-1.2,3.9-2.6,4.3-.7.2-1.3,0-1.6-.3-.3-.3-.3-.5-.3-.5"/>
    <path class="st29" d="M1001.5,178.5c2.4-4-4.2-9.8-9.1-11.3-4.8-1.6-11.2.9-16.1,2.5-3,1-6.1,2.5-9.3,2.3-2.1,0-4.2-.9-6.2-1.6-2-.7-4.1-1.4-6.3-1.3-2.1.1-4.4,1.3-5.2,3.3-.8,2,.4,4.8,2.5,5.1-2.7-1.5-6.7.5-7.1,3.6-.4,3.1,2.8,6.2,5.8,5.5-1.4-1.1-3.5.7-3.4,2.5s1.8,3.1,3.4,3.8c4.1,1.8,8.9,1.3,13.1-.2,4.2-1.5,8.2-3.7,12.4-5.3,4.2-1.6,11.2-4.4,15.5-2.9,3.1,1.1,5.3,4.9,7,4.1,1.7-.8,2.8-2.6,3.1-4.5.3-1.9,0-3.8-.2-5.7"/>
    <path class="st29" d="M950.7,177.3c0,0,.5.7,1.6,1.9,1.1,1.1,2.8,2.7,5.5,3.6,2.6.9,6.1,1.2,9.4-.4,3.3-1.5,6.2-4.6,9.5-7.5,3.3-2.9,7.2-5.1,11-5.4,3.9-.4,7.4,1.1,9.4,3.3,2,2.3,2.4,4.9,2.2,6.5,0,.8-.3,1.4-.4,1.8-.2.4-.3.6-.3.6,0,0,.3-.9.4-2.4,0-1.5-.5-4-2.4-6-1.9-2-5.2-3.3-8.8-2.9-3.6.4-7.3,2.4-10.5,5.3-3.2,2.8-6.2,6-9.8,7.5-3.6,1.7-7.3,1.3-10,.2-2.7-1.1-4.5-2.7-5.5-4-.5-.6-.8-1.2-1-1.6-.2-.4-.3-.6-.3-.6"/>
    <path class="st29" d="M1006.4,207.8s-.4-.3-.8-1.1c-.4-.8-.7-2.1-.5-3.6.2-3.2,3-6.7,3.4-11.2.2-2.2-.2-4.4-1.1-6-.9-1.6-2.4-2.7-3.6-3.2-1.3-.6-2.5-.6-3.3-.5-.8.1-1.2.3-1.3.2,0,0,.3-.4,1.2-.6.8-.2,2.1-.3,3.6.2,1.5.5,3.1,1.6,4.2,3.4,1.1,1.8,1.5,4.2,1.3,6.6-.2,2.4-1,4.5-1.9,6.3-.8,1.8-1.5,3.4-1.8,4.9-.5,2.9.8,4.6.6,4.6"/>
  </g>
  <polygon class="st29" points="1036 429.1 1092.5 764.8 1047.9 770.3 984.7 470.9 990 766 947.4 766 930.5 426.2 1036 429.1"/>
  <g class="st13">
    <path class="st35" d="M934.7,322.3l-15.9,10.1-18.1-35.5c7.9-5.9,33.4-22.6,39.8-26.9,1.6-1.1,3.3-2,5.1-2.8,3.1-1.3,6.9-2.4,13.4-3.3,4.1-.6,7.2-.8,9.2-1.1,11.9,3.7,23.8,3.7,35.7,0,1.4,0,2.8.2,4.1.3,11.9,1.8,23.2,10.2,30.3,18l28.1,25.8-27.6,33.7-8.5-10.3,2,47.6,8.1,59.1h-110.1s-.2-14,.8-33.3c1.4-27.3,2.8-69.6,2.8-69.6"/>
    <path class="st29" d="M933.6,352.2c.2,0,.4-3,.7-7.8.3-4.8.7-11.5,1.3-18.9.6-7.4,1.2-14,1.7-18.8.5-4.8.7-7.8.6-7.8-.2,0-.7,2.9-1.4,7.7-.7,4.8-1.5,11.5-2.1,18.8-.6,7.4-.9,14.1-1,18.9,0,4.8,0,7.8.2,7.9"/>
    <path class="st29" d="M1028.2,305.3c-.2,0-.3,2.1-.3,5.4,0,3.3.2,7.9.6,13,.4,5.1.9,9.6,1.3,12.9.5,3.3.9,5.3,1.1,5.3.2,0,0-2.1-.2-5.4-.3-3.8-.6-8.1-1-12.9-.3-4.8-.7-9.1-.9-12.9-.2-3.3-.4-5.4-.6-5.4"/>
  </g>
  <rect class="st27" x="1000.8" y="310.9" width="18.3" height="4.9"/>
  <g class="st10">
    <path class="st27" d="M1036.4,279.8c0,.1-1.5-.7-4.4-.6-2.9,0-7,1.2-11.2,4.2-2.1,1.4-4.3,3.3-6.8,5.1-2.4,1.9-5.3,3.5-8.4,5-3.2,1.4-6.6,2.5-10.3,3.2-3.7.6-7.6.9-11.5.6-4-.2-7.8-1-11.4-2.2-1.8-.5-3.5-1.3-5.2-2-1.6-.8-3.2-1.6-4.7-2.5-6-3.6-10-8.6-14.1-11.6-4.1-3.1-8.4-4-11.2-3.7-2.9.3-4.2,1.3-4.2,1.2,0,0,0,0,.2-.2.2,0,.4-.3.8-.4.7-.4,1.8-.8,3.2-.9,2.9-.4,7.3.4,11.6,3.6,4.3,3,8.3,7.9,14.2,11.4,1.4,1,3,1.7,4.6,2.5,1.6.7,3.3,1.4,5.1,1.9,3.5,1.1,7.3,1.9,11.2,2.1,3.9.2,7.7,0,11.3-.6,3.6-.7,7-1.7,10.1-3.1,3.1-1.4,5.9-3,8.3-4.8,2.5-1.8,4.7-3.6,6.9-5,4.3-3,8.6-4.1,11.5-4,1.5,0,2.6.3,3.3.5.4.1.6.2.8.3.2,0,.3.1.3.1"/>
    <path class="st27" d="M934.9,316c-.1.1-1.2-1.5-3.4-3.5-1.1-1-2.5-2.1-4.2-3.1-1.7-1-3.7-1.9-5.8-2.7-2.2-.7-4.3-1.1-6.3-1.3-2-.1-3.7-.1-5.2,0-3,.4-4.7,1-4.8.8,0,0,.4-.3,1.2-.6.8-.3,2-.6,3.5-.9,1.5-.3,3.3-.4,5.4-.3,2,.1,4.2.5,6.5,1.2,2.2.7,4.2,1.7,6,2.8,1.7,1.1,3.1,2.3,4.2,3.4.6.5,1,1.1,1.4,1.5.4.5.7.9.9,1.3.5.7.7,1.1.7,1.2"/>
    <path class="st27" d="M1027.8,332.6s-.3.2-.8.5c-.7.4-1.5.8-2.5,1.3-.6.3-1.2.6-1.8,1-.7.3-1.4.6-2.2,1-1.6.7-3.4,1.5-5.6,2.2-1.1.4-2.1.7-3.3,1.1-1.1.4-2.4.7-3.6,1-2.5.7-5.2,1.2-8.1,1.8-5.8.9-12.2,1.4-19,1.2-6.7-.3-13.1-1.4-18.8-2.7-2.8-.8-5.5-1.5-7.9-2.4-1.2-.4-2.4-.8-3.5-1.3-1.1-.5-2.2-.9-3.2-1.4-2.1-.8-3.8-1.8-5.4-2.6-.8-.4-1.5-.8-2.2-1.2-.6-.4-1.2-.8-1.8-1.1-1-.6-1.8-1.1-2.4-1.5-.5-.4-.8-.6-.8-.6,0,0,.3.1.9.4.6.4,1.5.8,2.5,1.4.5.3,1.1.7,1.8,1,.7.4,1.4.7,2.2,1.1,1.6.8,3.3,1.7,5.4,2.5,1,.4,2.1.9,3.2,1.3,1.1.5,2.3.8,3.5,1.2,2.4.9,5.1,1.6,7.9,2.3,5.6,1.3,12,2.3,18.7,2.6,6.7.2,13.1-.3,18.8-1.1,2.9-.5,5.6-1,8.1-1.7,1.2-.3,2.5-.6,3.6-.9,1.1-.4,2.2-.7,3.3-1.1,2.1-.6,3.9-1.4,5.6-2.1.8-.3,1.6-.6,2.3-.9.7-.3,1.3-.6,1.9-.9,1-.5,1.9-.9,2.6-1.2.6-.3.9-.4.9-.4"/>
    <path class="st27" d="M1057.9,303.6c0,.2-2-.5-5.1-.4-3.2,0-7.5,1.1-11.7,3.6-4.2,2.5-7.5,5.6-9.8,7.8-2.3,2.2-3.8,3.6-3.9,3.5,0,0,1.2-1.6,3.5-4,2.3-2.3,5.5-5.5,9.8-8.1,4.3-2.6,8.9-3.6,12.1-3.5,1.6,0,2.9.3,3.8.5.9.3,1.3.5,1.3.5"/>
    <path class="st27" d="M1030.1,368.8s-.3.2-.9.5c-.7.3-1.6.7-2.7,1.2-1.2.5-2.6,1.2-4.3,1.8-1.7.6-3.6,1.4-5.8,2-1.1.3-2.2.7-3.4,1.1-1.2.4-2.4.6-3.7,1-2.6.7-5.4,1.2-8.3,1.8-5.9,1-12.5,1.7-19.4,1.8-6.9,0-13.5-.6-19.4-1.4-2.9-.5-5.8-1-8.3-1.6-1.3-.3-2.6-.6-3.8-.9-1.2-.3-2.3-.7-3.4-1-2.2-.6-4.1-1.3-5.8-1.9-1.7-.6-3.1-1.2-4.3-1.7-1.1-.5-2-.9-2.7-1.2-.6-.3-.9-.4-.9-.5,0,0,.4,0,1,.3.7.3,1.6.6,2.7,1,1.2.5,2.6,1,4.3,1.5,1.7.5,3.6,1.2,5.8,1.8,1.1.3,2.2.6,3.4.9,1.2.3,2.4.6,3.7.9,2.6.6,5.4,1,8.3,1.5,5.9.8,12.4,1.4,19.3,1.4,6.9,0,13.4-.8,19.3-1.7,2.9-.5,5.7-1,8.3-1.7,1.3-.3,2.5-.6,3.7-.9,1.2-.3,2.3-.7,3.4-1,2.2-.6,4.1-1.3,5.8-1.9,1.7-.6,3.1-1.1,4.3-1.6,1.1-.4,2-.8,2.7-1.1.6-.2,1-.3,1-.3"/>
    <path class="st27" d="M1036.4,414s-.4,0-1.1,0c-.8,0-1.8-.2-3-.4-2.6-.4-6.5-.8-11.2-1.3-4.7-.5-10.4-.9-16.6-1.3-6.3-.3-13.2-.4-20.4-.3-7.2.2-14.1.6-20.4,1.2-6.3.6-11.9,1.3-16.6,2-4.7.7-8.5,1.4-11.1,1.8-1.2.2-2.2.4-3,.5-.7.1-1.1.2-1.1.1,0,0,.3-.1,1-.3.8-.2,1.8-.4,3-.7,2.6-.6,6.4-1.3,11.1-2.1,4.7-.8,10.3-1.6,16.6-2.2,6.3-.6,13.2-1.1,20.5-1.3,7.3-.1,14.2,0,20.5.3,6.3.4,11.9.9,16.7,1.5,4.7.6,8.5,1.1,11.2,1.6,1.2.2,2.2.4,3,.6.7.1,1,.2,1,.3"/>
    <path class="st8" d="M1072.9,371l1.6-15.8s-10.3-18.1-5.6-43l-4.1-3.7-22.7,27.8,30.7,34.7Z"/>
    <path class="st29" d="M649.4,178.7c-14.6-.4-28.7,11.3-31.2,26-1.3,7.6.1,15.9-3.3,22.9-4.6,9.2-16.5,13.4-19.2,23.3-2.3,8.3,3.1,17.3.8,25.5-1.6,6-6.9,10.2-9.4,15.8-2.5,5.4-2.1,12.2,1.2,17.2,3.3,5,9.4,8,15.2,7.1,3.7-.5,7-2.5,10.6-3.7,7.7-2.6,16-1.6,24-.5,8,1.1,16.2,2.5,24,.6,7.9-1.9,15.4-7.8,16.5-16,.8-5.3-1.2-10.5-2.8-15.6-10.5-33.6-5.6-70.3-13.1-104.8"/>
    <path class="st29" d="M620.2,209.7c-2.1-2.6-4.3-5.1-7-7-2.7-1.9-6.1-3-9.3-2.5-3.2.5-6.3,3-6.9,6.3-.6,3.3,1.8,7,5.1,7.3-2.5-1.3-5.9.8-6.4,3.7-.5,2.8,1.4,5.7,4,6.9,2.6,1.2,5.6.8,8.2-.2,2.6-1.1,4.9-2.8,7.2-4.6,2.5-2,5.1-3.9,7.6-5.9"/>
    <path class="st29" d="M593.8,307.5s-.5,0-1.3-.6c-.8-.5-1.9-1.6-2.5-3.4-.7-1.7-1-4.1-.2-6.7.8-2.6,2.5-5.1,4.7-7.5,2.2-2.4,4.8-4.9,6.7-8.1,2-3.2,2.1-7.5,1.3-11.7-.8-4.2-2.4-8.6-2.4-13.4,0-2.4.7-4.9,2.1-7,1.4-2.1,3.3-3.8,5.4-5.1,4.2-2.7,8.8-4.2,12.6-6.9,1.9-1.3,3.5-2.9,4.6-4.8,1.1-1.9,1.7-4,2.1-6.1.7-4.2.5-8.4.8-12.2.2-3.9.8-7.5,1.8-10.6,1.9-6.4,5.7-10.6,8.7-12.6,1.5-1,2.8-1.6,3.7-1.9.4-.2.8-.2,1-.3.2,0,.4,0,.4,0,0,.1-2,.4-4.9,2.5-2.9,2-6.5,6.2-8.3,12.5-.9,3.1-1.5,6.7-1.7,10.5-.2,3.8,0,8-.7,12.3-.4,2.2-1,4.4-2.2,6.4-1.2,2-2.9,3.7-4.8,5.1-3.9,2.8-8.5,4.3-12.6,6.9-2,1.3-3.9,2.9-5.2,4.9-1.3,1.9-1.9,4.3-1.9,6.6,0,4.6,1.6,9,2.3,13.3.4,2.1.6,4.3.4,6.4-.2,2.1-.8,4.1-1.9,5.8-2,3.4-4.7,5.8-6.9,8.2-2.2,2.4-3.9,4.8-4.7,7.2-.8,2.4-.6,4.7,0,6.4.6,1.7,1.6,2.8,2.3,3.3.8.6,1.2.7,1.2.8"/>
    <path class="st29" d="M617.4,220.3c-.2-.1,1.4-2.9,1.5-6.7.2-3.8-1.2-6.7-.9-6.8.2-.2,2,2.7,1.8,6.8-.1,4.1-2.2,6.8-2.4,6.6"/>
    <path class="st29" d="M626.2,276.2s-.2-.2-.6-.7c-.4-.5-.9-1.2-1.3-2.3-.9-2.1-1.1-5.6.1-9.6,1.1-4,4.2-7.9,7.1-12.3,1.5-2.2,2.9-4.6,3.8-7.3.9-2.7,1.3-5.7,1.4-8.7,0-6.1-1.1-11.9-1.4-17.3-.4-5.4,0-10.4,1.6-14.2,1.5-3.8,3.8-6.4,5.6-7.8.9-.7,1.7-1.1,2.2-1.3.5-.2.8-.3.8-.3,0,0-1.1.5-2.9,1.9-1.7,1.4-3.8,3.9-5.2,7.7-1.4,3.7-1.8,8.6-1.4,13.9.4,5.3,1.6,11.1,1.5,17.4,0,3.1-.5,6.2-1.5,9-1,2.8-2.5,5.2-4,7.5-3.1,4.4-6,8.1-7.2,12-1.3,3.8-1.1,7.2-.4,9.3.7,2.1,1.7,3,1.6,3.1"/>
    <path class="st29" d="M581.7,279.7s.2.3.5.8c.3.5.9,1.2,1.9,1.8,1,.6,2.4.9,3.9.8,1.6,0,3.3-.9,4.7-2.4,1.3-1.5,2.3-3.6,2.6-6,.4-2.4,0-5-.6-7.7-.6-2.7-1.6-5.4-2.4-8.4-.8-2.9-1.3-6.2-.7-9.5.6-3.3,2.3-6.1,4.3-8.4,2-2.3,4.3-4.2,6.5-5.8,2.2-1.7,4.4-3.1,6.4-4.5,2-1.5,3.7-2.9,5.1-4.4,2.9-2.9,4.6-6,5.2-8.2.6-2.2.6-3.6.7-3.6,0,0,.2,1.3-.3,3.7-.5,2.3-2.2,5.5-5.1,8.6-1.4,1.5-3.2,3.1-5.1,4.6-2,1.5-4.1,2.9-6.3,4.6-2.2,1.6-4.4,3.5-6.3,5.7-1.9,2.2-3.5,4.9-4.1,8-.6,3.1,0,6.2.7,9.1.7,2.9,1.7,5.7,2.4,8.4.6,2.7,1,5.5.5,8-.4,2.5-1.4,4.8-2.9,6.4-1.5,1.6-3.4,2.4-5.1,2.5-1.7,0-3.1-.4-4.1-1-1-.6-1.6-1.4-1.9-2-.2-.3-.2-.5-.3-.7v-.2Z"/>
    <path class="st29" d="M688.4,195.1c1.3,8.9,3.6,17.7,7.4,23.2,3,4.4,8.9,7,9.8,12.3.8,4.5-1.9,8.9-1.4,13.5.7,7.1,8.4,11.5,10.5,18.3,1.8,5.7-.7,12.1-4.9,16.2-4.2,4.1-9.9,6.3-15.5,7.8-8,2.2-17.8,2.9-23.5-3.2-3.9-4.2-4.8-10.4-5.3-16.2-1.3-15.5-1.3-31.2-1.2-46.8"/>
    <path class="st4" d="M635.8,210c-1.8-14.9,8.7-28.5,23.5-29.9,13.9-1.4,26.3,9.3,28.4,23.4,1.8,12.4,3.4,24.9,3.4,29.5-.2,13.7-8,19.1-11.2,20.7-.7.4-2.7.8-3.5.9h0c0,.1,3,15.9,3,15.9,1.4,10.3-4.3,19.5-14.4,21-10.1,1.5-18-6.4-19.6-16.7l-9.5-64.7Z"/>
    <path class="st29" d="M685.1,209.5c-.2.3-2-.7-4.3-.3-2.3.3-3.8,1.8-4.1,1.5-.1-.1,0-.7.7-1.3.6-.6,1.8-1.4,3.2-1.6,1.4-.2,2.7.2,3.4.6.8.4,1.1.9,1,1.1"/>
    <path class="st29" d="M664.6,213.6c-.2.3-2-.7-4.3-.3-2.3.3-3.8,1.8-4.1,1.5-.1-.1,0-.7.7-1.3.6-.6,1.8-1.4,3.2-1.6,1.4-.2,2.7.1,3.4.6.8.4,1.1.9,1,1.1"/>
    <path class="st29" d="M673.1,227c0-.1,1.3-.6,3.6-1.2.6-.1,1.1-.3,1.1-.8,0-.4-.3-1-.6-1.7-.8-1.4-1.5-2.8-2.4-4.3-3.3-6.1-5.8-11.1-5.5-11.2.2-.1,3.1,4.7,6.4,10.8.8,1.5,1.6,2.9,2.3,4.3.3.6.8,1.3.6,2.3,0,.5-.5.9-.8,1-.4.2-.7.2-1,.3-2.3.5-3.7.7-3.7.6"/>
    <path class="st8" d="M676.3,254.6s-8.7,2-20.6-3.1c0,0,5.2,11.3,21.4,7.3l-.8-4.2Z"/>
    <path class="st8" d="M672.9,232.7c-1-1-2.5-1.4-3.9-1-1,.3-1.9.9-2.4,1.8-.5.9-.4,2.1.2,2.8.7.8,2,.8,3.1.3,1-.5,1.9-1.3,2.6-2.2.2-.2.4-.5.6-.8.1-.3,0-.7-.1-.9"/>
    <path class="st29" d="M666.6,229.6c.4,0,.7,2.4,3.1,3.9,2.4,1.5,5,.8,5,1.2,0,.2-.5.6-1.6.8-1.1.2-2.7,0-4.2-.8-1.4-.9-2.2-2.3-2.4-3.3-.2-1,0-1.7.1-1.7"/>
    <path class="st29" d="M663.4,207c-.1.7-2.4.7-5.1,1.4-2.6.7-4.7,1.8-5.1,1.3-.2-.2,0-.9.9-1.6.8-.7,2.1-1.5,3.6-1.9,1.6-.4,3.1-.4,4.1-.1,1,.3,1.6.7,1.5,1"/>
    <path class="st29" d="M683.2,203.1c-.3.6-2,.3-3.9.5-1.9.2-3.4.9-3.9.4-.2-.2,0-.8.6-1.4.6-.6,1.7-1.2,3-1.3,1.3-.2,2.5.2,3.2.6.7.4,1,1,.9,1.2"/>
    <path class="st29" d="M681.1,211.4c-.2,1.1.6,2.2,1.7,2.5,1.1.2,2.2-.5,2.4-1.6.2-1.1-.6-2.2-1.7-2.5-1.1-.2-2.2.5-2.4,1.6"/>
    <path class="st29" d="M660.3,215.4c-.2,1.1.6,2.2,1.7,2.5,1.1.2,2.2-.5,2.4-1.6.2-1.1-.6-2.2-1.7-2.5-1.1-.2-2.2.5-2.4,1.6"/>
    <path class="st4" d="M637.3,275.2l51.1-10.1-1.5,29.1s-22.7,7.2-23.5,7.6c-.8.4-15.7,0-15.7,0l-10.4-26.6Z"/>
    <path class="st4" d="M580.7,472.8c-.4,1.3-.8,2.9-1.2,4.8-.3,1.6-.4,3.3-.2,4.9.2,2,.7,4.6,1.3,5.9.8,1.7-.8,3.5-2.3,2.7-1.5-.8-3.9-5.3-4.1-11.4-.2-6-5.8,1.5-7.9,4.3-2.1,2.7-9,10.8-10.3,10.8-2,0-2.3-2.1-.2-4.8,2.2-2.7,8.1-11.1,6.6-12.2-1.4-1-11.9,13-11.9,13,0,0-1.8,3.4-3.5,2.2-3.1-2.1,9.1-16.2,10.3-17.5.8-.9-.7-2.1-1.6-1.1-.9,1.1-10.1,14.2-13.3,12.1-2.5-1.6,9.9-11.7,10.4-15.5.4-3.8-8.6,8.6-10.9,6.9-.8-.6-1.4-1.2,4.8-7.6,3-3.1,14.6-12.4,14.6-12.4l23.6-84.1h30.9l-35.2,98.9Z"/>
    <path class="st4" d="M730.9,252.8s44-17.9,51-23.4c7-5.5,50.9-45.9,50.9-45.9l5.8-5c.7-1.2,1.5-2.6,2.4-4.2.8-1.4,1.3-3,1.5-4.6.3-2,.6-4.6.3-6.1-.3-1.8,1.7-3.2,2.9-2,1.2,1.2,2.3,6.2.9,12.1-1.4,5.9,6,.1,8.8-1.9,2.7-2,11.5-7.9,12.8-7.6,1.9.5,1.7,2.7-1.1,4.7-2.8,2-10.7,8.5-9.6,9.9,1.1,1.4,14.9-9.1,14.9-9.1,0,0,2.6-2.7,4-1.1,2.4,2.9-13.1,13-14.6,13.9-1,.6.1,2.2,1.2,1.5,1.1-.8,13.6-10.9,16.1-7.9,1.9,2.2-12.7,8.4-14.1,12-1.4,3.6,10.6-5.8,12.4-3.6.7.8,1,1.5-6.7,5.9-3.7,2.1-17.4,7.9-17.4,7.9l-1.4,1.5-58.6,62.1-53.8,22-8.6-30.8Z"/>
    <path class="st35" d="M566.2,724.9l-8.6,39.8-15.7,29.5c-1.1,2.1-.3,4.8,1.9,5.8,1.2.6,2.6.5,3.7-.2,7.3-4.3,34.1-20.3,34.6-23.3.5-3.4,11.8-41.4,11.8-41.4l-27.7-10.3Z"/>
    <path class="st27" d="M582.8,773.9h0c-.2.9-.4,1.7-.5,2.2,0-.2,0-.3.1-.5l.4-1.7Z"/>
    <path class="st27" d="M560.1,792.3c-5.3,3.2-10.1,6.1-12.6,7.6-.6.4-1.3.6-2,.6s-1.2-.1-1.7-.4c.6.3,1.2.4,1.8.4s1.4-.2,2.1-.6c4.8-2.9,8.9-5.4,12.5-7.6,0,0,0,0,0,0"/>
    <path class="st27" d="M563,790.5c-1,.6-1.9,1.2-2.9,1.8,0,0,0,0,0,0,1-.6,2-1.2,2.9-1.8h0ZM573.1,784c-2.9,1.9-6.2,4.1-9.4,6.1h0c3.9-2.4,7-4.5,9.4-6.1,0,0,0,0,0,0"/>
    <path class="st27" d="M581.6,777.5c-1.2,1.4-4.5,3.8-8.5,6.5,0,0,0,0,0,0,3.5-2.3,5.6-3.9,6.9-4.8.6-.5,1.2-1.1,1.6-1.7"/>
    <path class="st31" d="M563.7,790.1h0c-.2.1-.4.3-.6.4h0c.2-.1.4-.3.6-.4"/>
    <path class="st5" d="M582.8,773.9l-39,26.1c.5.3,1.1.4,1.7.4s1.4-.2,2-.6c2.5-1.5,7.3-4.4,12.6-7.6.9-.6,1.9-1.2,2.9-1.8.2-.1.4-.3.6-.4,3.3-2.1,6.6-4.2,9.4-6.1,4-2.7,7.3-5.1,8.5-6.5.3-.4.5-.9.6-1.4.1-.5.3-1.2.5-2.2"/>
    <path class="st5" d="M578.6,759c-.3,0-.6,0-.9.3-1,.5-1.6,1.8-1.2,2.9.3.9,1.3,1.6,2.2,1.6s.5,0,.7-.1c1.1-.4,2-2.1,1.5-3.2-.4-.8-1.4-1.5-2.3-1.5"/>
    <path class="st29" d="M556.8,785c-.2,0-.6-2.2-2.7-3.9-2-1.8-4.3-1.7-4.3-2,0-.1.6-.3,1.5-.2.9,0,2.2.5,3.3,1.5,1.1,1,1.8,2.2,2,3.1.3.9.2,1.5,0,1.5"/>
    <path class="st29" d="M552.8,789.6c-.2.1-1.2-1.5-3-2.6-1.8-1.1-3.7-1.2-3.7-1.4,0-.2,2-.6,4.1.7,2.1,1.3,2.8,3.3,2.6,3.3"/>
    <path class="st29" d="M563.6,779.5c-.2.1-1.7-2.3-4.4-4.3-2.7-2-5.5-2.5-5.4-2.8,0-.2,3,0,5.9,2.1,3,2.1,4.1,4.9,3.9,5"/>
    <path class="st29" d="M567.2,767.6c-.2.2-2.1-1.2-4.8-2-2.8-.8-5.1-.7-5.2-.9,0-.2,2.4-.8,5.4,0,3,.9,4.8,2.8,4.6,2.9"/>
    <path class="st29" d="M570,755.9c-.2.2-2-1.7-5-2.3-3-.7-5.4.3-5.5,0,0-.1.5-.5,1.5-.8,1-.3,2.5-.5,4.1-.1,1.6.3,2.9,1.1,3.7,1.8.8.7,1.2,1.3,1.1,1.4"/>
    <path class="st29" d="M565.6,751.5s0-.6.3-1.5c.3-.9.9-2.3,2.1-3.6.6-.6,1.3-1.5,2.5-1.7.6-.1,1.4.2,1.7.8.3.6.3,1.3.2,1.9-.6,2.5-3.3,4.4-6.2,4.1-2.9-.4-5-2.6-5.6-5.1-.1-.6-.1-1.4.4-2,.5-.6,1.3-.7,1.8-.4,1.1.5,1.7,1.3,2.2,2,1.1,1.4,1.6,2.8,1.9,3.7.3,1,.3,1.5.3,1.5-.2,0-.5-2.2-2.7-4.9-.6-.6-1.2-1.4-2-1.7-.4-.1-.8,0-1,.2-.2.3-.3.8-.2,1.3.5,2,2.5,4.1,4.9,4.4,2.4.3,4.8-1.4,5.3-3.4.1-.5.1-1,0-1.4-.2-.3-.5-.5-.9-.5-.8.1-1.5.8-2.1,1.4-2.3,2.5-2.7,4.8-2.9,4.7"/>
    <path class="st35" d="M687.8,739.6l-1.2,31.9s31.3,11.9,31.7,17.9h-60.6c0-.1-.2-49.9-.2-49.9h30.3Z"/>
    <path class="st5" d="M668.4,768.7c-.3,0-.5,0-.7.2-1.1.4-1.8,1.7-1.5,2.8.2,1,1.3,1.8,2.3,1.8s.3,0,.5,0c1.2-.3,2.2-1.9,1.8-3.1-.3-.9-1.4-1.7-2.4-1.7"/>
  </g>
  <polygon class="st5" points="657.8 784.2 657.7 789.3 712.3 789.4 712.8 786.1 657.8 784.2"/>
  <g class="st17">
    <path class="st29" d="M687.6,771.2c0,.3-1.5.4-3,1.4-1.5.9-2.2,2.2-2.5,2.1-.3,0,.2-1.9,2-3,1.8-1.2,3.6-.8,3.5-.5"/>
    <path class="st29" d="M693.9,773.9c0,.3-1.2.8-2.2,2.1-1,1.2-1.3,2.6-1.6,2.6-.3,0-.5-1.7.8-3.3,1.3-1.6,3-1.7,3-1.4"/>
    <path class="st29" d="M697.5,781.7c-.3,0-.7-1.4,0-3.1.8-1.7,2.1-2.3,2.3-2.1.2.3-.7,1.1-1.3,2.5-.6,1.4-.7,2.6-1,2.7"/>
    <path class="st29" d="M687.1,763.9c-.1.3-1.5-.1-3.2,0-1.7,0-3,.6-3.1.4-.2-.2,1.1-1.3,3.1-1.4,2-.1,3.4.8,3.2,1.1"/>
  </g>
  <path class="st31" d="M687.3,751.6h0s0,0,0,0ZM657.5,746.1h0v5.1s0-5.1,0-5.1Z"/>
  <polygon class="st5" points="687.6 745.9 657.5 746.1 657.5 751.3 687.3 751.6 687.3 751.6 687.6 745.9"/>
  <g class="st15">
    <path class="st29" d="M687.2,757.5c0,.1-1.2.3-3,0-.9-.2-2-.5-3.2-1-.6-.3-1.2-.6-1.7-.9-.3-.2-.6-.4-.9-.7-.3-.3-.5-1.1-.1-1.6.3-.5.9-.7,1.3-.7.4,0,.8,0,1.1.2.7.2,1.3.4,1.9.7,1.2.5,2.1,1.2,2.8,1.9,1.4,1.3,1.9,2.5,1.8,2.5-.1.1-.8-.9-2.2-2-.7-.5-1.6-1.1-2.7-1.6-.5-.2-1.1-.4-1.7-.6-.6-.2-1.2-.2-1.4.1,0,.1,0,.2,0,.3.1.2.4.4.7.5.5.4,1.1.7,1.6.9,1.1.5,2.1.9,2.9,1.2,1.7.5,2.9.6,2.9.7"/>
    <path class="st29" d="M686.8,757.9c-.1,0-.7-1-.8-3,0-1,0-2.1.4-3.4.2-.6.4-1.3.8-1.9.4-.6.8-1.4,1.9-1.6.6,0,1.1.5,1.3.9.2.4.2.8.3,1.1.1.7,0,1.4,0,2.1-.2,1.3-.7,2.4-1.3,3.2-1.2,1.6-2.4,2-2.4,1.9,0-.2.9-.7,1.8-2.3.5-.8.8-1.8,1-2.9,0-.6,0-1.2,0-1.8,0-.7-.3-1.2-.6-1.1-.3,0-.8.5-1.1,1-.3.6-.6,1.1-.8,1.7-.4,1.1-.5,2.2-.6,3.1,0,1.8.2,3,0,3"/>
    <path class="st29" d="M628.6,389.2s-19.2,30.9-21.9,42.8c-2.5,10.6-44.4,241.4-53.1,289.2-.9,4.9,2,9.7,6.7,11.1l37.9,11.7c5.4,1.6,10.9-1.7,12.1-7.3l46.8-223.6-13.7,221.5c-.4,6.7,4.9,12.3,11.4,12.1l37.2-1.2c5.7-.2,10.4-4.8,10.7-10.6,3.2-53.3,17.8-296,14.8-303.6-3.3-8.6-11.9-38.3-11.9-38.3l-77-3.7Z"/>
    <path class="st29" d="M613.5,725.8c0,0-.8,0-2.3-.3-1.5-.2-3.6-.6-6.3-1.2-5.3-1.1-12.5-2.9-20.4-5.2-7.9-2.4-14.9-4.8-19.9-6.8-2.5-1-4.5-1.8-5.9-2.4-1.4-.6-2.1-1-2.1-1,0,0,.8.2,2.2.7,1.6.6,3.6,1.3,6,2.1,5.1,1.8,12.1,4.2,20,6.5,7.9,2.3,15.1,4.2,20.3,5.4,2.5.6,4.6,1.1,6.2,1.5,1.5.4,2.3.6,2.3.6"/>
    <path class="st29" d="M566.4,711.6c-.2.2-1.8-1.5-2.4-4.2-.6-2.7,0-5,.3-4.9.3,0,0,2.2.6,4.7.6,2.5,1.8,4.3,1.5,4.4"/>
    <path class="st29" d="M571.1,703.4c.2,0,.3,2.1-.5,4.6-.7,2.5-1.9,4.2-2.1,4.1-.2-.1.6-2,1.2-4.3.7-2.4,1-4.3,1.3-4.3"/>
    <path class="st29" d="M690.1,715c.2,0,.7,1.8,1.1,4,.4,2.3.5,4.1.2,4.2-.2,0-.7-1.8-1.1-4-.4-2.3-.5-4.1-.2-4.2"/>
    <path class="st29" d="M694.6,712.9c.2,0,.4,1.9.4,4.3,0,2.4-.3,4.3-.5,4.3-.2,0-.4-1.9-.4-4.3,0-2.4.3-4.3.5-4.3"/>
    <path class="st29" d="M673.8,400s0,.4,0,1.2c0,.9,0,2-.1,3.5-.1,3-.4,7.4-.8,12.8-.8,10.8-2.2,25.7-4.6,42.1-2.4,16.4-5.1,31.1-7.3,41.7-1.1,5.3-2,9.6-2.7,12.5-.3,1.4-.6,2.5-.8,3.4-.2.8-.3,1.2-.3,1.2,0,0,0-.4.2-1.2.2-.9.4-2,.6-3.4.6-3.1,1.4-7.4,2.4-12.6,2-10.6,4.7-25.3,7-41.7,2.3-16.3,3.9-31.2,4.8-42,.4-5.3.8-9.7,1-12.8.1-1.4.2-2.6.3-3.5,0-.8.1-1.2.2-1.2"/>
    <path class="st29" d="M707.6,400s-.3,0-.8.1c-.7,0-1.5,0-2.4.1-2.1,0-5.2.2-9,.2-7.6.1-18,.1-29.6-.2-11.5-.3-22-.9-29.5-1.5-3.8-.3-6.8-.5-8.9-.8-1-.1-1.8-.2-2.4-.3-.6,0-.8-.1-.8-.2,0,0,.3,0,.9,0,.7,0,1.5,0,2.4,0,2.2.1,5.3.3,8.9.5,7.6.4,18,.9,29.5,1.2,11.5.3,22,.4,29.6.5,3.7,0,6.7,0,9,0,1,0,1.8,0,2.4,0,.6,0,.9,0,.9,0"/>
    <path class="st29" d="M680.2,399.6c0,0,0,1,0,2.9,0,2-.2,4.7-.3,8-.3,6.7-.7,16-1.2,26.3-.3,5.1-.5,10-.8,14.5-.4,4.5-1.3,8.5-2.9,11.5-1.6,3-3.8,4.9-5.4,5.8-.8.5-1.5.7-2,.9-.5.1-.7.2-.7.2,0,0,1-.3,2.5-1.3,1.5-1,3.5-2.9,5-5.8,1.5-2.9,2.4-6.9,2.7-11.3.3-4.4.5-9.3.7-14.4.5-10.3,1-19.5,1.4-26.3.2-3.2.4-5.9.5-8,.1-1.9.3-2.9.3-2.9"/>
    <path class="st29" d="M636.9,418.7c0,0,0,.7,0,2,0,1.3-.3,3.1-.9,5.4-1.1,4.4-3.9,10.4-9,15.3-5.1,4.9-11.1,7.3-15.5,8.1-2.2.4-4,.6-5.3.6-1.3,0-1.9,0-1.9-.1,0-.2,2.8,0,7.1-1.1,4.3-1,10.1-3.5,15.1-8.2,4.9-4.7,7.7-10.5,9-14.8,1.3-4.3,1.4-7.2,1.5-7.2"/>
    <path class="st29" d="M717.3,451.1c0,0-.5,0-1.3-.3-.8-.3-2-.8-3.4-1.5-1.4-.7-3-1.8-4.6-3.1-1.6-1.4-3.2-3-4.7-5-1.5-2-2.6-4-3.5-5.9-.8-2-1.5-3.8-1.8-5.4-.4-1.6-.5-2.9-.6-3.8,0-.9,0-1.4,0-1.4.2,0,.3,2,1.1,5,.4,1.5,1.1,3.3,1.9,5.2.9,1.9,2,3.8,3.5,5.8,1.4,1.9,3,3.5,4.5,4.9,1.6,1.3,3.1,2.4,4.4,3.2,2.7,1.6,4.5,2.3,4.4,2.4"/>
    <path class="st29" d="M649.8,424.4s0,.3,0,.8c0,.5-.2,1.3-.3,2.3-.3,2-.7,4.9-1.2,8.7-1,7.5-2.6,18.4-4.7,31.8-4.1,26.8-10.4,63.8-18.6,104.4-8.2,40.6-16.7,77.1-23.3,103.5-3.3,13.2-6,23.8-8,31.1-1,3.6-1.8,6.5-2.3,8.4-.3.9-.5,1.7-.6,2.2-.1.5-.2.7-.2.7,0,0,0-.3.2-.8.1-.5.3-1.3.5-2.2.5-2,1.2-4.8,2.1-8.5,1.9-7.3,4.5-18,7.7-31.2,6.4-26.4,14.8-62.9,23-103.5,8.2-40.6,14.6-77.5,18.9-104.3,2.2-13.4,3.8-24.3,5-31.8.6-3.7,1-6.6,1.3-8.6.2-1,.3-1.7.4-2.2,0-.5.2-.8.2-.8"/>
    <path class="st29" d="M680.6,725.5s0-.2,0-.7c0-.5,0-1.2.2-2.1.2-1.9.4-4.7.7-8.2.6-7.2,1.5-17.5,2.6-30.2,2.2-25.5,5.7-60.7,8.3-99.6,1.3-19.5,2.2-38.1,2.5-55,.4-16.9.3-32.1,0-44.9-.4-12.8-1-23.1-1.5-30.3-.2-3.5-.4-6.3-.6-8.2,0-.9,0-1.6-.1-2.1,0-.5,0-.7,0-.7,0,0,0,.2.1.7,0,.5.1,1.2.2,2.1.2,1.9.4,4.7.7,8.2.6,7.1,1.3,17.5,1.7,30.3.4,12.8.6,28,.2,45-.3,16.9-1.2,35.5-2.5,55-2.6,39-6.2,74.1-8.6,99.6-1.2,12.7-2.2,23-2.9,30.2-.4,3.5-.6,6.3-.8,8.2-.1.9-.2,1.6-.2,2.1,0,.5,0,.7-.1.7"/>
    <path class="st29" d="M703.6,721.5c0,.2-13.3,2-29.8,3.8-16.5,1.9-29.9,3.2-29.9,2.9,0-.2,13.3-2,29.8-3.8,16.5-1.9,29.9-3.2,29.9-2.9"/>
    <path class="st29" d="M653.6,186.7c-5,6-6.5,14.9-3.7,22.2,1.9,5,5.6,9.5,5.3,14.8-.4,6.6-7,11.7-6.6,18.3.4,7.4,9.7,12.1,9.7,19.5,0,7.5-4.5,10.4-13.1,12-5.5,1-8.6-6-11.4-11-2.8-5-3.6-10.9-4.2-16.6-.9-9.5-1.1-19.1-.4-28.6.5-7.7,1.6-15.6,5.5-22.2,4-6.8,10.9-11.7,18.5-13.2"/>
    <path class="st29" d="M690.4,200.4c-2.8,4.3-11.6,1.7-16.9-1.3-5.6,3.8-13.4,2.1-17.3-3.7-3,4-9.2,2.7-11.5-1.8-2.3-4.5-1-10.6,2.1-14.5,3.1-3.9,7.6-5.9,12.1-6.7,10.6-2,22.2,2.2,28.5,12,2.9,4.5,4.7,10.6,3,16"/>
    <path class="st29" d="M690.5,199.6c-.1,0-1.7-2.7-5-6.5-3.3-3.8-8.7-8.6-16-10.7-7.3-2.1-14.5-.8-18.8,1.5-4.5,2.3-6.2,5.1-6.4,4.9,0,0,0-.2.3-.5.2-.3.5-.8,1-1.3.9-1.1,2.5-2.5,4.8-3.7,4.4-2.5,11.8-4,19.4-1.8,3.7,1.1,7,2.9,9.8,4.9,2.7,2,4.9,4.2,6.5,6.2,1.6,2,2.8,3.7,3.5,5,.7,1.2,1.1,2,1,2"/>
    <path class="st29" d="M664.3,201.3c-.1,0-.5-1.5-1.5-3.8-1-2.3-2.9-5.3-6-7.5-3.1-2.1-6.7-2.5-9.1-2.2-2.4.3-3.8,1.2-3.9,1.1,0,0,.3-.3.9-.7.6-.4,1.6-.8,2.9-1,2.5-.5,6.3-.2,9.7,2,3.3,2.3,5.2,5.6,6.1,8,.9,2.4,1,4.1,1,4.1"/>
    <path class="st35" d="M637.3,275.2s-22.7,6.6-31.2,20.9c-8.5,14.3-34.8,115.2-34.8,115.2l30.1,3.5,25-67.1,6.2,21-3.9,20.6,77,3.7,5.3-90.4,82.3-40.9,9.3-9.8-23.9-25.8-9.1,8.7-82.6,30.9s3.1,24.9-19.2,28.5c-22.3,3.6-30.4-19-30.4-19"/>
  </g>
  <rect class="st27" x="681.3" y="309" width="18.3" height="4.9"/>
  <g class="st16">
    <path class="st29" d="M617.8,317.8c.2,0,3.7,11,7.7,24.7,4,13.7,7.1,24.9,6.9,25-.2,0-3.7-11-7.7-24.7-4-13.7-7.1-24.9-6.8-25"/>
    <path class="st29" d="M725.8,282.7c.2.2-5,3.3-9.3,9.3-4.4,5.9-5.9,11.8-6.2,11.6,0,0,.1-1.5,1-3.8.8-2.3,2.3-5.4,4.5-8.4,2.2-3,4.7-5.3,6.6-6.7,1.9-1.4,3.3-2.1,3.3-2"/>
    <path class="st5" d="M619.6,321.8l-.2.5c1,3.1,2.3,7.5,3.9,12.7-1.2-4.4-2.5-8.8-3.7-13.2"/>
    <path class="st31" d="M626.2,348.2l-3.4,9.3c1.7-2.7,3.1-5.5,3.4-8.6,0-.2,0-.4,0-.6"/>
    <path class="st5" d="M619.2,323.3c-1.7,8.3-2.5,16.8-2.5,25.2,0,2.1,0,4.3.7,6.4.6,2,1.9,4,3.8,4.9.5-.8,1-1.6,1.6-2.3l3.4-9.2c0-.1,0-.2,0-.4-.5-1.6-1-3.3-1.5-5-2.3-7.9-4.3-15-5.5-19.5"/>
    <path class="st32" d="M619.4,322.3v.3c-.2.2-.2.5-.3.7,1.2,4.6,3.2,11.6,5.5,19.5.5,1.7,1,3.4,1.5,5,0-2.5-.7-4.9-1.3-7.3-.5-1.8-1-3.6-1.5-5.5-1.6-5.2-2.9-9.7-3.9-12.7"/>
    <path class="st29" d="M639.5,270.3c4.1,2.9,5.4,8.5,5.2,13.6-.2,5.1-1.6,10-1.9,15.1-.2,5.1,1,10.7,5,13.7,6.5-2.3,13-4.5,19.6-6.8-3.9-2.2-4.7-7.7-3.8-12.1.8-4.5,2.9-8.7,3.1-13.2.6-11.9-7.8-22.1-11.7-26.9"/>
  </g>
  <polygon class="st35" points="719.8 745.8 712.2 790.1 749.7 790.1 753.9 748.2 719.8 745.8"/>
  <g class="st14">
    <path class="st29" d="M750.5,786.4c0,.1-2.1.3-5.5.3-3.4,0-8,0-13.2-.2-5-.2-9.4-.4-13.2-.6-3.4-.2-5.4-.3-5.4-.4s2.1-.3,5.5-.3c3.4,0,8,0,13.2.3,5,.2,9.4.4,13.2.6,3.4.2,5.4.3,5.4.4"/>
  </g>
  <polygon class="st27" points="712.2 789.6 712.2 789.9 712.3 789.9 712.4 789.4 712.3 789.4 712.2 789.6"/>
  <polygon class="st31" points="712.2 789.9 712.2 790.1 712.3 789.9 712.2 789.9"/>
  <polygon class="st5" points="712.8 786.1 712.9 786.1 713 785.5 712.9 785.5 712.8 786.1"/>
  <g class="st11">
    <path class="st5" d="M713,785.5v.6c-.1,0-.7,3.2-.7,3.2v.6c0,0-.1.1-.1.1h37.5l.3-3.5c-.8.1-2.6.2-5,.2-.5,0-1,0-1.6,0-3.2,0-7.2,0-11.6-.3-5-.2-9.4-.4-13.2-.6-3.3-.2-5.4-.3-5.4-.4h-.2Z"/>
    <path class="st31" d="M713.2,785.5c0,.1,2.1.3,5.4.4,3.7.2,8.2.4,13.2.6,4.4.2,8.4.3,11.6.3s1.1,0,1.6,0c2.5,0,4.3-.1,5-.2h0c0-.1-36.8-1-36.8-1Z"/>
    <path class="st29" d="M730.5,786.4c-.2,0,.7-7.6,2.1-16.9,1.4-9.3,2.7-16.8,2.9-16.8s-.7,7.6-2.1,16.9c-1.4,9.3-2.7,16.8-2.9,16.8"/>
    <path class="st29" d="M748.4,786.4c-.2,0,.9-3.2-.6-8-.8-2.4-2.3-5-4.7-7.1-2.4-2.1-5.9-3.4-9.6-3.5-3.7,0-7.2,1.2-9.8,3.2-2.6,2-4.2,4.6-5.2,6.8-2,4.7-1.4,8-1.7,7.9,0,0,0-.2-.1-.6,0-.4,0-.9,0-1.7,0-1.4.3-3.5,1.3-6,1-2.4,2.6-5.1,5.3-7.2,2.6-2.2,6.3-3.5,10.3-3.5,3.9,0,7.6,1.5,10.2,3.7,2.6,2.3,4.1,5.1,4.8,7.6.7,2.5.7,4.6.6,6.1,0,.7-.2,1.3-.3,1.6-.1.4-.2.5-.2.5"/>
    <path class="st35" d="M881,733.4l9.1,30.5s33.4.8,35.7,6.3l-57.3,20.2-16.1-47,28.7-10Z"/>
    <path class="st5" d="M872.8,767.2c-.5,0-1,.2-1.4.5-.9.8-1.1,2.2-.5,3.2.4.7,1.2,1.1,2,1.1s.8-.1,1.2-.3c1-.7,1.5-2.5.7-3.5-.4-.6-1.3-.9-2-.9"/>
    <path class="st27" d="M925.8,770.2l-55.9,19.7h0l55.9-19.7ZM923.1,768.1c1.4.6,2.4,1.3,2.7,2.1-.2-1.4-1.9-1.9-2.7-2.1"/>
  </g>
  <path class="st31" d="M868.5,790.4h0s0,0,0,0ZM869.9,789.9l-1.4.5,1.4-.5h0Z"/>
  <g class="st9">
    <path class="st5" d="M922.6,768l-55.5,17.6,1.4,4.8h0s1.4-.5,1.4-.5l55.9-19.7c-.3-.8-1.3-1.5-2.7-2.1-.3,0-.5,0-.5,0"/>
    <path class="st29" d="M891,763.3c0,.3-1.3.9-2.3,2.3-1.1,1.4-1.4,2.9-1.7,2.8-.3,0-.4-1.8.9-3.5,1.3-1.7,3.1-1.9,3.1-1.7"/>
    <path class="st29" d="M897.9,763.7c.2.3-.9,1.2-1.4,2.7-.6,1.5-.4,2.9-.7,3-.3.1-1-1.5-.3-3.4.7-1.9,2.3-2.6,2.4-2.3"/>
    <path class="st29" d="M903.8,769.9c-.2.1-1.1-1.1-.9-3,.2-1.8,1.3-2.9,1.5-2.7.2.2-.3,1.3-.5,2.8-.2,1.5.2,2.7-.1,2.9"/>
    <path class="st29" d="M888.2,756.6c0,.3-1.4.4-3,1-1.6.6-2.6,1.6-2.8,1.4-.2-.2.6-1.6,2.4-2.4,1.8-.8,3.4-.3,3.4,0"/>
  </g>
  <polygon class="st31" points="854.5 749.7 856.2 754.5 854.6 749.7 854.5 749.7"/>
  <polygon class="st5" points="882.8 739.4 854.6 749.7 856.2 754.5 884.5 744.9 882.8 739.4"/>
  <g class="st12">
    <path class="st29" d="M886.2,750.4c0,.1-1,.7-2.9,1-.9.2-2.1.2-3.3.1-.6,0-1.3-.2-1.9-.3-.3,0-.7-.1-1.1-.4-.4-.2-.8-.9-.6-1.5.1-.6.6-.9,1-1.1.4-.2.8-.2,1.1-.2.7,0,1.4,0,2,0,1.3.1,2.4.5,3.2.8,1.8.8,2.6,1.7,2.5,1.8,0,.1-1-.5-2.7-1.1-.8-.3-1.9-.5-3.1-.6-.6,0-1.2,0-1.8,0-.7,0-1.2.2-1.2.6,0,.1,0,.2.2.3.2.1.5.2.8.3.6.2,1.2.3,1.8.4,1.2.2,2.2.2,3.1.1,1.8-.1,2.9-.4,3-.3"/>
    <path class="st29" d="M886,751c0,0-1-.8-1.7-2.6-.4-.9-.6-2-.7-3.4,0-.7,0-1.3.1-2,.1-.7.3-1.6,1.3-2.1.6-.2,1.2,0,1.5.4.3.3.5.7.7,1,.3.6.5,1.3.7,2,.2,1.3,0,2.5-.2,3.5-.6,1.9-1.7,2.7-1.7,2.6-.1-.1.6-1,1-2.8.2-.9.2-1.9,0-3.1-.1-.6-.3-1.1-.6-1.7-.3-.6-.7-1-.9-.9-.3,0-.6.7-.7,1.3-.1.6-.2,1.2-.2,1.8,0,1.2.2,2.3.4,3.1.5,1.7,1.2,2.7,1,2.8"/>
    <path class="st34" d="M713,347.3l-10.8,22.7c-4.9,10.3-3.1,22.5,4.4,31,5.9,6.5,14.5,9.8,23.1,8.8l41.9-4.9v-25.5s-41.3,1.2-41.3,1.2l10.3-18.6-27.6-14.7Z"/>
    <path class="st29" d="M766.1,266.6c-6.9-12-8.9-27.9-10.7-41.6-.8-6.5-2.3-15.7,2.2-19.8,4.8-4.3,5.2-11,10.7-14.4,5.5-3.4,12.9-3.6,18.1.2"/>
    <path class="st34" d="M785.3,308.9h0c10.6.9,19.8-7.5,20.2-18.3.4-10.4.8-21,.8-21,0,0,15.5-1.4,16.7-17.1,1.2-15.7.8-51.8.8-51.8-17.3-8.9-37.9-7.7-54,3.4l.8,55.1v29.6c0,9.9,5,19.3,14.7,20.1"/>
    <path class="st29" d="M807.8,233.3c-2.6-3.4-6.9-4.7-10.5-2.4-3.5,2.3-4.9,7.5-3,11.4,1.3,2.7,4.4,5.2,7.5,5.8,2.9.6,4.9,3.5,4.6,6.5-.5,3.9-6.9,5.4-9.8,8.6-4.5,5-14.4,7.2-21,7.9-6.5.8-5.7.8-9.5-4.7-2.8-4-3.6-7.8-3.7-12.7-.2-11.5-.4-23.1-.6-34.6,0-4.2-.1-8.4.8-12.4.9-4,3-8,6.4-10.3,3.7-2.5,8.5-2.7,12.7-4.1,5.3-1.7,9.8-5.3,14.8-7.9,5-2.6,11.1-4.1,16-1.5,3.6,1.8,6,5.5,9.4,7.5,4.9,2.9,11.7,2.3,14.1,9.7.8,2.6.8,5.4-.1,8-3.4,10.1-15.7,14.2-24.5,9.8-.2,1.7,1.5,5.5-.3,11-.6,1.7-.8,4.4-3.4,4.4"/>
    <path class="st36" d="M805,243.1c0,0,0,.3-.2.7-.3.4-.9.8-1.7.9-1.7.2-3.9-1.7-4-4.3,0-1.3.4-2.5,1.1-3.3.7-.8,1.6-1.2,2.4-1.4,1.6-.3,2.5.3,2.4.4,0,.2-.9,0-2.2.4-1.2.4-2.8,1.8-2.7,3.9,0,2,1.6,3.5,2.9,3.6,1.3,0,1.8-.9,1.9-.8"/>
    <path class="st29" d="M767.3,207.2c8.3-3.7,12.8-14.5,9.7-23.2-3.1-8.7-13.4-13.9-22.1-11.2-8.7,2.7-14.3,13-12.1,21.9.3,1.1.6,2.3,0,3.2-.6,1.2-2.2,1.3-3.4,1.8-4.3,1.7-4.9,8.4-1.8,11.9,3.2,3.5,8.5,3.9,12.9,2.7-1.1,4,2.4,8.3,6.5,8.8,4.1.5,8-2.1,10.3-5.6,2.3-3.5,3.1-7.7,3.5-11.9"/>
    <path class="st27" d="M777.7,188.2c0,0,.1.6,0,1.6,0,1-.2,2.5-.6,4.3-.8,3.6-2.9,8.5-6.8,12.5-3.9,4-8.7,6.2-12.2,7-1.8.4-3.2.6-4.2.6-1,0-1.6,0-1.6,0,0-.2,2.2-.2,5.6-1.2,3.4-1,8-3.1,11.8-7,3.8-3.9,5.9-8.6,6.8-12,1-3.5,1-5.8,1.1-5.8"/>
    <path class="st29" d="M760.7,173.7s.1,0,.5-.2c.3,0,.8-.2,1.4-.1,1.2,0,3.1.5,4.8,1.9.9.7,1.7,1.6,2.4,2.8.7,1.2,1.2,2.5,1.5,4,.6,2.9.3,6.3-.4,9.6-1.4,6.7-4.5,12.1-7.2,15.6-1.3,1.7-2.6,3-3.5,3.9-.9.8-1.4,1.2-1.5,1.2-.1-.1,1.9-1.9,4.4-5.5,2.5-3.5,5.4-8.9,6.8-15.4.7-3.2,1-6.4.4-9.2-.3-1.4-.7-2.7-1.3-3.7-.6-1.1-1.4-2-2.2-2.6-1.6-1.4-3.3-1.9-4.5-2-1.2-.1-1.8,0-1.8,0"/>
    <path class="st29" d="M742.1,198.6s.1-.5.5-1.2c.4-.7,1.1-1.7,2.1-2.8,2-2.1,5.5-4.6,10-5.3,4.5-.7,8.6.4,11.1,1.8,1.3.7,2.3,1.4,2.9,1.9.6.5.9.9.9.9,0,.1-1.4-1.1-4-2.3-2.5-1.2-6.5-2.2-10.7-1.5-4.3.7-7.7,2.9-9.7,4.9-2.1,2-3,3.6-3.1,3.5"/>
    <path class="st29" d="M772.2,204.7c0-.1,2,1.5,5.4,3.8,3.3,2.3,8.1,5.2,13.7,7.7,2.8,1.2,5.5,2.3,8.1,3.1,2.5.8,4.8,1.5,6.8,1.5,2,0,3.5-.5,4.4-1.1.9-.6,1.3-1.1,1.4-1.1,0,0-.2.6-1.2,1.4-.9.7-2.5,1.5-4.6,1.5-2.1,0-4.5-.6-7-1.3-2.6-.8-5.4-1.8-8.2-3-5.7-2.5-10.5-5.5-13.7-8-1.6-1.2-2.9-2.3-3.8-3-.8-.8-1.3-1.2-1.3-1.3"/>
    <path class="st29" d="M767.6,185c0,0-.2-.8-.2-2.2,0-1.4.2-3.5,1.1-5.9.9-2.4,2.7-5.1,5.8-6.6,1.5-.7,3.3-1.2,5.2-.9,1.9.2,3.7,1.2,5,2.6,1.4,1.4,2.4,3.1,2.9,4.9.5,1.8.6,3.6.4,5.3-.4,3.4-1.7,6.2-2.9,8.3-1.3,2.2-2.5,3.8-3.3,4.9-.9,1.1-1.4,1.7-1.4,1.6,0,0,.4-.7,1.1-1.8.8-1.2,1.9-2.8,3.1-5,1.2-2.2,2.4-4.9,2.7-8.1.2-1.6,0-3.3-.4-5-.5-1.7-1.4-3.3-2.6-4.5-1.3-1.3-2.9-2.1-4.5-2.3-1.7-.2-3.3.2-4.7.8-2.9,1.3-4.6,3.8-5.5,6.1-.9,2.3-1.2,4.3-1.3,5.7-.1,1.4-.1,2.2-.2,2.2"/>
    <path class="st34" d="M942.4,148.8c-2.5-1.3-9.7,12.4-9.8,8.5-.1-3.8,10.7-15.7,8-16.9-3.5-1.6-10.7,12.8-11.4,14-.7,1.1-2.4.2-1.7-.8,1-1.5,11-17.2,7.6-18.8-1.9-.9-3.1,2.7-3.1,2.7,0,0-8.3,15.5-9.9,14.6-1.6-.8,3-10.1,4.8-13.1,1.7-3,1.1-5-.9-4.7-1.3.2-6.9,9.3-8.6,12.3-1.7,3-6.1,11.4-7.2,5.4-1.1-5.9-4.1-10.1-5.7-10.6-1.6-.5-2.9,1.5-1.8,3,.9,1.2,1.7,3.8,2.2,5.7.4,1.6.6,3.2.5,4.9-.1,1.9-.3,3.5-.5,4.9l-3.3,7s-23.7,55.3-27.8,63.3c-4.1,8-37,42.9-37,42.9l7,40.8,53.4-59.1,28.2-81.2.7-2s10.1-11,12.7-14.5c5.2-7.2,4.6-7.7,3.7-8.2"/>
    <path class="st1" d="M744.9,422.7s-16.8,38.9-20.5,77.4l-17.8,247.3,59.4,6.3,17.5-256.3s54.5,258.6,56.6,258.6,47.8-17.4,47.8-17.4l-53.8-314.8-89.3-1.3Z"/>
    <path class="st29" d="M808.7,503.8c0,.3-12.1-2.4-26.9-6.1-14.8-3.7-26.7-6.9-26.6-7.2,0-.3,12.1,2.4,26.9,6.1,14.8,3.7,26.7,6.9,26.6,7.2"/>
    <path class="st27" d="M769.5,700.3s-.2,0-.6.1c-.4,0-1,.1-1.8.2-1.6,0-3.9,0-6.6-.4-2.8-.4-6-1.2-9.6-2.4-3.5-1.1-7.4-2.6-11.4-3.9-4-1.3-8-2.3-11.6-2.8-3.6-.5-7-.5-9.7,0-5.5.8-8.4,3-8.5,2.8,0,0,.2-.2.5-.4.4-.2.8-.6,1.6-.9,1.4-.8,3.6-1.6,6.3-2.1,2.8-.5,6.2-.6,9.9-.1,3.7.5,7.7,1.5,11.8,2.8,4,1.4,7.9,2.8,11.4,4,3.5,1.2,6.7,2,9.4,2.5,5.5,1,9,.6,9,.8"/>
    <path class="st27" d="M769.8,679.4c0,0-.9,0-2.4,0-1.6,0-3.8,0-6.6.2-5.6.4-13.1,2.2-21.4,4-4.2.8-8.3,1.4-12,1.6-3.7.1-7.1-.1-9.9-.7-2.8-.6-4.9-1.4-6.3-2.1-.7-.3-1.2-.7-1.6-.9-.4-.2-.5-.3-.5-.4,0-.2,3.1,1.7,8.6,2.7,5.5,1,13.2.6,21.6-1.1,8.3-1.8,15.9-3.5,21.6-3.8,2.8-.2,5.1,0,6.6,0,1.6.2,2.4.4,2.4.4"/>
    <path class="st27" d="M875.7,655.3s0,.2-.3.6c-.2.4-.6.8-1.2,1.4-1.1,1.1-3,2.5-5.7,3.4-2.7.9-6.1,1.4-9.8,1.1-3.7-.3-7.7-1.2-11.8-1.9-4.2-.7-8.2-.8-11.8-.3-3.6.5-6.8,1.5-9.3,2.5-5.1,2.1-7.8,4.4-7.9,4.3,0,0,.1-.2.5-.4s.8-.7,1.4-1.1c1.3-.9,3.2-2.2,5.8-3.3,2.6-1.2,5.8-2.2,9.5-2.7,3.7-.6,7.8-.5,12,.3,4.2.7,8.1,1.6,11.8,2,3.6.3,6.9,0,9.5-.8,2.6-.8,4.5-2.1,5.7-3.1,1.2-1,1.7-1.8,1.7-1.7"/>
    <path class="st27" d="M884.7,700.9s-.5.7-1.6,1.9c-1.1,1.2-2.7,2.8-4.9,4.5-4.4,3.5-11.4,7.4-19.9,8.9-8.5,1.5-16.4.4-21.7-1.2-2.7-.8-4.8-1.7-6.2-2.4-1.4-.7-2.2-1.1-2.1-1.2,0,0,.8.3,2.3.9,1.4.6,3.6,1.4,6.2,2.1,5.3,1.5,13.1,2.4,21.4.9,8.3-1.5,15.3-5.2,19.7-8.5,4.5-3.3,6.7-6,6.9-5.9"/>
    <path class="st27" d="M869.9,636.3c0,0-.8,0-2.4,0-1.5,0-3.7.4-6.2,1.5-2.5,1.1-5.2,2.8-8,5.1-2.8,2.3-5.7,5.1-9.1,7.5-3.4,2.5-7.3,4.1-10.9,4.6-3.6.5-6.9.3-9.6,0-2.7-.4-4.9-.8-6.4-1.1-1.5-.3-2.3-.6-2.3-.6,0,0,.9,0,2.4.3,1.5.2,3.7.6,6.4.8,2.7.2,5.9.4,9.4-.1,3.5-.5,7.2-2,10.5-4.5,3.4-2.4,6.3-5.2,9.1-7.5,2.8-2.3,5.7-4,8.3-5,2.6-1,4.9-1.3,6.4-1.2.8,0,1.4.1,1.8.2.4,0,.6.1.6.2"/>
    <path class="st27" d="M774.8,626.5s-.2.2-.5.4c-.4.2-.9.6-1.7.9-1.5.7-3.7,1.4-6.6,1.7-2.9.4-6.4.2-10.1-.5-3.8-.7-7.8-1.8-12-3.1-4.2-1.3-8.2-2.5-11.9-3.2-3.7-.7-7.1-1-9.9-.7-5.7.4-8.8,2.5-8.9,2.3,0,0,.2-.2.5-.4.4-.2.9-.6,1.7-.8,1.5-.7,3.7-1.4,6.6-1.7,2.9-.3,6.4-.1,10.1.5,3.8.7,7.8,1.8,12,3.1,4.2,1.3,8.2,2.5,11.9,3.2,3.7.7,7.1.9,9.9.7,5.7-.5,8.8-2.6,8.9-2.3"/>
    <path class="st27" d="M862,584.1s0,.2-.2.6c-.1.4-.4,1-.7,1.8-.7,1.5-2.1,3.5-4.2,5.5-2.2,2-5.1,4-8.7,5.4-3.6,1.4-7.8,2.3-12.1,2.9-4.4.6-8.6,1-12.3,1.6-3.8.6-7.2,1-9.9,1.8-2.7.8-4.7,2.1-5.9,3.2-1.2,1-1.8,1.7-1.9,1.6,0,0,.1-.2.4-.5.3-.3.7-.8,1.3-1.4,1.2-1.1,3.2-2.6,6-3.5,2.8-1,6.2-1.4,10-2,3.8-.6,8-1,12.3-1.6,4.3-.6,8.4-1.4,12-2.8,3.5-1.4,6.5-3.2,8.6-5.1,4.4-3.8,5.3-7.6,5.5-7.5"/>
    <path class="st27" d="M716.8,579.2c.1-.2,2.9,2.4,8.4,4,2.8.8,6.2,1.3,10,.9,3.8-.4,7.7-1.9,11.6-4.1,3.9-2.1,7.5-4.5,11-6.1,3.6-1.6,7-2.5,10-2.6,3-.1,5.3.5,6.8,1.2.7.4,1.3.7,1.6,1,.4.3.5.4.5.4,0,0-.8-.5-2.3-1.1-1.5-.6-3.8-1.1-6.7-.9-2.9.2-6.2,1-9.7,2.7-3.5,1.6-7,4-11,6.1-3.9,2.2-8,3.8-12,4.1-3.9.4-7.4-.2-10.3-1.1-2.8-.9-4.9-2.1-6.3-3-.7-.5-1.2-.9-1.5-1.2-.3-.3-.5-.4-.5-.5"/>
    <path class="st27" d="M852.4,533.9s-.4.8-1.3,2.2c-1,1.3-2.4,3.2-4.5,5.2-4.2,4-11.3,8.5-20.1,9.9-4.4.8-8.6.4-12.4,0-3.8-.3-7.1-.4-9.9,0-2.8.5-4.9,1.4-6.3,2.3-1.3.9-2,1.5-2,1.5,0,0,.1-.2.4-.5.3-.3.8-.7,1.4-1.2,1.3-1,3.5-2.1,6.3-2.6,2.9-.6,6.3-.6,10.1-.3,3.8.3,7.9.6,12.2-.1,8.6-1.3,15.5-5.7,19.8-9.5,4.3-3.9,6.1-7,6.3-6.9"/>
    <path class="st27" d="M777.3,529.6c0,.2-3.1-1.4-8.5-1.6-2.7,0-5.9.3-9.2,1.5-1.7.6-3.3,1.6-5.1,2.3-.9.4-1.9.7-3,.8-1.1.1-2.2,0-3.2-.4-2.1-.8-3.7-2.1-5.3-3.1-1.6-1-3.3-1.8-5-2.4-3.4-1.1-6.6-1.4-9.3-1.3-5.4.4-8.4,2.1-8.5,1.9,0,0,.2-.1.5-.3.4-.2.9-.5,1.6-.7,1.4-.6,3.6-1.2,6.3-1.5,2.7-.2,6.1,0,9.6,1.1,1.7.6,3.5,1.4,5.2,2.4,1.7,1.1,3.3,2.3,5.2,3,1.9.7,3.8.4,5.6-.3,1.8-.7,3.4-1.7,5.2-2.3,3.5-1.2,6.8-1.5,9.5-1.4,2.8.2,4.9.7,6.4,1.3.7.3,1.3.5,1.6.7.4.2.5.3.5.3"/>
    <path class="st27" d="M852.4,523.4s-.6.7-1.8,1.9c-1.2,1.2-3,2.8-5.4,4.6-1.2.9-2.5,1.9-4,2.8-.8.5-1.5,1-2.3,1.4-.8.4-1.7.9-2.6,1.4-3.5,1.8-7.6,3.4-12.1,4.5-4.5,1.1-8.8,1.5-12.8,1.5-1,0-1.9,0-2.9,0-.9,0-1.8-.2-2.7-.2-1.8-.1-3.4-.5-4.8-.7-2.9-.6-5.3-1.2-6.8-1.8-1.6-.5-2.4-.9-2.4-.9,0-.2,3.5,1.1,9.4,2.1,1.5.2,3.1.5,4.8.6.9,0,1.8.2,2.7.2.9,0,1.9,0,2.9,0,3.9,0,8.2-.5,12.6-1.5,4.4-1.1,8.4-2.7,11.9-4.4.9-.4,1.7-.9,2.5-1.3.8-.4,1.6-.9,2.3-1.4,1.5-.9,2.8-1.8,4.1-2.7,2.4-1.8,4.3-3.2,5.6-4.4,1.3-1.1,2-1.7,2-1.6"/>
    <path class="st27" d="M842.2,474.2s-.4.3-1.1.7c-.8.4-1.9,1-3.2,1.8-2.8,1.5-6.9,3.7-12.2,6-5.3,2.2-11.7,4.6-19.3,5.5-3.8.4-7.8.4-11.9-.2-4.1-.7-8.2-1.9-12.3-3.4-8.2-3-15.7-6.7-23-8.6-7.2-2-14.1-2.2-19.7-1.6-5.6.6-10.1,1.9-13.1,3-1.5.5-2.6,1-3.4,1.3-.8.3-1.2.5-1.2.5,0,0,.4-.2,1.1-.6.7-.4,1.9-.9,3.4-1.5,3-1.2,7.4-2.6,13.1-3.3,5.7-.7,12.6-.5,20,1.4,7.4,1.9,14.9,5.5,23.1,8.5,4.1,1.5,8.1,2.7,12.1,3.4,4,.6,8,.7,11.7.3,7.5-.8,13.9-3.1,19.2-5.3,5.3-2.2,9.4-4.3,12.3-5.7,1.4-.7,2.5-1.2,3.3-1.6.8-.4,1.2-.5,1.2-.5"/>
    <path class="st27" d="M838.7,448.5c0,0-.9-1.4-3.2-3-2.3-1.6-6.3-3.1-11.3-3-2.5,0-5.2.4-8,1.4-2.8,1-5.7,2.3-8.7,3.7-6,2.8-12.8,6.1-20.4,7.9-7.5,1.9-15,2.5-21.7,2.2-6.7-.2-12.7-1.4-17.6-2.7-4.9-1.4-8.7-3-11.3-4.2-1.3-.6-2.3-1.1-2.9-1.5-.7-.4-1-.6-1-.6,0,0,.4.1,1.1.4.8.3,1.8.8,3,1.3,2.6,1.1,6.4,2.6,11.3,3.9,4.9,1.3,10.8,2.3,17.5,2.5,6.6.2,14-.4,21.4-2.2,7.5-1.7,14.1-4.9,20.2-7.8,3.1-1.4,6-2.7,8.8-3.7,2.8-1.1,5.7-1.4,8.2-1.4,5.1,0,9.2,1.7,11.5,3.4,1.1.9,1.9,1.7,2.4,2.3.4.6.6,1,.6,1"/>
    <path class="st35" d="M872.6,288.7l-23.7-31.8-1,.8-37.8,24.3-40.3,1.4s-28.3,0-38.9,22.8c-1.2,2.5-24.4,49.9-24.4,49.9l35.9,13.5,5.8-16.9,7.4,38.4-10.7,31.7,89.9,4.9-7.5-46,6.8-55,38.5-37.9Z"/>
    <path class="st29" d="M810,362.9c0,0,.1.9,0,2.6-.1,1.7-.6,4.2-1.7,7-2.1,5.7-7.5,12.9-15.7,17.2-8.3,4.3-16.8,4.9-22.7,4.7-3-.1-5.4-.4-7-.7-1.6-.3-2.5-.5-2.5-.6,0-.2,3.7.5,9.5.5,5.8,0,14.2-.7,22.2-4.9,8-4.2,13.3-11,15.5-16.5,2.4-5.5,2.2-9.4,2.5-9.4"/>
    <path class="st29" d="M755.9,392.8c-.3,0-4.6-19.9-9.6-44.5-5-24.7-8.9-44.7-8.6-44.8.3,0,4.6,19.9,9.6,44.5,5,24.7,8.9,44.7,8.6,44.8"/>
    <path class="st5" d="M784,392.9c-4.4,1.1-8.5,1.5-12,1.5s-1.5,0-2.2,0c-1,0-2-.1-2.9-.2,0,0,0,.1,0,.2,2.2.2,4.3.3,6.2.3,3.9,0,7.3-.5,10.8-1.7M802.4,369.2s0,0,0,0c-1,0-1.6,1-2.2,1.8-4.1,5.9-10.4,10.2-17.3,11.8-3.6.9-7.4,1-10.7,2.7-3,1.5-5.6,4.7-5.3,8,.9,0,1.9,0,3,0,.2,0,.4,0,.6,0,5.8,0,13.9-.9,21.6-4.9,3.5-1.8,6.5-4.1,8.9-6.7,1.7-2.1,2.9-4.5,3.5-7.6.3-1.7,0-2.5-.2-3.4-.2-.9-1-1.8-1.9-1.8"/>
    <path class="st32" d="M800.9,382c-2.4,2.5-5.4,4.8-8.9,6.7-7.8,4-15.8,4.9-21.6,4.9s-.4,0-.6,0c-1.1,0-2.1,0-3,0,0,.2,0,.5.1.7.9,0,1.8.1,2.9.2.7,0,1.5,0,2.2,0,3.5,0,7.6-.4,12-1.5,1.5-.5,3-1.2,4.6-2.1,4.6-2.5,9.2-5,12.3-8.8"/>
  </g>
</svg>