<?xml version="1.0" encoding="UTF-8"?>
<svg id="Ebene_1" xmlns="http://www.w3.org/2000/svg" xmlns:xlink="http://www.w3.org/1999/xlink" version="1.1" viewBox="0 0 1800 900">
  <!-- Generator: Adobe Illustrator 29.2.1, SVG Export Plug-In . SVG Version: 2.1.0 Build 116)  -->
  <defs>
    <style>
      .st0, .st1 {
        fill: none;
      }

      .st2 {
        fill: #b68575;
      }

      .st3 {
        fill: #851b1a;
      }

      .st1 {
        stroke: #8a1b1c;
        stroke-linecap: round;
        stroke-miterlimit: 10;
        stroke-width: 1.5px;
      }

      .st4 {
        fill: #8a1b1c;
      }

      .st5 {
        fill: #fae9cc;
      }

      .st6 {
        fill: #aa664e;
      }

      .st7 {
        fill: #b86a48;
      }

      .st8 {
        fill: #fff;
      }

      .st9 {
        fill: #fdbd9c;
      }

      .st10 {
        fill: #455963;
      }

      .st11 {
        fill: #f4f4ed;
      }

      .st12 {
        fill: #f73333;
      }

      .st13 {
        fill: #263338;
      }

      .st14 {
        fill: #1d2c2f;
      }

      .st15 {
        fill: #e9e9dc;
      }

      .st16 {
        fill: #e9976e;
      }

      .st17 {
        clip-path: url(#clippath);
      }
    </style>
    <clipPath id="clippath">
      <rect class="st0" y="0" width="1800" height="900"/>
    </clipPath>
  </defs>
  <rect class="st11" y="0" width="1800" height="900"/>
  <g class="st17">
    <rect class="st8" x="369.8" y="78.6" width="941.5" height="576.7"/>
    <g>
      <path class="st12" d="M481.9,518s.5,56,3.2,73.1l68.2-3.3s-6-55-3.7-69.8h-67.8Z"/>
      <path class="st8" d="M539.1,534.7c0,.3-10.2,1.2-22.9,2-12.6.8-22.9,1.2-22.9.9,0-.3,10.2-1.2,22.9-2,12.6-.8,22.9-1.2,22.9-.9"/>
      <path class="st8" d="M539.1,546.6c0,.3-10.2,1.2-22.9,2-12.6.8-22.9,1.2-22.9.9,0-.3,10.2-1.2,22.9-2,12.6-.8,22.9-1.2,22.9-.9"/>
    </g>
    <g>
      <path class="st13" d="M407.4,286.2s.5,56,3.2,73.1l68.2-3.3s-6-55-3.7-69.8h-67.8Z"/>
      <path class="st8" d="M464.8,309.7c0,.3-10.2,1.2-22.9,2-12.6.8-22.9,1.2-22.9.9,0-.3,10.2-1.2,22.9-2,12.6-.8,22.9-1.2,22.9-.9"/>
      <path class="st8" d="M464.9,321.6c0,.3-10.2,1.2-22.9,2-12.6.8-22.9,1.2-22.9.9,0-.3,10.2-1.2,22.9-2,12.6-.8,22.9-1.2,22.9-.9"/>
      <path class="st8" d="M453.3,333.2c0,.3-5.8.9-13,1.4-7.2.4-13.1.6-13.1.2,0-.3,5.8-.9,13-1.4,7.2-.4,13.1-.6,13.1-.2"/>
    </g>
    <g>
      <path class="st10" d="M395.9,426.4s.5,56,3.2,73.1l68.2-3.3s-6-55-3.7-69.8h-67.8Z"/>
      <path class="st8" d="M453.4,449.9c0,.3-10.2,1.2-22.9,2-12.6.8-22.9,1.2-22.9.9,0-.3,10.2-1.2,22.9-2,12.6-.8,22.9-1.2,22.9-.9"/>
      <path class="st8" d="M453.4,461.8c0,.3-10.2,1.2-22.9,2-12.6.8-22.9,1.2-22.9.9,0-.3,10.2-1.2,22.9-2,12.6-.8,22.9-1.2,22.9-.9"/>
      <path class="st8" d="M441.8,473.5c0,.3-5.8.9-13,1.4-7.2.4-13.1.6-13.1.2,0-.3,5.8-.9,13-1.4,7.2-.4,13.1-.6,13.1-.2"/>
    </g>
    <g>
      <path class="st13" d="M518.7,386.3s.5,56,3.2,73.1l68.2-3.3s-6-55-3.7-69.8h-67.8Z"/>
      <path class="st8" d="M576.1,409.8c0,.3-10.2,1.2-22.9,2-12.6.8-22.9,1.2-22.9.9,0-.3,10.2-1.2,22.9-2,12.6-.8,22.9-1.2,22.9-.9"/>
    </g>
    <g>
      <path class="st12" d="M562,430.9s.5,56,3.2,73.1l68.2-3.3s-6-55-3.7-69.8h-67.8Z"/>
      <path class="st8" d="M619.5,454.4c0,.3-10.2,1.2-22.9,2-12.6.8-22.9,1.2-22.9.9,0-.3,10.2-1.2,22.9-2,12.6-.8,22.9-1.2,22.9-.9"/>
    </g>
    <g>
      <path class="st10" d="M480.3,213.3s.5,56,3.2,73.1l68.2-3.3s-6-55-3.7-69.8h-67.8Z"/>
      <path class="st8" d="M537.8,236.8c0,.3-10.2,1.2-22.9,2-12.6.8-22.9,1.2-22.9.9,0-.3,10.2-1.2,22.9-2,12.6-.8,22.9-1.2,22.9-.9"/>
      <path class="st8" d="M537.8,248.7c0,.3-10.2,1.2-22.9,2-12.6.8-22.9,1.2-22.9.9,0-.3,10.2-1.2,22.9-2,12.6-.8,22.9-1.2,22.9-.9"/>
    </g>
    <g>
      <path class="st13" d="M692.6,398.1s.5,56,3.2,73.1l68.2-3.3s-6-55-3.7-69.8h-67.8Z"/>
      <path class="st8" d="M750.1,421.6c0,.3-10.2,1.2-22.9,2-12.6.8-22.9,1.2-22.9.9,0-.3,10.2-1.2,22.9-2,12.6-.8,22.9-1.2,22.9-.9"/>
      <path class="st8" d="M750.1,433.4c0,.3-10.2,1.2-22.9,2-12.6.8-22.9,1.2-22.9.9,0-.3,10.2-1.2,22.9-2,12.6-.8,22.9-1.2,22.9-.9"/>
      <path class="st8" d="M738.5,445.1c0,.3-5.8.9-13,1.4-7.2.4-13.1.6-13.1.2,0-.3,5.8-.9,13-1.4,7.2-.4,13.1-.6,13.1-.2"/>
    </g>
    <g>
      <path class="st10" d="M924.9,530.7s.5,56,3.2,73.1l68.2-3.3s-6-55-3.7-69.8h-67.8Z"/>
      <path class="st8" d="M982.4,554.2c0,.3-10.2,1.2-22.9,2-12.6.8-22.9,1.2-22.9.9,0-.3,10.2-1.2,22.9-2,12.6-.8,22.9-1.2,22.9-.9"/>
      <path class="st8" d="M982.4,566.1c0,.3-10.2,1.2-22.9,2-12.6.8-22.9,1.2-22.9.9,0-.3,10.2-1.2,22.9-2,12.6-.8,22.9-1.2,22.9-.9"/>
      <path class="st8" d="M970.8,577.7c0,.3-5.8.9-13,1.4-7.2.4-13.1.6-13.1.2,0-.3,5.8-.9,13-1.4,7.2-.4,13.1-.6,13.1-.2"/>
    </g>
    <g>
      <path class="st13" d="M1065.3,430.3s.5,56,3.2,73.1l68.2-3.3s-6-55-3.7-69.8h-67.8Z"/>
      <path class="st8" d="M1122.8,453.8c0,.3-10.2,1.2-22.9,2-12.6.8-22.9,1.2-22.9.9,0-.3,10.2-1.2,22.9-2,12.6-.8,22.9-1.2,22.9-.9"/>
      <path class="st8" d="M1122.8,465.7c0,.3-10.2,1.2-22.9,2-12.6.8-22.9,1.2-22.9.9,0-.3,10.2-1.2,22.9-2,12.6-.8,22.9-1.2,22.9-.9"/>
    </g>
    <g>
      <path class="st10" d="M1183.7,536.7s.5,56,3.2,73.1l68.2-3.3s-6-55-3.7-69.8h-67.8Z"/>
      <path class="st8" d="M1241.2,560.2c0,.3-10.2,1.2-22.9,2-12.6.8-22.9,1.2-22.9.9,0-.3,10.2-1.2,22.9-2,12.6-.8,22.9-1.2,22.9-.9"/>
      <path class="st8" d="M1241.2,572.1c0,.3-10.2,1.2-22.9,2-12.6.8-22.9,1.2-22.9.9,0-.3,10.2-1.2,22.9-2,12.6-.8,22.9-1.2,22.9-.9"/>
    </g>
    <g>
      <path class="st12" d="M1070.5,273.8s.5,56,3.2,73.1l68.2-3.3s-6-55-3.7-69.8h-67.8Z"/>
      <path class="st8" d="M1128,297.3c0,.3-10.2,1.2-22.9,2-12.6.8-22.9,1.2-22.9.9,0-.3,10.2-1.2,22.9-2,12.6-.8,22.9-1.2,22.9-.9"/>
      <path class="st8" d="M1128,309.2c0,.3-10.2,1.2-22.9,2-12.6.8-22.9,1.2-22.9.9,0-.3,10.2-1.2,22.9-2,12.6-.8,22.9-1.2,22.9-.9"/>
    </g>
    <g>
      <path class="st10" d="M1018.9,399.4s.5,56,3.2,73.1l68.2-3.3s-6-55-3.7-69.8h-67.8Z"/>
      <path class="st8" d="M1076.4,434.7c0,.3-10.2,1.2-22.9,2-12.6.8-22.9,1.2-22.9.9,0-.3,10.2-1.2,22.9-2,12.6-.8,22.9-1.2,22.9-.9"/>
      <path class="st8" d="M1064.8,446.4c0,.3-5.8.9-13,1.4-7.2.4-13.1.6-13.1.2,0-.3,5.8-.9,13-1.4,7.2-.4,13.1-.6,13.1-.2"/>
    </g>
    <g>
      <path class="st13" d="M637.6,255.1s.5,56,3.2,73.1l68.2-3.3s-6-55-3.7-69.8h-67.8Z"/>
      <path class="st8" d="M695,278.6c0,.3-10.2,1.2-22.9,2-12.6.8-22.9,1.2-22.9.9,0-.3,10.2-1.2,22.9-2,12.6-.8,22.9-1.2,22.9-.9"/>
      <path class="st8" d="M695.1,290.5c0,.3-10.2,1.2-22.9,2-12.6.8-22.9,1.2-22.9.9,0-.3,10.2-1.2,22.9-2,12.6-.8,22.9-1.2,22.9-.9"/>
      <path class="st8" d="M683.5,302.2c0,.3-5.8.9-13,1.4-7.2.4-13.1.6-13.1.2,0-.3,5.8-.9,13-1.4,7.2-.4,13.1-.6,13.1-.2"/>
    </g>
    <g>
      <path class="st12" d="M585.3,534s.5,56,3.2,73.1l68.2-3.3s-6-55-3.7-69.8h-67.8Z"/>
      <path class="st8" d="M642.8,557.5c0,.3-10.2,1.2-22.9,2-12.6.8-22.9,1.2-22.9.9,0-.3,10.2-1.2,22.9-2,12.6-.8,22.9-1.2,22.9-.9"/>
      <path class="st8" d="M642.8,569.4c0,.3-10.2,1.2-22.9,2-12.6.8-22.9,1.2-22.9.9,0-.3,10.2-1.2,22.9-2,12.6-.8,22.9-1.2,22.9-.9"/>
      <path class="st8" d="M631.2,581c0,.3-5.8.9-13,1.4-7.2.4-13.1.6-13.1.2,0-.3,5.8-.9,13-1.4,7.2-.4,13.1-.6,13.1-.2"/>
    </g>
    <g>
      <path class="st12" d="M721.9,512.3s.5,56,3.2,73.1l68.2-3.3s-6-55-3.7-69.8h-67.8Z"/>
      <path class="st8" d="M779.3,535.8c0,.3-10.2,1.2-22.9,2-12.6.8-22.9,1.2-22.9.9,0-.3,10.2-1.2,22.9-2,12.6-.8,22.9-1.2,22.9-.9"/>
      <path class="st8" d="M779.4,547.7c0,.3-10.2,1.2-22.9,2-12.6.8-22.9,1.2-22.9.9,0-.3,10.2-1.2,22.9-2,12.6-.8,22.9-1.2,22.9-.9"/>
      <path class="st8" d="M767.8,559.3c0,.3-5.8.9-13,1.4s-13.1.6-13.1.2c0-.3,5.8-.9,13-1.4,7.2-.4,13.1-.6,13.1-.2"/>
    </g>
    <g>
      <path class="st12" d="M841.3,299.2s.5,56,3.2,73.1l68.2-3.3s-6-55-3.7-69.8h-67.8Z"/>
      <path class="st8" d="M898.7,322.7c0,.3-10.2,1.2-22.9,2-12.6.8-22.9,1.2-22.9.9,0-.3,10.2-1.2,22.9-2,12.6-.8,22.9-1.2,22.9-.9"/>
      <path class="st8" d="M898.8,334.6c0,.3-10.2,1.2-22.9,2-12.6.8-22.9,1.2-22.9.9,0-.3,10.2-1.2,22.9-2,12.6-.8,22.9-1.2,22.9-.9"/>
      <path class="st8" d="M887.2,346.2c0,.3-5.8.9-13,1.4-7.2.4-13.1.6-13.1.2,0-.3,5.8-.9,13-1.4,7.2-.4,13.1-.6,13.1-.2"/>
    </g>
    <g>
      <path class="st12" d="M901.2,387.3s.5,56,3.2,73.1l68.2-3.3s-6-55-3.7-69.8h-67.8Z"/>
      <path class="st8" d="M958.7,410.8c0,.3-10.2,1.2-22.9,2-12.6.8-22.9,1.2-22.9.9,0-.3,10.2-1.2,22.9-2,12.6-.8,22.9-1.2,22.9-.9"/>
    </g>
    <path class="st12" d="M1011.6,153.1s.5,56,3.2,73.1l68.2-3.3s-6-55-3.7-69.8h-67.8Z"/>
    <g>
      <path class="st12" d="M1199.4,277.6s.5,56,3.2,73.1l68.2-3.3s-6-55-3.7-69.8h-67.8Z"/>
      <path class="st8" d="M1256.8,301.1c0,.3-10.2,1.2-22.9,2-12.6.8-22.9,1.2-22.9.9,0-.3,10.2-1.2,22.9-2,12.6-.8,22.9-1.2,22.9-.9"/>
      <path class="st8" d="M1256.9,313c0,.3-10.2,1.2-22.9,2-12.6.8-22.9,1.2-22.9.9,0-.3,10.2-1.2,22.9-2,12.6-.8,22.9-1.2,22.9-.9"/>
      <path class="st8" d="M1245.3,324.6c0,.3-5.8.9-13,1.4s-13.1.6-13.1.2c0-.3,5.8-.9,13-1.4,7.2-.4,13.1-.6,13.1-.2"/>
    </g>
    <g>
      <path class="st10" d="M987.4,189.1s.5,56,3.2,73.1l68.2-3.3s-6-55-3.7-69.8h-67.8Z"/>
      <path class="st8" d="M1044.9,224.4c0,.3-10.2,1.2-22.9,2-12.6.8-22.9,1.2-22.9.9,0-.3,10.2-1.2,22.9-2s22.9-1.2,22.9-.9"/>
      <path class="st8" d="M1033.3,236.1c0,.3-5.8.9-13,1.4s-13.1.6-13.1.2c0-.3,5.8-.9,13-1.4,7.2-.4,13.1-.6,13.1-.2"/>
    </g>
    <g>
      <path class="st10" d="M891.6,246.7s.5,56,3.2,73.1l68.2-3.3s-6-55-3.7-69.8h-67.8Z"/>
      <path class="st8" d="M949.1,270.2c0,.3-10.2,1.2-22.9,2-12.6.8-22.9,1.2-22.9.9,0-.3,10.2-1.2,22.9-2,12.6-.8,22.9-1.2,22.9-.9"/>
    </g>
    <g>
      <path class="st12" d="M606.4,312s.5,56,3.2,73.1l68.2-3.3s-6-55-3.7-69.8h-67.8Z"/>
      <path class="st8" d="M663.9,335.5c0,.3-10.2,1.2-22.9,2-12.6.8-22.9,1.2-22.9.9,0-.3,10.2-1.2,22.9-2,12.6-.8,22.9-1.2,22.9-.9"/>
      <path class="st8" d="M663.9,347.4c0,.3-10.2,1.2-22.9,2-12.6.8-22.9,1.2-22.9.9,0-.3,10.2-1.2,22.9-2,12.6-.8,22.9-1.2,22.9-.9"/>
      <path class="st8" d="M652.3,359c0,.3-5.8.9-13,1.4s-13.1.6-13.1.2c0-.3,5.8-.9,13-1.4,7.2-.4,13.1-.6,13.1-.2"/>
    </g>
    <g>
      <path class="st13" d="M587.7,180.7s0-.5,0-1.5c0-1,0-2.4-.1-4.3,0-3.8-.2-9.3-.3-16.3-.2-14.1-.6-34.5-1-59.6l.4.4c-42.1,1.1-98.7,2.5-160.7,4h0s.5-.6.5-.6c.4,28.8.7,56.4,1.1,81.7l-.5-.5c46.8-1,86.9-1.9,115.4-2.5,14.2-.3,25.5-.5,33.3-.7,3.9,0,6.8-.1,8.9-.1,1,0,1.8,0,2.3,0,.5,0,.8,0,.8,0,0,0-.2,0-.7,0-.5,0-1.3,0-2.3,0-2,0-5,.2-8.8.3-7.8.2-19,.5-33.2.9-28.5.8-68.8,1.8-115.7,3h-.5s0-.5,0-.5c-.4-25.3-.7-52.9-1.1-81.7v-.6s.5,0,.5,0h0c62.1-1.4,118.6-2.8,160.7-3.7h.4s0,.4,0,.4c.2,25.2.5,45.7.6,59.9,0,7,0,12.5.1,16.2,0,1.8,0,3.2,0,4.2,0,.9,0,1.4,0,1.4"/>
      <path class="st13" d="M487.2,165.1s0-.3,0-.9c0-.6,0-1.5,0-2.5,0-2.3-.1-5.4-.3-9.3-.2-8.1-.4-19.4-.7-32.9l.5.5c-12.9.3-28.2.7-44.4,1.1-.1.1,1-1.1.5-.6h0s0,0,0,0h0s0,.1,0,.1v.2s0,.4,0,.4v.8s0,1.6,0,1.6c0,1,0,2.1,0,3.1,0,2.1,0,4.1,0,6.1,0,4,.1,8,.1,11.8,0,7.7.2,14.9.2,21.5l-.5-.5c13.2-.2,24.2-.4,32.1-.5,3.8,0,6.9,0,9.1,0,1,0,1.8,0,2.4,0,.6,0,.9,0,.9,0s-.2,0-.8,0c-.6,0-1.4,0-2.3.1-2.2,0-5.2.2-9,.3-7.9.3-19,.6-32.4,1h-.5s0-.5,0-.5c-.1-6.6-.2-13.9-.3-21.5,0-3.8-.1-7.8-.2-11.8,0-2,0-4,0-6.1,0-1,0-2.1,0-3.1v-1.6s0-.8,0-.8v-.4s0-.2,0-.2h0c0,0,0-.1,0-.1h0s0,0,0,0c-.5.5.7-.7.5-.6,16.3-.4,31.5-.7,44.4-1h.5s0,.5,0,.5c0,13.7.2,25.1.2,33.3,0,3.9,0,7,0,9.2,0,1,0,1.8,0,2.4,0,.5,0,.8,0,.8"/>
      <path class="st13" d="M487.2,165.1c0,0,0-1.2-.3-3.3-.3-2.1-.9-5.4-3.3-8.2h0c-1.2-1.6-2.7-3.1-4.8-4.3-2-1.2-4.4-1.9-7.1-2.1h-1c0,0,.7-.8.7-.8,2.3-2.6,3.3-6.7,2.2-10.5-.5-1.9-1.5-3.7-3.1-5-1.5-1.3-3.5-2.2-5.6-2.4-2.3-.3-4.8.2-6.7,1.3-2,1.1-3.5,3-4.3,5-1.6,4.1-.8,8.9,1.7,11.7l.4.5-.6.3c-3.2,1.3-5.8,3.5-7.6,5.7-1.9,2.2-3,4.6-3.7,6.5-1.4,4-1.1,6.5-1.3,6.5,0,0-.1-.6,0-1.8,0-1.1.2-2.8.8-4.9.6-2,1.7-4.5,3.6-6.9,1.8-2.4,4.5-4.7,7.9-6.1l-.2.8c-2.7-3.1-3.7-8.2-1.9-12.7.9-2.3,2.5-4.3,4.7-5.6,2.2-1.3,4.8-1.8,7.4-1.5,2.3.3,4.5,1.2,6.2,2.7,1.7,1.5,2.8,3.5,3.4,5.6,1.1,4.2,0,8.7-2.5,11.5l-.3-.8c2.8.2,5.3,1,7.4,2.3,2.1,1.3,3.7,2.9,4.9,4.6h0c2.6,3.2,3,6.5,3.2,8.7,0,1.1,0,1.9,0,2.5,0,.6,0,.9-.1.9"/>
      <path class="st13" d="M541.8,119.8c0,.3-8.6.8-19.3,1-10.6.3-19.3.2-19.3,0,0-.3,8.6-.8,19.3-1,10.6-.3,19.3-.2,19.3,0"/>
      <path class="st8" d="M503.4,129.9c2.6,0,5.2-.1,7.8-.2"/>
      <path class="st13" d="M511.2,129.7c0,.3-1.7.6-3.9.7-2.1,0-3.9-.2-3.9-.5,0-.3,1.7-.6,3.9-.7,2.1,0,3.9.2,3.9.5"/>
      <path class="st13" d="M572.5,144.2c0,.3-15.4.9-34.4,1.4-19,.5-34.5.6-34.5.3,0-.3,15.4-.9,34.4-1.4,19-.5,34.5-.6,34.5-.3"/>
      <path class="st13" d="M573,152.2c0,.3-15.5.9-34.6,1.4-19.1.5-34.6.6-34.7.3,0-.3,15.5-.9,34.6-1.4,19.1-.5,34.6-.6,34.6-.3"/>
      <path class="st13" d="M571.9,161.4c0,0-.9.2-2.7.3-1.9,0-4.4.2-7.3.4-6.2.2-14.7.5-24.1.7-9.4.2-17.9.4-24.1.4-2.9,0-5.4,0-7.3,0-1.7,0-2.7,0-2.7-.2,0,0,1-.2,2.7-.3,1.9,0,4.4-.2,7.3-.4,6.2-.2,14.7-.5,24.1-.7,9.4-.2,17.9-.4,24.1-.4,2.9,0,5.4,0,7.3,0,1.7,0,2.7,0,2.7.2"/>
      <path class="st13" d="M555.2,119.4c-.1-.3,5.6-3.9,12.7-8.1,7.2-4.2,13.1-7.4,13.3-7.1.1.3-5.6,3.9-12.7,8.1-7.2,4.2-13.1,7.4-13.3,7.1"/>
      <path class="st13" d="M569.5,119.8c0,.3-6,.8-13.5,1.1-.6,0-1.1,0-1.6,0h-.9s.3-.8.3-.8c2.7-6.4,6.4-10.5,6.6-10.3.3.2-3,4.4-5.6,10.7l-.5-.8c.5,0,1.1,0,1.6,0,7.4-.3,13.5-.3,13.5,0"/>
      <path class="st13" d="M544.7,125.5c0,.3-9.5.5-21.1.3-11.7-.1-21.1-.5-21.1-.8,0-.3,9.5-.5,21.1-.3,11.7.1,21.1.5,21.1.8"/>
      <path class="st12" d="M500.9,100.6c0,5.5-4.2,10.1-9.6,10.2-5.4.1-9.8-4.2-9.8-9.7,0-5.5,4.2-10.1,9.6-10.2,5.4-.1,9.8,4.2,9.8,9.7"/>
      <path class="st13" d="M492.9,91.1c-.6,0-1.2-.1-1.8-.1-2.6,0-5,1.1-6.8,3.1-1.8,1.9-2.8,4.4-2.7,7.1,0,2.6,1.1,5.1,2.9,6.9,1.8,1.8,4.3,2.8,6.9,2.7,5.3-.1,9.6-4.7,9.5-10.1,0-4.8-3.5-8.8-8-9.5M489.5,110.7c-1.9-.3-3.7-1.2-5.1-2.6-1.9-1.8-2.9-4.3-3-7,0-2.7.9-5.2,2.8-7.1,1.8-1.9,4.2-3,6.9-3.1.6,0,1.2,0,1.8.1,4.5.8,8,4.8,8.1,9.7,0,5.5-4.2,10.1-9.6,10.2-.6,0-1.2,0-1.8-.1"/>
    </g>
    <g>
      <path class="st5" d="M792.4,155.1c-1.4-1.7-4.4,6.7-4.5,7.4-1.5,8.6,6.8,10.8,6.3,16.7-.5,5.6-7.9,7.7-8.7,14.1-.3,2.6.4,11,4.4,10.2,2.7-.5-.9-2.7-1.1-3-6.7-9.3,7.9-14.1,7.8-22.4,0-5.6-7.6-7.6-6.4-15.7.4-2.4,2.6-4.7,2.3-7.3ZM756.2,170.9c-3,.3-4.7,6.1-4.7,8.5,0,5.9,6.2,7.6,6.5,11.7.3,4.2-4.1,7.6-4.6,11.8-.3,2.2,0,5.9,2.8,4.8-3.3-8,7.1-12.3,2.8-20.1-1.3-2.4-4.7-3.6-5.2-7.1-.5-3.8,2.1-6.1,2.3-9.6Z"/>
      <path class="st14" d="M792.4,155.1c.3,2.6-1.9,5-2.3,7.3-1.2,8.1,6.4,10.1,6.4,15.7,0,8.3-14.5,13.1-7.8,22.4.2.3,3.8,2.4,1.1,3-3.9.8-4.7-7.7-4.4-10.2.8-6.3,8.2-8.5,8.7-14.1.6-5.9-7.7-8.1-6.3-16.7.1-.8,3.1-9.1,4.5-7.4Z"/>
      <path class="st14" d="M756.2,170.9c-.2,3.5-2.8,5.8-2.3,9.6.5,3.6,3.8,4.7,5.2,7.1,4.3,7.7-6.1,12.1-2.8,20.1-2.9,1.1-3.1-2.6-2.8-4.8.5-4.2,4.9-7.7,4.6-11.8-.3-4.1-6.5-5.8-6.5-11.7,0-2.4,1.7-8.1,4.7-8.5Z"/>
      <path class="st7" d="M690.8,956.7c0-4.7-.5-10.1.6-14.6-.4,4.7.8,10-.6,14.6Z"/>
      <path class="st7" d="M690.8,962.5v-1.8c0,.5,0,1.3,0,1.8Z"/>
      <g>
        <g>
          <g>
            <path class="st9" d="M1059.8,991.1c.4,5.9-.3,11.7-.6,17.5-.7,16.3-1.6,32.7-2.3,49h-47.3c-1.4-21.6-2.7-43.2-4.1-64.8-.2-2.3-.9-4.6-.6-7,18.1,1,36.3,4.5,54.9,5.3Z"/>
            <path class="st9" d="M1149.1,988.2c1.4,5.2.2,11,0,16.3-.7,17.7-2,35.4-2.3,53.1h-46.7l-5.3-65.4v-.6c.2,0,.4,0,.6,0,4.6,1.3,9.9.2,14.6.6.1-1-1.6-.6-2.3-.6.6-1,2.2-.6,3.2-.6,13.1-.2,25.3-1.1,38.2-2.9Z"/>
          </g>
          <g>
            <path class="st9" d="M1174.8,743c0,1,0,1.9,0,2.9,0,9.5,2.4,18,2.9,27.1.6,10.2-3.6,35.9-4.1,38.3,0,.2-3.4,11.5-8.2,9.9,3.2-10.7,6-22.3,5.3-33.6-.2-2.5-1.6-5.6-1.8-1.1-.6,12.8-.7,22.3-4.7,34.7-.7,2.2-2.6,6.2-4.8,7.1s-3.9.6-3.9-2.5c2.1-2.7,5.3-19.6,5.8-23.7.5-4.6,1.2-11.2.7-15.7-.1-.9-.4-1.8-1.2-.9.2,6.3-.3,12.6-1.3,18.9-.9,6.2-3,16.3-5.2,22-2.3,6.1-9.5,6.3-8.8,0,.3-2.3,2.5-7.2,3.1-10,1.8-8,3.9-19.5,3.3-27.7s-.2-3-.9-3.2c-1.4-.4-.8,1.3-.9,2.1-1.3,11.6-1.1,28.1-5.9,38.8-1.3,3-3.2,4-5.3.9-1.5-2.2-1.2-4.5-1.2-7,0-4.4.9-8.5,1.2-12.5,1-.6,1.5-23.7,1.5-25.2,0-1.1-.5-3.2-2.1-2.9-1.2,6.1,0,12.2-1.2,18.3-2.3,10.9-9.2,12.7-8.7-.5.7-18.7,5.7-30,11.7-46.7.7-1.8,2.2-9.9,2.6-10.2.5-.5,1-.7,1.7-.6,9.8,2.2,20.1,3.4,30.2,2.9Z"/>
            <path class="st16" d="M1144.4,826.4c4.7-10.7,4.6-27.2,5.9-38.8,0-.7-.5-2.5.9-2.1s.9,2.5.9,3.2c.5,8.1-1.5,19.6-3.3,27.7-.6,2.9-2.8,7.7-3.1,10h-1.2Z"/>
            <path class="st16" d="M1164.3,821.2c4-12.5,4-22,4.7-34.7.2-4.5,1.6-1.3,1.8,1.1.7,11.3-2,22.9-5.3,33.6-.3,0-.8,0-1.2,0Z"/>
            <path class="st16" d="M1154.3,826.4c2.2-5.7,4.2-15.8,5.2-22,1-6.3,1.5-12.5,1.3-18.9.7-.9,1.1,0,1.2.9.6,4.5-.1,11.1-.7,15.7-.5,4.1-3.6,21-5.8,23.7-.2.2-.9.4-1.2.6Z"/>
          </g>
        </g>
        <g>
          <path class="st9" d="M1004.9,329.6c-.3-7.3,0-8.8,4.4-14.5,2.4-3.1,5.4-5.7,7.7-9.2,2-3.1,3.5-6.3,4.8-9.9.7-.5,8.2,3.5,10.1,4,5,1.5,11.8,1.6,16.2,4.8,5.4,4,6.5,15,12.6,20.1,6.6,5.5,18.5,4.9,22.5,10.2,3.2,4.3,1,8.9,2,13.7,1.1,5,5.9,8.5,11,7.4s10.2-7.3,7.4-11c4.2-.8,7.5,2.8,8.4,6.5,2,8.4-1.9,20.3-11.1,22.5-1.2.3-2.9-.1-3.7.1,0,0,0,13.4,0,12.8.8,2.2.9,4.6,1.6,6.9.3,1,1.2,1.9,1.3,2.4,1.1,4.1.6,9.3,4.1,12.3l-7.1,6.7c-8.1,6-21.4,11.3-31.5,12l-3.2-.6h-10.2c-4.3-1-2.8-1.5-4.7-3.5,3.7-.2,7.6.3,11.3,0,9.7-1,19-9.2,24.9-16.6,1-1.3,2.6-2.8,2.9-4.4-.9.1-.8,1.3-1.8,2-10.2,8.4-25.8,15.6-39.1,15.5-11.6,0-21-4.8-28.6-13.4,0,2.4-1,4.5-1.8,6.6-1.6,3.8-10.3,16.8-10.4,18.5-9.4-3.5-18.6-9-26.9-14.6,13.3-14.4,3.9-23.5,2.9-39.4s3.7-30.3,15.2-39.4c.3-.2.8-.4,1.2-.6.7-.4,4-2.6,4.1-.9-1.2,1.9-16.1,19.3-15.2,20.1s3.8-4.1,4.4-4.7c2.5-2.7,5.8-6,8.9-8.1,1.2-.8,6.2-4.3,5.2-.7-.9,3.2-9.3,9.5-12,12.5-1.4,1.5-9.2,10.6-8.2,12,.8,1.1,1.3-.8,1.5-1.1,3.7-5,7.8-10.9,12.6-14.9,3.1-2.5,7.2-6.3,6.3,1-.6,4.5-3.9,5.8-6.4,8.8-1.6,2.1-11.2,14.8-9.4,16.6,2.6.4,1.4-.7,2-2.3,1.2-3,9-15.4,11.4-16.7.8-.4.9-.3,1.5.3,5.3,4.9-7.4,16.4-2.3,23.9,3.9,5.8,8,7.6,9.4,15.7.6,3.4-1.2,6.6,4.3,5.1.8-.6.5-.8.3-1.5-.7-2.8-3-6.9-4-10-6-19.3-5.2-41.6-6.3-61.8,0-.4,0-.8,0-1.2l-.6-.6ZM1025.2,329.7c-2,.4-8.6,5.8-11,7.2-1,.6-7.3,2-4.3,4.4,3.3,2.8,15.6-3.7,17.5-7.1,1.1-2.1.9-5.2-2.2-4.5ZM1045.9,336.5c1.7,1.8,12,3.7,14.7,3.7,3.4,0,9.2-1.8,5.1-5.2-2.7.2-19-3.8-19.9-3s-.7,3.6,0,4.5ZM1035.2,344.2h-1.7c-.6,5.5-.9,11.1-2.1,16.4-1.3,5.7-8.5,20.1,1.2,20.9,3,.3,10.1-1.1,9.3-4.7-2.3.2-10.9,3.7-11.9.8-1.1-3.2,3.8-16.4,4.5-21,.6-4.2.9-8.2.7-12.5ZM1052.8,350.7c-1.1,6.9,16.3,6.7,12.5,0-4.5,1.5-8.1,1.1-12.5,0ZM1027.1,352.4c-2.2,0-4.1,1.4-6.2,1.7-2.4.3-7.6-1.2-6.6,2.6s14.5,1.1,12.7-4.3ZM1103.5,357.1c-1-1.2-5,6.4-4.1,7.6,1.5.3,1-.4,1.5-1.1,1.3-1.8,2.7-4.2,2.6-6.5ZM1035.2,395c.4.3,6.2-2.2,7.9-2.3,1.6-.1,3.5-.1,5.1.1s7.5,3.9,7.5.7c0-1.9-6.2-3.6-7.9-3.8-3.8-.4-8.8.3-11.9,2.7-.8.6-1.5,1.9-.6,2.6Z"/>
          <path class="st16" d="M1047.5,423.6c-.2-.2-1.4-.6-1.8-.6v-2.9c13.3,0,28.9-7.1,39.1-15.5.9-.8.9-1.9,1.8-2-.4,1.5-1.9,3.1-2.9,4.4-5.8,7.4-15.2,15.6-24.9,16.6-3.7.4-7.6-.1-11.3,0Z"/>
          <path class="st5" d="M1065.6,427.7c-3.9.3-9.7.3-13.4-.6h10.2s3.2.6,3.2.6Z"/>
          <path class="st16" d="M1005.5,331.4c1.1,20.1.3,42.4,6.3,61.8,1,3.1,3.3,7.2,4,10,.2.7.5.9-.3,1.5-5.5,1.4-3.6-1.7-4.3-5.1-1.5-8.1-5.6-9.8-9.4-15.7-5-7.6,7.6-19,2.3-23.9s-.7-.7-1.5-.3c-2.4,1.3-10.2,13.7-11.4,16.7-.7,1.7.5,2.8-2,2.3-1.8-1.8,7.7-14.6,9.4-16.6,2.4-3.1,5.8-4.4,6.4-8.8.9-7.3-3.2-3.6-6.3-1-4.8,4-8.9,9.9-12.6,14.9-.2.3-.7,2.2-1.5,1.1-1.1-1.4,6.8-10.5,8.2-12,2.7-3,11.1-9.3,12-12.5,1-3.6-4-.1-5.2.7-3.1,2-6.4,5.3-8.9,8.1s-3.5,5.5-4.4,4.7,14-18.2,15.2-20.1c0-1.8-3.4.4-4.1.9,1.1-2.8,5.2-6.1,8.2-6.4Z"/>
          <path class="st14" d="M1035.2,344.2c.2,4.2,0,8.3-.7,12.5-.7,4.6-5.6,17.8-4.5,21,1,2.9,9.6-.6,11.9-.8.8,3.6-6.4,4.9-9.3,4.7-9.8-.8-2.5-15.2-1.2-20.9,1.2-5.4,1.5-11,2.1-16.4h1.7Z"/>
          <path class="st14" d="M1045.9,336.5c-.8-.9-.6-4,0-4.5.9-.8,17.2,3.2,19.9,3,4.1,3.4-1.7,5.2-5.1,5.2-2.7,0-13-1.9-14.7-3.7Z"/>
          <path class="st14" d="M1025.2,329.7c3.1-.6,3.3,2.4,2.2,4.5-1.8,3.4-14.2,9.8-17.5,7.1-2.9-2.5,3.3-3.8,4.3-4.4,2.4-1.4,9-6.7,11-7.2Z"/>
          <path class="st14" d="M1035.2,395c-.9-.7-.2-2,.6-2.6,3.1-2.4,8.1-3,11.9-2.7,1.7.2,7.9,1.9,7.9,3.8,0,3.1-5.7-.5-7.5-.7s-3.5-.3-5.1-.1c-1.7.2-7.5,2.6-7.9,2.3Z"/>
          <path class="st14" d="M1027.1,352.4c1.8,5.4-11.7,7.9-12.7,4.3s4.2-2.2,6.6-2.6c2.1-.3,4-1.7,6.2-1.7Z"/>
          <path class="st14" d="M1052.8,350.7c4.4,1.2,8.1,1.6,12.5,0,3.8,6.6-13.6,6.9-12.5,0Z"/>
          <path class="st7" d="M1103.5,357.1c.1,2.3-1.3,4.7-2.6,6.5-.5.7,0,1.4-1.5,1.1-.9-1.2,3-8.8,4.1-7.6Z"/>
        </g>
      </g>
      <g>
        <path class="st14" d="M1090.1,273.6c.2.2.4.4.6.6,6,5.7,9.9,14.6,16.3,18.7,4.7,2.9,10.5,3,13.9,8,4.4,6.5,4.2,16,5.4,23.5,7.6-6.8,17.3-4.5,23.9,2.3,6.2,9.2,6.1,20.7.8,30.3-.7,1.3-3.7,4.3-3.7,4.6-.4,2.2-.2,4.6-.9,7.2-1.3,4.9-3.9,7.5-7.3,11.1-7.2,4-11.8,4.4-19.3.6-2.3,8.2-10.1,19.2-19.9,16.3-.2-.6-1.1-1.5-1.3-2.4-.7-2.3-.8-4.7-1.6-6.9,0-1.2,0-2.3,0-3.5,0-.4,0-.8,0-1.2,0-2.7,0-5.5,0-8.2.8-.2,2.4.2,3.7-.1,9.2-2.2,13.1-14.1,11.1-22.5-.9-3.8-4.2-7.4-8.4-6.5,2.8,3.7-4.3,10.3-7.4,11-5.1,1-9.9-2.5-11-7.4-1-4.9,1.2-9.4-2-13.7-4-5.3-15.9-4.8-22.5-10.2-6.1-5.1-7.2-16.1-12.6-20.1-4.4-3.3-11.1-3.3-16.2-4.8-1.8-.6-9.4-4.5-10.1-4-1.2,3.5-2.7,6.7-4.8,9.9-2.3,3.5-5.3,6.1-7.7,9.2-4.4,5.7-4.7,7.2-4.4,14.5,0,.4.6.5.6.6,0,.4,0,.8,0,1.2-3,.4-7.1,3.7-8.2,6.4-.4.2-.9.3-1.2.6,3.6-11.1.2-22.5,2.6-33.9,1.1-5.1,4-10,7.3-14,.4-.4.9-.9,1.2-1.2,3.4-3,7.1-4.8,10.5-7.6,5.8-3.1,8.9-6.2,14-9.3,1.9-1.1,6.3-3.2,8.5-4.1,17-6.9,34.7-4.7,49.9,5.3Z"/>
        <path class="st7" d="M1005.5,330.2s-.6-.2-.6-.6l.6.6Z"/>
      </g>
      <g>
        <path class="st3" d="M1104.1,409c2.5,2.1,2.4.8,4.1,4.7,1.2,2.8,1.8,6,3.4,8.6,3.1,4.8,20.7,12,26.7,15.3,7.1,4,13.8,8.6,20.7,12.9.2.2.4.4.6.6.8.8,1.5,1.5,2.5,2.1.3.3.8.7,1.1.9,2.3,2.3,4.7,4.5,6.9,6.9.2.2.4.4.6.6,8.1,10.4,12.7,22,15,34.9,5.2,30,6.5,65.5,7.2,96.1,1.1,49.9-4,99.8-13,148.8-.8,1.9-3.5,1.5-5.1,1.6-10.1.5-20.3-.7-30.2-2.9-.7-.1-1.2,0-1.7.6-.4.4-1.9,8.4-2.6,10.2-6,16.7-11,28-11.7,46.7-.5,13.3,6.4,11.4,8.7.5,1.3-6.1,0-12.2,1.2-18.3,2,0,2.3.8,2.3,8-.2,19.2-1,18.1-1.4,20.3-.7,4-1.5,7.8-1.5,12.2,0,2.6-.3,4.8,1.2,7,2.1,3.1,3.9,2.1,5.3-.9h1.2c-.7,6.3,6.5,6.1,8.8,0,.3-.2,1-.4,1.2-.6,0,3,1,3.7,3.9,2.5s4.1-4.9,4.8-7.1c.4,0,.9,0,1.2,0,4.3-.2,3.2-1.8,6.3-5-.7,6.9,1.3,20.5,1.9,28.1,2,26.1,4.2,52.2,6.4,78.2,1.6,18.9,3.9,37.7,5.2,56.6-.5,2.4-5.7,3.2-7.9,3.8-6.9,1.9-16.2,6.5-81.9,10.7-8.7.6-17.3.3-26-.3-60-3.7-94.3-12.8-96.1-15.3-1.6-2.2,0-8.4,0-11.1.1-4.8,0-9.6,0-14.3,0-.2,0-.4,0-.6l1.2-11.4c4.8-80.5,4.4-163.4,19.4-242.7,4.4-23.3,12.1-45.3,17.6-68.2.7-2.8,2.8-10.2,2.7-12.6,0-1.7-2.3-4.2-2.9-6.5-2.5-10-1.4-22.6-3.9-33.5-1.8-7.8-5.6-15.2-7.1-23.2-1.4-7.4-1.4-14.8-1.3-22.3-3.5,2.3-7.4,4.2-10.5,7s-.4.4-.6.6c-20.4,11.7-41.9,26.9-66.6,16.9-3.5-3.2-7.2-5.2-9.3-9.9-11.1-24,11.4-55.6,24.3-75.3,10.3-15.7,21.8-30.6,32.9-45.6,2.5-2.6,6.7-5.9,8.8-8.2,8.3,5.6,17.5,11.1,26.9,14.6,0,.8,1.2,3-.3,4.7l-13.7,27.2c0,.4.6.4.9.3,1.5-.7,8.3-7,10.6-8.6,7.9-5.6,16.4-10,25.3-13.8,3.4-1.5,11.7-3.6,14-5.3,5.1-3.7-.9-13,4.1-13.1.4,0,1.5.3,1.8.6,1.9,2,.4,2.5,4.7,3.5,3.7.9,9.5.9,13.4.6,10.1-.7,23.4-6,31.5-12l7.1-6.7ZM1111.1,430.6c-.5-.6-7.4,5.4-8.6,5.7-15.1,8-31.4,13.6-48.6,9.2-1.8-.5-4.1-1.8-5.6-2s-1.1.8-.9,1.5c.5,1.6,13.3,4.2,15.6,4.3,11,.8,39.9-7.3,47.2-15.7.6-.7,1.4-2.3.9-2.9ZM1131.6,505.7c-.3,3.5.2,7.3,0,10.8h1.8v-9.6c0-13.7,13.1-33.7,24.3-41,.5-.3,7.3-3.1,6-4.2-3.4.1-6.8,2.3-9.5,4.2-10.9,7.6-21.4,26.7-22.6,39.9ZM990.9,464.5c-.9-1.1-2.6,2.9-2.8,3.3-9.9,19.6-16.6,40.7-28.4,59.7-.9,1.4-7.5,9.7-6.7,10.6s1.4-.2,1.9-.7c5.3-5.4,11.6-18,15.2-25,5.4-10.5,10.4-22,15.1-32.8.9-2,6.4-14.2,5.7-15ZM1011.7,466.7l-13.7,57.6,2.2.5,13.7-57.6-2.2-.5ZM1133.3,531h-1.7c1.2,13.8,1.7,28.5,4.3,42.2.3,1.9.8,5.2,1.4,6.7s.1.9,1.3.7l-5.3-49.6ZM1089,582.4c-19,2.1-30-15.5-46.7-19.3-.2,1.1.5,1.4,1.3,1.9,1.9,1.1,5,1.8,7,2.9,4.7,2.5,9.2,6.7,13.9,9.5,7.5,4.4,15.6,7.6,24.5,6.8v-1.7ZM1134.5,618.6c-39.1,8-79,7.6-117.9-.9,0,2.6,6.3,3.1,8.6,3.6,6.6,1.3,13.6,2.3,20.3,3.1,29.4,3.3,60.4,2.4,89-4.7.2,2.4,2.3,5.3,2.9,7.6.8,2.9,4.6,15,4.7,16.9s-1.2,6.8-.6,9.9c-9.9-2.3-20.8-1.2-30.3,2.1-16.7,5.7-21.7,11.1-41.5,7.6-21.1-3.7-37.4-20.8-58.9-21.3v1.7c17.2,0,31,12.5,46.6,18,13.6,4.8,27.1,6.1,41,1.6,6.7-2.2,12.8-6.1,19.8-7.7,7.8-1.7,15.5-1.5,23.5-.8l-4.1,66c-3.4-1.3-7.9-2.7-11.5-3.4-37.1-6.3-61.9,23-101,11.7-4.3-1.2-30.3-12.7-32.2-10.7-.1.1,0,1.3,0,1.7,15.9,2.6,29.3,12.3,45.8,13.5,29.9,2,52.6-17.5,81.7-15.2,5.8.5,11.5,2.8,17.2,3.5v14.6h1.7c.2-5.3-.2-10.7,0-16,1.3-26.3,4-50.1,3.5-76.8-.2-10.2,0-20.5-.6-30.7-.4-8.1-1.8-16.1-1.8-24.2-.9.1-1,2.5-1.1,3.3-1,6.3-1.4,12.7-2.6,19-.4,2.3-1.9,5.2-2.2,6.9ZM1128.7,805.4c.4-.5-.6-1.9-1.4-1.7-16.1,7.4-33.6,9-50.7,4.4-29.6-7.9-42.5-25.6-77.7-21.9-5,.5-10,2.1-15,2.8l1.4,1.7c12.5-3.3,26.8-4.2,39.5-1.5,19.1,4.2,34.9,17.1,53.9,21.4,13.8,3.2,28.3,2.1,41.8-2.1,1.1-.3,7.9-2.9,8.2-3.2ZM979.2,860.9c.5.5,11.1-2.2,13.1-2.4,32.5-2.7,47.2,22.5,76.5,23.9,34.6,1.7,57.3-20.4,95-10.3,3.4.9,6.9,2.9,9.8,3.7.8.2,2.4.3,2.3-.6,0-2.8-21.1-6.9-24.3-7.2-36.3-4.1-63.7,22.1-100.8,8.5-23.2-8.5-30.4-22.1-59.1-19.7-1.5.1-11.5,1.9-12.2,2.3s-.5,1.6-.4,1.8ZM1182.4,952c.2-1.4-1.2-1.7-2.1-2.3-9.1-4.9-26.4-7.8-36.7-7.7-24.3.2-43.3,14.5-68.3,12.9-30-2-45-23.2-74.1-24.5-2.9-.1-24.5.8-25.4,1.8s-.2,1.7.3,1.8c16.4-2.5,33.3-3.1,48.8,3.7,19,8.3,26.5,17.5,49.8,19.1,26.7,1.9,47.1-14.1,73-12.8,7.5.4,15.8,2.2,23.1,4.4,4,1.2,7.7,3.2,11.7,3.8Z"/>
        <path class="st12" d="M1142.7,644.3c.5,26.7-2.2,50.4-3.5,76.8-.3,5.3.2,10.7,0,16.1h-1.7v-14.6c-5.7-.7-11.5-3-17.2-3.5-29.2-2.3-51.8,17.2-81.7,15.2-16.5-1.1-29.9-10.9-45.8-13.5,0-.5-.1-1.6,0-1.7,1.9-2,28,9.4,32.2,10.7,39.1,11.4,63.9-18,101-11.7,3.6.6,8.1,2,11.5,3.4l4.1-66c-7.9-.7-15.6-1-23.5.8-7,1.6-13,5.5-19.8,7.7-13.9,4.5-27.4,3.2-41-1.6-15.5-5.4-29.4-17.9-46.6-18v-1.7c21.6.6,37.9,17.6,58.9,21.3,19.7,3.5,24.7-1.9,41.5-7.6s20.5-4.3,30.3-2.1c-.6-3.1.6-7.2.6-9.9h.6Z"/>
        <path class="st12" d="M1182.4,952c-4-.6-7.7-2.6-11.7-3.8-7.2-2.2-15.5-4-23.1-4.4-25.9-1.2-46.2,14.7-73,12.8-23.3-1.6-30.8-10.8-49.8-19.1-15.5-6.8-32.4-6.2-48.8-3.7-.6,0-.4-1.7-.3-1.8.9-1,22.5-1.9,25.4-1.8,29.1,1.3,44.1,22.5,74.1,24.5,24.9,1.7,43.9-12.7,68.3-12.9,10.3,0,27.6,2.8,36.7,7.7,1,.5,2.3.8,2.1,2.3Z"/>
        <path class="st12" d="M979.2,860.9c-.2-.2-.2-1.4.4-1.8s10.7-2.2,12.2-2.3c28.7-2.4,35.9,11.2,59.1,19.7,37.1,13.5,64.5-12.7,100.8-8.5,3.2.4,24.2,4.4,24.3,7.2s-1.5.8-2.3.6c-2.8-.7-6.4-2.7-9.8-3.7-37.7-10.1-60.4,12-95,10.3-29.3-1.4-44-26.7-76.5-23.9-2,.2-12.6,2.9-13.1,2.4Z"/>
        <path class="st12" d="M1128.7,805.4c-.3.4-7.1,2.9-8.2,3.2-13.5,4.3-28,5.3-41.8,2.1-19-4.4-34.8-17.2-53.9-21.4-12.7-2.8-27-1.9-39.5,1.5l-1.4-1.7c5-.7,9.9-2.3,15-2.8,35.3-3.7,48.1,14,77.7,21.9,17.1,4.6,34.6,2.9,50.7-4.4.8-.3,1.8,1.1,1.4,1.7Z"/>
        <path class="st12" d="M1134.5,618.6c0,.3,0,.8,0,1.2-28.7,7.1-59.6,8-89,4.7-6.7-.8-13.7-1.7-20.3-3.1-2.4-.5-8.7-1-8.6-3.6,39,8.4,78.9,8.9,117.9.9Z"/>
      </g>
      <g>
        <path class="st12" d="M990.9,464.5c.6.8-4.9,13-5.7,15-4.6,10.8-9.7,22.3-15.1,32.8-3.6,7.1-9.9,19.6-15.2,25-.5.5-1.2,1.4-1.9.7s5.8-9.1,6.7-10.6c11.9-19,18.5-40.1,28.4-59.7.2-.4,1.9-4.4,2.8-3.3Z"/>
        <path class="st12" d="M1111.1,430.6c.5.6-.2,2.2-.9,2.9-7.4,8.4-36.2,16.4-47.2,15.7-2.2-.2-15-2.7-15.6-4.3-.2-.7-.3-1.6.9-1.5s3.8,1.6,5.6,2c17.2,4.4,33.5-1.1,48.6-9.2,1.2-.3,8.1-6.3,8.6-5.7Z"/>
        <path class="st12" d="M1131.6,505.7c1.2-13.2,11.7-32.3,22.6-39.9,2.7-1.9,6.2-4.1,9.5-4.2,1.2,1.1-5.5,3.9-6,4.2-11.3,7.3-24.3,27.3-24.3,41v9.6h-1.8c.2-3.5-.3-7.3,0-10.8Z"/>
        <rect class="st12" x="976.4" y="494.6" width="59.2" height="2.2" transform="translate(290.2 1359.1) rotate(-76.6)"/>
        <path class="st12" d="M1089,582.4v1.7c-8.9.8-17-2.3-24.5-6.8-4.7-2.8-9.2-6.9-13.9-9.5-2.1-1.1-5.1-1.8-7-2.9s-1.6-.7-1.3-1.9c16.7,3.7,27.7,21.4,46.7,19.3Z"/>
        <path class="st12" d="M1133.3,531l5.3,49.6c-1.2.2-1,.1-1.3-.7-.7-1.6-1.1-4.9-1.4-6.7-2.5-13.7-3.1-28.3-4.3-42.2h1.7Z"/>
      </g>
      <path class="st13" d="M818.1,205.9c9.5-1.8,26.6-4.1,33.9,4.1.5.6.8.9,2.3,3.5.8,2.5,1.5,4.9,1.2,7.6,7.4-2.4,15.2,2.5,16.3,10.3.4,2.8-.7,7.4-.4,9.2.1.8,1.3,1.6,1.6,3,.8,4.9-1.4,10.6-3.8,14.9-1.5,2.7-3.6,6-5.6,8.2-3.4,6.6-4.3,8.4-7,12.8.5-5.5,1.5-11.8,1.8-17.2.3-5.9-3-3.3-7.3-3.8-8.9-1-17.6-3.4-26.1-6-9.9-3-23.4-9.5-33.5-10.3-3.9-.3-7.4.7-11.3.6-.8,7.3-2.9,14.1-5.6,20.9s-8.1,17.5-11.4,19c-3.5,1.6-3.7-4.1-5.1-6.5-2.3-3.8-4.6-4.5-8.9-4.3,0,0,1.1-30.7,1.2-30.9.7-8.9,5.4-17.2,12.3-22.8,2-.3,3.6-1.8,5.5-2.4,6.8-2.1,13.6-.6,20.5-1.1,9.6-.8,19.9-5.5,28.9-8.7.2,0,.4,0,.6,0Z"/>
      <path class="st4" d="M854.8,790.7c0-2.6-1.4-51.4-2.6-95.2-.1-4.9-.3-9.7-.4-14.4v-1.8c-.8-27.9-1.3-50.6-1.2-52.8,0,0,0,0,0,0h-3c0,.1-48.2,2.2-48.2,2.2h-2.3c0,.1-78.1,3.5-78.1,3.5h-1.6c0,0-.7.1-.7.1,0,2.9.4,16.4.2,24.9,0,.8,0,1.6,0,2.3,0,.2,0,.5,0,.7,0,1.7-.2,2.9-.4,3.6,0,1.8,0,3.6,0,5.4-.1,8.1-.5,16.2-.6,24.4,0,2.6,0,5.3,0,7.9,0,.3,0,.7.1,1.1,0,0,0,.2,0,.3.2.9.4,1.9.5,2.8,0,0,0,.1,0,.2.1,1.5-.2,2.7-1.8,3.6,0,.2,0,.3,0,.4.7,3.4.9,6.8,1.8,10.2,3.5,13.1,6.8,20.8,7.4,35.2,0,2.1.4,10.7-.7,11.8-2,2-4.5-.2-5.5-2-.9-1.6-2.5-7.5-2.5-9.2v-13.7l-1.8.3.5,51.2c-5.1,5.2-6.4.4-7.7-4.3-3.3-11.4-3.1-24.9-3.8-36.8h-1.7c-.3,12.4.4,24.9,3.7,36.9.8,2.8,3.6,5.7.7,8-6.6,5.4-11.4-13-12.4-16.8-2.1-8.7-2.1-17.3-3.1-26.1,0-.9-.1-1.8-1.2-2,.3,13.4,1.1,27.7,6.8,40.1,0,3.8-4.1-1-5.3,1.2.4,1.3,1.3,4.3,1.4,5.7,2.6,46.5-2,95.5,0,142.2-.4,4.7.8,10-.6,14.6v5.8c0,16.5,0,33.1,0,49.6h69.5l20.1-242.9c1.4,9.8,1,19.7,1.4,29.5,3,63,2.5,123.1,1.8,186.2-.1,9.1-.3,18.2.6,27.2h61.9c1.5-27.5,2.6-55.1,4.7-82.6,2.5-46.1,4.8-92.1,4.1-138.4ZM845.9,681.1c-2-.1-11.5-1.4-12.8-2.3-.5-.4-.5-1.7-.3-1.8.5-.5,11.3,2.2,13.7,2.4,1.6,0,3.2,0,4.9,0,0,.6,0,1.2,0,1.8-1.9,0-3.8.1-5.6,0Z"/>
      <g>
        <path class="st2" d="M856.6,279.5c-2,21.8-4.1,44.1-11.1,64.8-4.9,8.7-10.7,16.7-20.4,20.4-1.4.5-5.6,1.6-7,1.8-16.9,1.8-42.4-7.5-51.6-22.2l-2.7-5.2c1.5,11.4,11.6,21.9,21.1,27.7,9.7,6,20.1,8.2,31.5,6.2-3.2,14.8-8.2,26.4-16.8,38.9-.3.4-.4,1.7-1.3.8s-1.4-4.1-2-5.3c-8.6-16.1-25.9-22.3-38.3-35.3-3.1-3.3-10.7-12.3-10.5-16.7.1-3.2,2.3-9.2,2.9-12.8,1.5-8.6,4.5-32.9,2.9-34.4-1.1-1.1-3.6-1.2-5.3-2-7.5-3.6-10.8-13.1-9.8-21,.6-5.4,4.7-12.5,10.4-13.2.2,0,.4,0,.6,0,4.3-.2,6.6.4,8.9,4.3,1.4,2.4,1.6,8.2,5.1,6.5,3.3-1.5,9.8-15.2,11.4-19,2.8-6.8,4.9-13.6,5.6-20.9,3.9,0,7.4-.9,11.3-.6,10,.8,23.6,7.3,33.5,10.3,8.5,2.6,17.2,5,26.1,6,4.4.5,7.6-2.1,7.3,3.8-.3,5.4-1.3,11.7-1.8,17.2ZM809.2,266.2c-3,.4-13.9,2.4-16.3,3.5-5,2.2-.1,6.3,3.4,6.8,4.3.7,15.9-3.1,17.5-7.6,1.3-3.6-1.9-3.1-4.5-2.7ZM835.4,269.6c-1.4.5-1.7,2.8-1.3,4,1,3.2,9.6,11,12.9,11.1s6.6-2.4,4.9-4.9c-.6-.9-12.8-9.3-14.1-9.8-.8-.3-1.5-.7-2.4-.4ZM754.4,293.5c-1.1-4.4.4-10.7-4.7-12.8,1.7,4.3,3.5,8,2.9,12.8h1.7ZM823.6,284.7c-1.3.3-.9,4.5-.9,5.5.3,7.9,3.8,16.6,4.1,24,.4,12-9,6.1-15.2,4.6-1-.3-1.1-.3-1.8.6,3.9,5.4,14.8,7.6,18.6,1.1,2.9-5-1-18-2.1-24s-.7-7.1-1.4-10.3-.5-1.7-1.4-1.5ZM794.9,293.9c2.7,2.5,12,2.2,13.2-2.4-1.9-1.7-4.5,0-7.2-.3s-6.7-2.3-7.1-2.3c-1.8.3.2,4.3,1,5.1ZM846.1,297.6c-.2-.2-4.2,0-5.7-.4-2.4-.6-9.2-6.6-8.8-1.6s10.4,8.2,14,4.7c.6-.6.8-2.4.6-2.6ZM794.8,335c-.4.7,0,2.5.9,2.8s6.9-1.8,9.2-1.7,6.7,1.3,9.2,2.5c1.6.8,6.6,5.6,7.4,3,.6-1.8-1.2-3-2.3-4-3.8-3.1-11.1-5.3-16-5-1.3,0-8,1.7-8.4,2.4Z"/>
        <path class="st6" d="M818.1,366.4c0,2.2-1.3,4.4-1.8,6.4-11.3,2-21.8-.2-31.5-6.2-9.4-5.8-19.6-16.3-21.1-27.7l2.7,5.2c9.2,14.8,34.8,24.1,51.6,22.2Z"/>
        <path class="st14" d="M809.2,266.2c2.6-.3,5.8-.8,4.5,2.7-1.6,4.4-13.1,8.2-17.5,7.6-3.5-.5-8.4-4.6-3.4-6.8,2.4-1.1,13.3-3.1,16.3-3.5Z"/>
        <path class="st14" d="M823.6,284.7c.9-.2,1.3.7,1.4,1.5.6,3.2.7,6.9,1.4,10.3,1.1,6,5,19,2.1,24-3.8,6.6-14.7,4.3-18.6-1.1.7-.9.7-.9,1.8-.6,6.1,1.5,15.6,7.4,15.2-4.6-.2-7.4-3.7-16.1-4.1-24,0-1.1-.4-5.3.9-5.5Z"/>
        <path class="st14" d="M835.4,269.6c.9-.3,1.6,0,2.4.4,1.3.5,13.5,8.9,14.1,9.8,1.7,2.5-2.7,5-4.9,4.9-3.3-.1-11.9-7.9-12.9-11.1-.4-1.3-.1-3.6,1.3-4Z"/>
        <path class="st14" d="M794.8,335c.4-.7,7.1-2.3,8.4-2.4,4.9-.3,12.2,1.9,16,5,1.2,1,2.9,2.2,2.3,4-.8,2.6-5.8-2.2-7.4-3-2.5-1.2-6.5-2.4-9.2-2.5s-8.7,1.9-9.2,1.7c-1-.3-1.3-2.1-.9-2.8Z"/>
        <path class="st14" d="M846.1,297.6c.3.3,0,2.1-.6,2.6-3.6,3.5-13.7-1.1-14-4.7s6.4,1,8.8,1.6c1.6.4,5.5.2,5.7.4Z"/>
        <path class="st14" d="M794.9,293.9c-.8-.8-2.8-4.8-1-5.1.4,0,5.3,2.1,7.1,2.3,2.7.2,5.3-1.4,7.2.3-1.2,4.7-10.5,5-13.2,2.4Z"/>
        <path class="st14" d="M754.4,293.5h-1.7c.6-4.9-1.3-8.5-2.9-12.8,5.1,2.2,3.5,8.4,4.7,12.8Z"/>
        <path class="st7" d="M714.7,709.7c.8,3.6,1,7.1,1.9,10.6,3.5,13.1,6.8,20.8,7.4,35.2,0,2.1.4,10.7-.7,11.8-2,2-4.5-.2-5.5-2s-2.5-7.5-2.5-9.2v-13.7l-1.8.3.5,51.2c-5.1,5.2-6.4.4-7.7-4.3-3.3-11.4-3.1-24.9-3.8-36.8h-1.7c-.3,12.4.4,24.9,3.7,36.9.8,2.8,3.6,5.7.7,8-6.6,5.4-11.4-13-12.4-16.8-2.1-8.7-2.1-17.3-3.1-26.1,0-.9-.1-1.8-1.2-2,.3,13.4,1.1,27.7,6.8,40.1.6,3.9-6.2,3-8-1.6-3.6-8.9-6.7-18-7.6-27.7l-.9-10.8c-1.2-.4-1.2,2.8-1.2,3.3,0,7.1,3,24.6,6.6,32.1.7,1.4-.6,2.7-2.1,2.4-1.1-.2-2-.8-2.9-2.7-2.1-3.1-3.1-6.6-4.7-9.9-.2-.4-2.1-8.1-2.3-9.3-6.3-24.1,0-53.9,0-56.6,0,0,38.7-.4,42.6-2.3Z"/>
      </g>
      <g>
        <path class="st15" d="M878.9,440.1c-10.1-33-32.3-45-58-64-.8-.6-3.2-1.6-3.4-1.6h-1.7c-3.9,14.9-7.7,24.7-16.3,37.3-.3.4-.4,1.7-1.3.8-.2-.2-1.4-4.1-2-5.3-8.6-16.1-25.9-22.3-38.3-35.3-3.1-3.3-10.7-12.3-10.5-16.7-1.3-.4-4.3,3.2-7.3,6.4-10,10.7-29.8,19.5-42,29.2-34.3,27.2-38.5,52.3-41.4,94.2-4.3,61.5-2.6,130.9,5,192.1,1,8.4,2.6,23.2,5.6,30.6,1.1,2.8,1.9,3,4.9,4.2l8.8,1.8h15.2c4.5-.7,14.8-2.1,18.7-4.1,0,0,0,0,0,0,1.8-.9,1.9-2.4,1.7-4,0,0,0-.1,0-.2-.1-.9-.4-1.9-.5-2.8,0,0,0-.2,0-.3,0-.2,0-.4,0-.6,0-2.8,0-5.6,0-8.4,0-8.1.2-16.2.6-24.4,0-1.7.2-3.3.3-4.9,0-1.4.2-2.7.2-4.1,0-.2,0-.5,0-.7,0-.8,0-1.5,0-2.3,0-1.7.1-3.4.1-5.2,0-6.6.2-13.2.5-19.8.5-12.1,1.3-24.1,1.6-36.4.2-6.6.5-14.5-.3-20.9,0-.4,0-.8,0-1.2v-.6c0-21.8,1.9-46.3,3.5-68.3,0-.8,0-1.6,0-2.3.4-4.6.7-9.4,1.2-14,0-.7.1-1.9.6-2.3.3-1.7-.3-4.3,0-5.8.1-.5.5-.8.9-1.2,2.8-.6.8,7.8.9,9.3l-1.8,18.1c0,1.5,0,3.1,0,4.7.6,19.7-3.5,64.6-3.5,65.4,0,1-.6,1.1-.6,1.2-.3,6.6-.4,13.5-.6,20.1-.3,11.4-.3,22.8-.6,34.2,0,0,.2,0,.3,0,24.8,2.3,49.8,3.6,74.8,2.9,13.2-.3,26.5-1.4,39.5-3.7,2.6-.5,11.1-1.8,12.7-3,.2-.2.8-.9,1.6-1.7,1.3-1.5,2.9-3.5,3.2-4,4-6.4,2.8-16.3,2.8-23.5.2-44.8,4.3-87.4,6-131.9,0-1.3,0-4.3,0-4.4.2-5.4-.6-9-.8-14.4,0-1.6-.8-3.1-.6-4.6.1-.8.9-2,1.5-.9.6,1,.2,2.4.3,3.5.3,0,.5.3.6.6.6,4.3.3,14,0,18.7,0,.4,0,.8,0,1.2-1.3,26.4-3.2,52.7-4.1,79.1-.7,21.5,1.3,46.4-.6,67.1-.4,4.7-2,9.9-5.4,13.4-1,1-2.1,1.9-3.4,2.5.9,7.1,1.8,14.4,2.4,21.5.5,6.6,1.2,18,1.8,28.9.1,0,.3,0,.4,0,2.1-.1,4.3-.4,6.3-.6,1.8-.2,9.5-2.2,10-2.1.6,0,1.2,1.3.9,1.6-.4.5-8.9,2.1-10.3,2.3-2.2.3-4.5.5-6.8.6-.1,0-.2,0-.3,0,.3,5.1.5,10.1.7,14.4.2,4.7.4,8.6.4,10.8,0,0,11.2,0,14.6-.7,3.6-1,3-3.3,3.5-3.8.4-.5,1.7-9.5,1.8-11.1,3.1-50.1,12.7-105.4,10.1-155.7-1.6-31,5.4-65.3-3.6-94.9ZM803.5,411.1c2.8-3.4,4.6-7.1,7.1-10.4.4-.5.5-1,1.4-1,1.8,0,9.5,12.6,12,14,.8-10.2,1.4-20.2.6-30.4h1.7c.5,7.4,1,15,.6,22.5,0,1.6-1,10.6-1.5,11.4-.8,1.4-1.7,0-2.4-.6-2.2-2.1-9.8-13.4-11.1-14-.6,2.4-9.9,14.4-11.7,14-2.8-.6,2.6-4.8,3.2-5.6ZM736.6,370.6c.9,1.2,3.6,8.5,4.9,10.9,7.3,13.6,17.9,25.2,29.6,35.2,1.8,0,10-13.9,12.1-15.9.8-.8.8-1.3,2.2-1,.2,1-.3,1.7-.7,2.5-1.2,2.5-6.7,10-8.7,12.3-1.5,1.7-3.9,5-6.2,4-1.5-.7-10.9-9.9-12.7-11.8-6.5-6.8-20.4-25.4-22.3-34.3-.4-1.9.1-4,1.9-1.9ZM710.1,684.3c-3.3,1-9.6,1.7-13.2,2-9.8.9-19.7.8-29.5,0v-1.7c8-.3,16.2.4,24.3,0,6.1-.3,12.5-1.7,18.6-2.4.6,0,1.9-.8,2.1.4.2,1.2-1.5,1.5-2.3,1.8ZM724.7,475.6c-.7-.5-1.5-13.6-1.9-15.9-3.4-21.6-15.3-45.4-40.2-45.9-.1-2.4,3.2-1.9,5-1.7,25.8,1.9,38,36.1,38.8,58,0,.8.3,7-1.8,5.6ZM796.5,631.8c.2-1,.5-2,.7-3.1,1.1-4.4,2.4-8.7,2.8-13.3.3-3.5,0-7.3,0-10.8-.7-2.1-.9-4.8-1.2-7-1.3-10.7-1.3-20.7-1.2-31.5,0-1.3-.4-3.3.6-4.1.4-37.9,1.7-75.6.6-113.6-.2-8.5-1.8-17.2-1.2-25.7,0-1.2,0-3.6,1.8-3.2.1,6,.5,12,.6,18.1.9.5.6,2,.6,2.9.1,5.6,0,11.3,0,16.9,0,.6,0,1.2,0,1.8,1.7,31.2.2,60.6-.6,91.7,0,.8,0,1.6,0,2.3-.1,4.7,0,9.3,0,14,0,1,0,1.9,0,2.9,0,.4,0,.8,0,1.2,0,.3-.4.5-.6.6,0,0,0,0,0,0-.2,17.9,5.8,39.4.3,56,0,.2-.1.4-.2.6-.5,1.7-1.3,4.4-3,3.2ZM864.6,705v-.6c.4.2.4.4,0,.6Z"/>
        <path class="st3" d="M724.7,475.6c-.7-.5-1.5-13.6-1.9-16-3.4-21.6-15.3-45.4-40.2-45.9-.1-2.4,3.2-1.9,5-1.7,25.8,1.9,38,36.1,38.9,58,0,.8.3,7-1.8,5.6Z"/>
        <path class="st3" d="M785.4,399.7c.2,1-.3,1.7-.7,2.5-1.2,2.6-6.7,10-8.7,12.3-1.5,1.7-3.9,5-6.2,4-1.6-.7-10.9-9.9-12.7-11.8-6.5-6.8-20.4-25.4-22.3-34.3-.4-1.9.1-4,1.9-1.9.9,1.2,3.6,8.5,4.9,10.9,7.3,13.6,17.9,25.2,29.6,35.2,1.8,0,10-13.9,12.1-15.9.8-.8.8-1.3,2.2-1Z"/>
        <path class="st3" d="M826.2,383.4c.5,7.4,1,15,.6,22.5,0,1.6-1,10.6-1.5,11.4-.8,1.4-1.7,0-2.4-.6-2.2-2.1-9.8-13.4-11.1-14-.6,2.4-9.9,14.4-11.7,14-2.8-.6,2.6-4.8,3.2-5.6,2.8-3.4,4.6-7.1,7.1-10.4.4-.5.5-1,1.4-1,1.7,0,9.5,12.6,12,14,.8-10.2,1.4-20.2.6-30.4h1.7Z"/>
        <path class="st3" d="M667.5,686.4v-1.7c8-.3,16.2.4,24.3,0,6.1-.3,12.5-1.7,18.6-2.4s1.9-.8,2.1.4-1.5,1.5-2.3,1.8c-3.3,1-9.6,1.7-13.2,2-9.8.9-19.7.8-29.5,0Z"/>
        <path class="st4" d="M851.5,681.1c-1.9,0-3.8.1-5.6,0-2-.1-11.5-1.4-12.8-2.3-.5-.4-.5-1.7-.3-1.8.5-.5,11.3,2.2,13.7,2.4,1.6,0,3.2,0,4.9,0,0,.6,0,1.2,0,1.8Z"/>
        <path class="st4" d="M869,678.2c-.4.5-8.9,2.1-10.3,2.3-2.2.3-4.5.5-6.8.6-.1,0-.2,0-.3,0,0-.6,0-1.2,0-1.8.1,0,.3,0,.4,0,2.1-.1,4.3-.4,6.3-.6,1.8-.2,9.5-2.2,10-2.1.6,0,1.2,1.3.9,1.6Z"/>
        <rect class="st5" x="669.8" y="687.5" width="4.1" height=".6"/>
        <path class="st7" d="M799.4,571.9l.6-.6c0,.4-.6.5-.6.6Z"/>
        <path class="st5" d="M678.8,688.1c.4.2.4.4,0,.6v-.6Z"/>
        <path class="st5" d="M680.6,688.1c.4.2.4.4,0,.6v-.6Z"/>
        <path class="st5" d="M864.6,704.4c.4.2.4.4,0,.6v-.6Z"/>
      </g>
      <path class="st1" d="M798.6,420.7s2.1,94.3.2,122.1c-1.9,27.8,2.2,59.6,2.2,59.6,0,0,2.5,20.2-4.6,29.3"/>
      <path class="st1" d="M843.4,632.5s13.4-6.9,11.8-31.8c0-1.2,0-2.4,0-3.7,0-12,.7-67.9,2.6-94.8,2.2-30.2,5.3-49,.9-59.3"/>
      <path class="st1" d="M860.7,466.9"/>
      <path class="st1" d="M725,479.1s-6.6,108.1-6.2,157"/>
      <path class="st10" d="M780.1,244.1c0,0-.2-1,.1-2.8.3-1.7,1.3-4.2,3.7-6.3,2.3-2.1,6.1-3.2,10.2-3,4.1.2,8.4,1.8,12.9,3.6,2.2.9,4.5,1.7,6.7,2.3,2.2.6,4.4,1,6.5,1.1,4.2.3,8-.2,11-1,3.1-.8,5.4-1.9,7-2.7.8-.4,1.4-.8,1.8-1,.4-.2.6-.4.6-.4,0,0-.9.5-2.5,1.2-1.6.7-3.9,1.7-7,2.5-3,.7-6.8,1.2-10.9.8-2-.2-4.2-.5-6.3-1.1-2.2-.6-4.4-1.4-6.6-2.3-4.5-1.8-8.9-3.4-13.1-3.6-4.2-.3-8.1,1-10.5,3.2-2.4,2.2-3.5,4.8-3.7,6.6-.2,1.8.1,2.8.1,2.8"/>
      <path class="st10" d="M778.1,242.2s0-.3,0-.9c0-.7,0-1.5,0-2.6,0-2.3.1-5.6,1.4-9.5.7-1.9,1.7-3.9,3.2-5.6,1.5-1.8,3.6-3.3,6.1-3.8,2.5-.6,5.3-.2,8,.7,2.7.9,5.2,2.4,7.8,4.1,2.6,1.6,5.1,3.3,7.7,4.5,2.7,1.2,5.4,1.9,8.1,2,2.7.2,5.2,0,7.5-.6,2.3-.6,4.4-1.4,6.2-2.3,3.6-1.9,6-4.2,7.4-6,.7-.9,1.2-1.6,1.5-2.1.3-.5.5-.8.5-.8,0,0-.2.2-.6.7-.3.5-.9,1.2-1.6,2-1.5,1.7-3.9,3.9-7.4,5.7-1.8.9-3.8,1.7-6.1,2.2-2.3.5-4.7.7-7.3.5-2.6-.2-5.3-.9-7.8-2-2.6-1.2-5.1-2.8-7.6-4.5-2.6-1.6-5.2-3.2-8-4.1-2.7-.9-5.6-1.3-8.3-.7-2.7.6-4.9,2.2-6.4,4-1.6,1.8-2.6,3.9-3.2,5.9-1.3,4-1.2,7.4-1.2,9.6,0,1.1,0,2,.1,2.6s0,.9.1.9"/>
      <path class="st10" d="M1112.4,348.2s0,0,.2-.3c.1-.2.3-.5.5-.9.4-.8.8-2.1.8-3.8,0-1.7-.4-3.7-1.7-5.7-1.2-2-3.6-3.9-6.9-4.8-3.2-1-7.2-1.2-10.1-3.3-1.5-1-2.3-2.5-2.3-4.3,0-1.8.5-3.6,1-5.6,1.1-3.9.1-8.3-2.9-11.6-1.5-1.6-3.5-3-5.9-3.8-2.4-.8-5.2-.9-7.9-.8-2.7.1-5.4.4-7.9.4-2.5,0-5-.4-7-1.4-2-1-3.1-2.7-3.9-4.5-.7-1.8-1.3-3.7-2.4-5.4-2-3.4-5-6.1-8.5-7.7-3.5-1.6-7.5-2.1-11.1-1.7-3.6.4-6.8,1.7-9,3.3-2.3,1.6-3.7,3.5-4.5,5-.8,1.6-1.1,2.9-1.1,3.8,0,.9,0,1.3,0,1.3.2,0-.2-1.9,1.5-5,.9-1.5,2.3-3.3,4.5-4.8,2.2-1.5,5.2-2.7,8.7-3.1,3.4-.3,7.2.2,10.6,1.8,3.4,1.6,6.2,4.2,8.1,7.5,1,1.6,1.5,3.5,2.3,5.4.7,1.9,2,3.8,4.2,4.9,2.2,1.1,4.8,1.4,7.5,1.5,2.7,0,5.3-.3,8-.4,2.6-.1,5.2,0,7.5.7,2.3.7,4.1,2,5.6,3.5,2.8,3.1,3.8,7.2,2.8,11-.4,1.9-1,3.8-.9,5.7,0,1.9,1,3.7,2.6,4.8,3.2,2.2,7.3,2.4,10.4,3.3,3.2.8,5.5,2.6,6.7,4.5,1.3,1.9,1.7,3.9,1.8,5.4,0,3.2-1.3,5-1.1,5"/>
      <path class="st10" d="M1098.8,294s.2-.3,0-1c0-.6-.4-1.6-1.4-2.4-1-.8-2.5-1.6-4.6-1.8-2.1-.2-4.5.4-6.9,1.4-2.4,1-4.9,2.4-7.6,3.5-2.7,1.1-6,1.9-8.9.9-2.9-1-4.8-3.4-6.7-5.8-1.9-2.5-4.3-4.9-7.3-6.8-6-3.8-13.3-5.7-20.2-5.3-3.4.2-6.8,1-9.5,2.4-2.7,1.4-4.9,3.3-6.2,5.3-1.3,2-1.7,4.1-1.5,5.8.2,1.7.9,3.1,1.7,4,.8,1,1.7,1.5,2.3,1.8.6.3,1,.4,1,.4.1-.1-1.5-.5-3-2.4-.7-.9-1.3-2.3-1.5-3.9-.2-1.6.3-3.6,1.6-5.5,1.3-1.9,3.3-3.7,6-5,2.6-1.3,5.8-2.1,9.1-2.2,6.6-.3,13.8,1.5,19.6,5.2,2.9,1.9,5.2,4.1,7.1,6.6,1.9,2.4,3.9,5,7.1,6.1,1.6.6,3.4.6,5.1.3,1.7-.3,3.2-.8,4.6-1.4,2.9-1.2,5.2-2.6,7.6-3.6,2.3-1,4.6-1.6,6.5-1.5,1.9.1,3.5.8,4.4,1.5,1,.8,1.3,1.6,1.5,2.2.1.6,0,.9.1.9"/>
    </g>
  </g>
</svg>