<?xml version="1.0" encoding="UTF-8"?>
<svg id="Ebene_1" xmlns="http://www.w3.org/2000/svg" xmlns:xlink="http://www.w3.org/1999/xlink" version="1.1" viewBox="0 0 1800 900">
  <!-- Generator: Adobe Illustrator 29.2.1, SVG Export Plug-In . SVG Version: 2.1.0 Build 116)  -->
  <defs>
    <style>
      .st0 {
        fill: none;
      }

      .st1 {
        fill: #c6d5f9;
      }

      .st1, .st2 {
        isolation: isolate;
      }

      .st2 {
        fill: #e5e5da;
      }

      .st3 {
        fill: #b68575;
      }

      .st4 {
        fill: #8a1b1c;
      }

      .st5 {
        fill: #aa664e;
      }

      .st6 {
        fill: #f3b8bb;
      }

      .st7 {
        fill: #dedede;
      }

      .st8 {
        fill: #7d5242;
      }

      .st9 {
        fill: #b0b0b0;
      }

      .st10 {
        fill: #dececa;
      }

      .st11 {
        fill: #fff;
      }

      .st12 {
        fill: #fdbd9c;
      }

      .st13 {
        fill: #926654;
      }

      .st14 {
        fill: #e0e0d3;
      }

      .st15 {
        fill: #455963;
      }

      .st16 {
        fill: #f8f8f8;
      }

      .st17 {
        fill: #f4f4ed;
      }

      .st18 {
        fill: #f73333;
      }

      .st19 {
        fill: #263338;
      }

      .st20 {
        fill: #f8e1e3;
      }

      .st21 {
        fill: #a13840;
      }

      .st22 {
        fill: #501c1c;
      }

      .st23 {
        fill: #dbdbd1;
      }

      .st24 {
        fill: #e9e9dc;
      }

      .st25 {
        fill: #e9976e;
      }

      .st26 {
        clip-path: url(#clippath);
      }

      .st27 {
        fill: #a6abae;
      }
    </style>
    <clipPath id="clippath">
      <rect class="st0" y="0" width="1800" height="900"/>
    </clipPath>
  </defs>
  <rect class="st17" y="0" width="1800" height="900"/>
  <path class="st2" d="M1795.9,308.3v-72.8h-44.4c-2.1-6.6-4.7-12.9-7.9-18.9l31.4-31.4-51.5-51.4-31.4,31.4c-6-3.1-12.3-5.8-18.9-7.9v-44.4h-72.8v44.4c-6.6,2.1-12.9,4.7-18.9,7.9l-31.4-31.4-51.5,51.4,31.4,31.4c-3.1,6-5.8,12.3-7.9,18.9h-44.4v72.8h44.4c2.1,6.6,4.7,12.9,7.9,18.9l-31.4,31.4,51.5,51.4,31.4-31.4c6,3.1,12.3,5.8,18.9,7.9v44.4h72.8v-44.4c6.6-2.1,12.9-4.7,18.9-7.9l31.4,31.4,51.5-51.4-31.4-31.4c3.1-6,5.8-12.3,7.9-18.9h44.4ZM1636.9,336.7c-35.7,0-64.8-29-64.8-64.7h0c0-35.7,29.1-64.8,64.8-64.8s64.8,29.1,64.8,64.8-29.1,64.7-64.8,64.7Z"/>
  <path class="st2" d="M1617.4,543.4v-32.8h-20c-.9-3-2.1-5.8-3.5-8.5l14.2-14.2-23.2-23.2-14.2,14.2c-2.7-1.4-5.6-2.6-8.5-3.5v-20h-32.8v20c-3,.9-5.8,2.1-8.5,3.5l-14.2-14.2-23.2,23.2,14.2,14.2c-1.4,2.7-2.6,5.6-3.5,8.5h-20v32.8h20c.9,3,2.1,5.8,3.5,8.5l-14.2,14.2,23.2,23.2,14.2-14.2c2.7,1.4,5.6,2.6,8.5,3.5v20h32.8v-20c3-.9,5.8-2.1,8.5-3.5l14.2,14.2,23.2-23.2-14.2-14.2c1.4-2.7,2.6-5.6,3.5-8.5h20ZM1545.7,556.2c-16.1,0-29.2-13.1-29.2-29.2h0c0-16.1,13.1-29.2,29.2-29.2s29.2,13.1,29.2,29.2-13.1,29.2-29.2,29.2Z"/>
  <g class="st26">
    <g>
      <g>
        <g>
          <path class="st3" d="M591,339.8l68.4-79.1,9.7-14s23.7-30.1,25.6-33.3c2.2-3.7,4.5-3.5,5.7-2.5,2,1.5,1.9,5,0,8.2-.6,1.1-11.2,18.3-11.2,18.3,0,0,1.6-.9,6.1-2.6,4.4-1.7,11.4.2,17.2,4.2,5.9,4,7.2,5.7,5.8,8.1-.6,1-1.6,1.4-2.6,1.6-1.7.3-4.2-.5-5.6-1.4-11.6-7.1-14.4-2.4-14.4-2.4l-1.6,1.8s8.7-.5,12.2,4.2c.6.8.9,1.6,1.1,2.4,2.5,1.6,4.2,4.7,4.1,7.8,0,3.2-1.8,6.3-4.6,7.9-1.3.7-3.1,1.1-4.2,0-.6-.6-.8-1.4-1.1-2.1-.1-.4-.3-.8-.5-1.2l-4.3,4.6s-10.1,9.8-14,14.6l-60.4,77.7c-7.8,11.7-19.7,21.4-31,13.1-12.2-9-11.2-24.7-.8-35.9"/>
          <path class="st5" d="M670.3,248c0,0,.8-.1,2.3-.1s3.6,0,6.3.1c2.8,0,5.9.2,9.3.3.9,0,1.8,0,2.7.1.8.1,2-.1,3.1.9.5.6.5,1.5.2,2.1-.3.6-.7,1-1.2,1.3-.9.6-1.8,1.1-2.8,1.5-3.9,1.5-7.9,1.6-11.2,2.4-1.7.4-3.2.9-4.5,1.7-1.3.8-2.4,1.7-3.5,2.5-2.2,1.7-4.6,2.2-6.1,1.7-1.5-.4-2-1.3-1.9-1.3,0-.1.6.6,2,.9,1.4.3,3.5-.3,5.5-2,1-.8,2.1-1.8,3.5-2.7,1.4-.9,3-1.5,4.7-1.9,3.5-.9,7.4-1,11-2.4.9-.3,1.8-.8,2.5-1.3.7-.5,1.1-1.3.8-1.6-.3-.4-1.3-.5-2.2-.5-.9,0-1.8-.1-2.7-.2-3.4-.2-6.5-.4-9.3-.6-2.6-.2-4.8-.4-6.2-.5-1.5-.2-2.3-.3-2.3-.4"/>
          <path class="st5" d="M694.3,246.7c.1.1.8-1.6,3.1-2.6,1.1-.5,2.6-.7,4.2-.3,1.6.4,3.3,1.2,4.9,2.2,1.7,1,3.3,2,5,2.6,1.7.6,3.3.7,4.6.4,1.4-.3,2.2-1.3,2.5-2,.3-.7.3-1.1.3-1.1,0,0-.2.4-.5,1-.4.6-1.1,1.3-2.3,1.5-1.2.2-2.7,0-4.3-.6-1.6-.6-3.1-1.6-4.8-2.6-1.7-1-3.4-1.9-5.2-2.2-1.7-.4-3.4-.1-4.6.5-1.2.6-2,1.5-2.4,2.1-.4.6-.5,1-.5,1.1"/>
          <path class="st5" d="M701.2,217.8c0,0-.9,1.3-2.1,3.4-1.4,2.4-3.1,5.2-4.9,8.3-1.9,3.1-3.6,5.9-5,8.2-1.3,2.1-2.1,3.4-2,3.5,0,0,1-1.1,2.5-3.2,1.4-2,3.3-4.9,5.2-8.1,1.9-3.2,3.6-6.2,4.7-8.5,1.1-2.2,1.7-3.6,1.6-3.7"/>
          <path class="st5" d="M695.7,253c0,0,.4.1,1.2.2.7.1,2,.4,2.7,1.5.3.6.3,1.3,0,2-.3.7-.9,1.4-1.5,2.1-.6.7-1.3,1.7-1.2,3,0,1.2.7,2.3,1.7,3,1,.7,2.3.8,3.3.5,1.1-.3,2-.8,2.7-1.6,1.3-1.5,2-3.1,2.6-4.5.6-1.4.8-2.6.9-3.4,0-.8-.1-1.3-.2-1.3,0,0,0,.5-.1,1.2-.1.8-.5,1.9-1.1,3.2-.6,1.3-1.4,2.8-2.6,4.2-1.1,1.2-3.4,2-5.1.9-.8-.5-1.4-1.5-1.4-2.4,0-.9.5-1.7,1-2.5.6-.7,1.2-1.5,1.5-2.3.4-.8.3-1.9-.1-2.6-.9-1.4-2.3-1.5-3.1-1.5-.8,0-1.2,0-1.2,0"/>
          <path class="st5" d="M702,264.6s-.3.3-.5,1c-.1.7,0,2,.9,3,.9,1,2.6,1.6,4.4,1.2,1.7-.4,3.3-1.8,4.4-3.5,1.1-1.8,1.5-3.8,1.3-5.5-.1-1.8-.8-3.3-1.5-4.4-.7-1.1-1.5-1.8-2.1-2.2-.6-.4-1-.5-1-.5,0,.1,1.4.9,2.7,3,.6,1.1,1.2,2.5,1.3,4.1,0,1.6-.3,3.5-1.3,5.1-1,1.6-2.4,2.8-3.9,3.2-1.5.4-3,0-3.8-.9-.8-.8-1-1.9-1-2.6,0-.7.3-1,.2-1.1"/>
          <path class="st5" d="M683.5,268.8c0,0-.5-.6-1.6-1-1.1-.4-2.9-.7-4.8,0l.5.5c.4-.8.7-1.6,1-2.5,1.7-5.1,1.1-9.5.9-9.4-.2,0,0,4.3-1.6,9.2-.3.9-.6,1.7-1,2.5l-.4.8.8-.3c1.7-.6,3.3-.5,4.4-.2,1.1.3,1.7.6,1.8.5"/>
          <path class="st5" d="M701.5,239.6c-.2,0-.3,1.6.8,3.2,1.1,1.6,2.6,2.1,2.7,1.9,0-.2-1.1-.9-2-2.3-1-1.4-1.2-2.8-1.4-2.8"/>
        </g>
        <path class="st1" d="M1205.2,457.1v-134.7h-82.2c-3.9-12.1-8.8-23.8-14.6-34.9l58.2-58.2-95.3-95.2-58.2,58.2c-11.1-5.8-22.8-10.7-34.9-14.6v-82.2h-134.7v82.2c-12.1,3.9-23.8,8.8-34.9,14.6l-58.2-58.2-95.3,95.2,58.2,58.2c-5.8,11.1-10.7,22.8-14.6,34.9h-82.2v134.7h82.2c3.9,12.1,8.8,23.8,14.6,34.9l-58.2,58.2,95.3,95.2,58.2-58.2c11.1,5.8,22.8,10.7,34.9,14.6v82.2h134.7v-82.2c12.1-3.9,23.8-8.8,34.9-14.6l58.2,58.2,95.3-95.2-58.2-58.2c5.8-11.1,10.7-22.8,14.6-34.9h82.2ZM910.9,509.6c-66.1,0-119.9-53.7-119.9-119.8h0c0-66.1,53.8-119.8,119.9-119.8s119.9,53.8,119.9,119.8-53.8,119.8-119.9,119.8Z"/>
        <g>
          <path class="st19" d="M1339.7,244.1c-15.2-6.7-32.9,2.9-39.7,13.4-6.8,10.6-9.7,23.3-11.7,35.8-4,25.7-4.6,52-1.9,77.9.8,7.6,2.3,15.9,8,20.9,5.4,4.7,13.3,5.1,20.4,3.9,6.3-1.1,12.8-3.6,16.9-8.7,6.3-7.8,5.5-19.1,4.8-29.2-2.3-34.8,1.3-70,10.6-103.5"/>
          <path class="st19" d="M1306.6,258.2c7-14.2,28.1-21.8,45.3-17.1,14.5,4,29.9,19.1,30.9,34.7,1.5,22.6-10.4,45.7-3.4,67.1,8.2,25,38.6,37.1,46.3,62.2,3.2,10.3,1.9,21.9-3.3,31.2-2.7,4.8-6.9,9.3-12.3,10.2-6.7,1.1-12.9-3.5-18.2-7.9-14.3-11.8-28.9-23.8-38.9-39.6-11.8-18.6-16.3-41.2-16.5-63.3-.2-22.1,3.7-44.1,7.5-65.9"/>
          <path class="st13" d="M1367,285.6c2.3-18.6-10.9-35.6-29.3-37.4-17.4-1.7-32.9,11.5-35.5,29.2-2.3,15.5-4.3,31.1-4.2,36.8.2,17.1,10,23.8,14,25.8.9.5,3.4,1,4.4,1.1h0c0,.1-3.7,19.8-3.7,19.8-1.7,12.9,5.3,24.4,17.9,26.2,12.6,1.9,22.5-8,24.4-20.9l11.9-80.7Z"/>
          <path class="st19" d="M1306.1,286c-.3,1.4.7,2.8,2.2,3.1,1.4.3,2.8-.6,3.1-2,.3-1.4-.7-2.8-2.2-3.1-1.4-.3-2.8.6-3.1,2"/>
          <path class="st19" d="M1306.1,282.1c.3.4,2.5-.8,5.3-.4,2.8.4,4.7,2.2,5.1,1.9.2-.1,0-.8-.9-1.6-.8-.8-2.2-1.7-4-1.9s-3.3.2-4.3.7c-1,.6-1.4,1.1-1.2,1.3"/>
          <path class="st19" d="M1332.9,290.4c-.3,1.4.7,2.8,2.2,3.1,1.4.3,2.8-.6,3.1-2,.3-1.4-.7-2.8-2.1-3.1-1.4-.3-2.8.6-3.1,2"/>
          <path class="st19" d="M1333.9,286.8c.3.4,2.5-.8,5.3-.4,2.8.4,4.7,2.2,5.1,1.9.2-.1,0-.8-.9-1.6-.8-.8-2.2-1.7-4-1.9-1.8-.3-3.3.2-4.3.7-1,.6-1.4,1.1-1.2,1.3"/>
          <path class="st19" d="M1320.5,306.8c0-.2-1.7-.7-4.5-1.5-.7-.2-1.4-.4-1.4-1,0-.6.3-1.3.8-2.1.9-1.7,1.9-3.5,2.9-5.3,4.1-7.6,7.2-13.9,6.9-14-.3-.2-3.9,5.8-8,13.4-1,1.9-2,3.7-2.9,5.4-.4.8-1,1.7-.8,2.8.1.6.6,1.1,1,1.3.4.2.9.3,1.2.4,2.9.6,4.6.9,4.7.7"/>
          <path class="st8" d="M1316.6,341.2s10.8,2.6,25.7-3.8c0,0-6.4,14.1-26.7,9.1l1-5.3Z"/>
          <path class="st8" d="M1320.7,313.9c1.2-1.2,3.1-1.7,4.9-1.3,1.2.3,2.4,1.1,3,2.2.6,1.1.6,2.6-.3,3.5-.9,1-2.6,1-3.9.4-1.3-.6-2.3-1.7-3.3-2.8-.3-.3-.5-.6-.7-1-.1-.4-.1-.8.2-1.1"/>
          <path class="st19" d="M1328.6,310c-.5,0-.9,3-3.9,4.9-2.9,1.8-6.2,1-6.3,1.4,0,.2.6.7,2,1,1.4.3,3.4.1,5.2-1,1.8-1.1,2.8-2.9,3-4.1.3-1.3,0-2.1-.1-2.1"/>
          <path class="st19" d="M1333.3,281.5c.2.8,3.1.9,6.3,1.8,3.3.8,5.8,2.2,6.4,1.6.2-.3-.1-1.1-1.1-2-1-.9-2.6-1.9-4.5-2.4-2-.5-3.8-.5-5.1-.1-1.3.3-2,.8-1.9,1.2"/>
          <path class="st19" d="M1308,276.3c.4.7,2.5.3,4.8.7,2.4.2,4.3,1.1,4.8.5.2-.3,0-1-.8-1.8-.8-.7-2.1-1.5-3.7-1.7-1.6-.2-3.1.2-4,.8-.9.6-1.3,1.2-1.1,1.5"/>
          <path class="st19" d="M1315.2,250.3c1.8,13,11.6,24.6,23.9,28.3-.3-1.6-.6-3.2-1-4.9,5.4,11,15.1,19.8,26.4,24,7.8-13.6,4.9-32.6-6.6-43-11.5-10.4-30.4-11.1-42.6-1.5"/>
          <path class="st19" d="M1423.7,418.3c-.1-.1,1.6-1.6,3.3-5.2,1.7-3.5,3-9.4,1.7-16.4-.6-3.5-2-7.1-4.1-10.8-2.1-3.6-4.8-7.1-8-10.5-6.4-6.9-14.8-12.9-22.4-20.7-3.8-3.9-7.1-8.3-9.2-13-2.2-4.8-3.3-9.7-3.9-14.4-1.2-9.5-.6-18.1-.1-25.3.5-7.2,1.1-13,1.5-17,.2-1.9.3-3.4.4-4.6.1-1.1.2-1.6.2-1.6,0,0,0,.6,0,1.6,0,1.2-.1,2.7-.2,4.6-.3,4.1-.6,9.9-1.1,17-.4,7.1-.9,15.7.3,25.1.7,4.7,1.8,9.5,3.9,14.1,2.1,4.6,5.2,8.9,9,12.7,7.5,7.7,15.9,13.8,22.3,20.8,3.2,3.5,6,7.1,8.1,10.8,2.1,3.7,3.5,7.5,4.1,11.1,1.3,7.2-.2,13.2-2.1,16.8-.9,1.8-1.9,3.1-2.5,3.9-.7.8-1.1,1.2-1.1,1.1"/>
          <path class="st18" d="M1440,949.7l10,50.3,19.2,37.4c1.4,2.7.2,6-2.5,7.3-1.5.7-3.3.6-4.7-.3-9.1-5.6-42.5-26.3-43-30-.6-4.3-14-52.3-14-52.3l35.1-12.3Z"/>
          <path class="st11" d="M1418.2,1011l.5,2.1c0,.2.1.4.2.6-.1-.6-.3-1.6-.6-2.7M1419.6,1015.5c.3.4.5.8.9,1.2h.3c-.5-.4-.9-.8-1.2-1.2M1421.6,1017.4h-.4c.1.1.3.2.4.3,3.9,3,15,11.1,40.3,26.7.8.5,1.7.8,2.7.8s1.5-.2,2.2-.5c-.7.3-1.4.4-2.1.4s-1.8-.2-2.6-.7c-7.6-4.7-32.3-20-40.4-27"/>
          <path class="st27" d="M1420.5,1016.7c.2.2.4.5.7.7h.4c-.3-.2-.5-.5-.8-.7h-.3"/>
          <path class="st6" d="M1418.2,1011h0c.3,1.2.5,2.1.6,2.7.2.6.5,1.2.8,1.8.3.3.7.7,1.2,1.2.2.2.5.4.8.7,8.1,7,32.8,22.3,40.5,27,.8.5,1.7.7,2.6.7s1.4-.2,2.1-.4l-48.5-33.7Z"/>
          <path class="st6" d="M1423.7,992.3c-1.1,0-2.4.8-2.9,1.8-.7,1.4.4,3.5,1.8,4.1.3.1.6.2.9.2,1.2,0,2.4-.8,2.8-2,.5-1.4-.2-3-1.5-3.7-.3-.2-.8-.3-1.2-.3"/>
          <path class="st19" d="M1450.6,1025.5c.3,0,.8-2.8,3.4-4.9,2.5-2.2,5.4-2.1,5.4-2.4,0-.1-.7-.4-1.9-.3-1.2,0-2.8.6-4.2,1.8-1.4,1.2-2.3,2.7-2.6,3.8-.3,1.2-.3,1.9-.1,1.9"/>
          <path class="st19" d="M1455.6,1031.4c.3.2,1.5-1.8,3.9-3.2,2.3-1.4,4.6-1.4,4.6-1.7,0-.3-2.5-.8-5.2.8-2.7,1.5-3.6,4.1-3.3,4.1"/>
          <path class="st19" d="M1442.2,1018.4c.3.2,2.1-2.9,5.6-5.3,3.5-2.5,6.9-3.1,6.9-3.4,0-.3-3.8-.1-7.5,2.5-3.7,2.6-5.3,6.1-5,6.2"/>
          <path class="st19" d="M1437.9,1003.4c.2.3,2.6-1.5,6.1-2.5,3.5-1,6.5-.7,6.5-1.1,0-.3-3.1-1.1-6.8,0-3.7,1-6.1,3.4-5.8,3.6"/>
          <path class="st19" d="M1434.6,988.7c.2.3,2.6-2,6.3-2.7,3.7-.8,6.8.5,6.9.2,0-.1-.6-.6-1.9-1-1.3-.4-3.2-.6-5.2-.2-2,.4-3.7,1.3-4.7,2.2-1,.9-1.5,1.6-1.4,1.7"/>
          <path class="st19" d="M1440.2,983.2c0,0,0-.7-.4-1.9-.4-1.2-1.1-2.9-2.6-4.6-.7-.8-1.6-1.9-3.1-2.2-.8-.2-1.7.2-2.2,1-.4.8-.4,1.6-.3,2.4.8,3.2,4.1,5.6,7.7,5.3,3.6-.4,6.3-3.2,7.1-6.3.1-.8.2-1.7-.4-2.5-.6-.8-1.6-.9-2.3-.6-1.4.6-2.1,1.6-2.8,2.5-1.4,1.8-2.1,3.5-2.5,4.7-.4,1.2-.4,1.9-.4,1.9.2,0,.7-2.7,3.4-6.1.7-.8,1.5-1.7,2.5-2.1.5-.2,1,0,1.3.3.3.4.3,1,.2,1.6-.7,2.5-3.2,5.1-6.2,5.4-3,.3-6-1.8-6.6-4.4-.1-.6-.1-1.3.1-1.7.2-.4.7-.6,1.2-.6,1,.2,1.9,1.1,2.6,1.8,2.9,3.2,3.3,6.1,3.5,6"/>
          <path class="st18" d="M1307.1,955l2.3,40.9s-39.9,16.1-40.1,23.7l77.7-1.8-1.1-63.8-38.8,1Z"/>
          <path class="st6" d="M1332.7,991.8c-1.2,0-2.6,1-3,2.2-.5,1.5.9,3.5,2.4,3.9.2,0,.4,0,.6,0,1.3,0,2.7-1,2.9-2.4.3-1.5-.6-3-2-3.6-.3-.1-.6-.2-.9-.2"/>
          <path class="st11" d="M1270.1,1017.6h-.3c-.4.6-.6,1.3-.5,2,0-.6.3-1.3.8-2"/>
          <path class="st27" d="M1270.5,1017h-.4c-.1.2-.3.3-.4.5h.3c.1-.2.3-.3.4-.5"/>
          <path class="st6" d="M1346.6,1011.4l-49.3,2.7v1.8c.1,0,.1,0,.1,0l-26.9,1.1c-.1.2-.3.4-.4.5-.5.7-.8,1.4-.8,2l77.7-1.8-.4-6.4Z"/>
          <path class="st19" d="M1308.1,995.5c0,.4,1.9.5,3.8,1.7,1.9,1.2,2.9,2.8,3.3,2.7.3,0-.3-2.4-2.6-3.8-2.3-1.4-4.6-.9-4.5-.6"/>
          <path class="st19" d="M1300.1,999.1c0,.4,1.6,1,2.9,2.6,1.4,1.6,1.7,3.3,2.1,3.3.4,0,.6-2.2-1.1-4.2-1.7-2-3.9-2.1-3.9-1.7"/>
          <path class="st19" d="M1295.7,1009.2c.3,0,.8-1.9-.2-4-1-2.1-2.8-2.9-3-2.6-.2.3,1,1.4,1.8,3.2.9,1.7,1,3.3,1.4,3.4"/>
          <path class="st19" d="M1308.6,986.1c.2.3,1.9-.2,4-.1,2.1,0,3.8.8,4,.4.2-.3-1.4-1.7-4-1.8-2.5-.1-4.3,1.2-4.1,1.5"/>
          <path class="st9" d="M1346,962.6h0v6.6c.1,0,0-6.6,0-6.6ZM1308,970.2h0c0,.1,0,0,0,0Z"/>
          <polygon class="st21" points="1346 962.6 1307.6 963.1 1308 970.2 1308 970.4 1346.1 969.2 1346 962.6"/>
          <path class="st19" d="M1308.3,977.9c0,.2,1.5.4,3.9-.1,1.2-.2,2.6-.7,4-1.4.7-.4,1.5-.8,2.2-1.3.4-.2.8-.5,1.2-1,.4-.4.6-1.4.1-2.1-.4-.6-1.1-.8-1.7-.8-.6,0-1,.1-1.5.2-.9.2-1.7.5-2.4.9-1.5.7-2.7,1.6-3.5,2.5-1.8,1.7-2.3,3.2-2.2,3.3.2.1,1-1.1,2.8-2.6.9-.7,2.1-1.5,3.4-2.1.7-.3,1.4-.6,2.2-.8.8-.2,1.5-.3,1.7.1,0,.1,0,.2,0,.4-.2.2-.5.5-.9.7-.7.5-1.4.9-2,1.2-1.3.7-2.6,1.2-3.7,1.6-2.2.7-3.7.8-3.7,1"/>
          <path class="st19" d="M1308.8,978.4c.1,0,.9-1.3.9-3.9,0-1.2-.1-2.8-.6-4.3-.3-.8-.6-1.6-1-2.4-.5-.8-1.1-1.8-2.5-2-.8,0-1.4.6-1.6,1.1-.2.5-.3,1-.4,1.5-.1.9,0,1.8,0,2.7.3,1.7,1,3.1,1.8,4.1,1.6,2,3.2,2.4,3.2,2.3.1-.2-1.2-.9-2.4-2.9-.6-1-1.1-2.2-1.3-3.7,0-.7,0-1.5,0-2.3.1-.8.4-1.5.7-1.5.4,0,1.1.6,1.4,1.3.4.7.7,1.4,1,2.1.5,1.4.8,2.8.8,3.9.2,2.3-.2,3.8,0,3.8"/>
          <path class="st19" d="M1367.5,517.9s22.8,50.7,26.3,65.5c3.4,14.8,67.2,405.4,67.2,405.4l-58.6,3.6-79.6-382.1,32,379.3-57.6,4.9s-43.6-400.9-41.7-412.2c2.8-17.1,16.9-66.2,16.9-66.2l95.1,1.8Z"/>
          <path class="st15" d="M1322.3,607.8s0,.3-.5.7c-.4.3-1.4.5-2.3-.2-.9-.7-1.2-2-1.4-3.4-.2-1.4-.5-3-.8-4.7-1.1-6.9-2.6-16.5-4.1-27-1.5-10.6-2.9-20.1-3.8-27.1-.4-3.3-.8-6.1-1-8.2-.2-1.9-.3-3-.2-3s.3,1,.6,3c.4,2.1.8,4.9,1.4,8.2,1.1,6.9,2.6,16.5,4.1,27,1.5,10.6,2.9,20.1,3.8,27.1.2,1.7.4,3.3.6,4.7.1,1.4.4,2.5,1.1,3.1.6.6,1.5.5,1.9.4.4-.2.5-.5.6-.5"/>
          <path class="st15" d="M1316.3,542.5s0-.3.6-.7c.5-.3,1.3-.6,2.3-.4,1,.2,2.2,1.1,2.5,2.6.2,1.4-.4,3.2-1.9,4-1.6.8-3.3.2-4.3-.7-1.1-1-1.2-2.5-1-3.4.5-2.1,1.9-2.6,1.9-2.4.1.1-1,.8-1.2,2.6,0,.8.1,1.9.9,2.6.8.7,2.1,1,3.1.5,1-.5,1.5-1.8,1.4-2.8-.1-1-.9-1.7-1.7-2-1.6-.5-2.6.4-2.7.2"/>
          <path class="st13" d="M1215.5,294.1l-35.9-56.6-10.9-18.6s-3.2-18.7-4.8-24c-3.2-10.8-4.2-10.5-5.3-9.9-3.1,1.6,4.9,19.3,1,16.5-3.9-2.8-7.4-22.8-10.6-21-4.2,2.4,4.6,20.7,5.2,22.3.6,1.6-1.6,2.6-2.1,1.1-.7-2.1-8.7-24.3-12.8-22-2.3,1.3.3,5.3.3,5.3,0,0,9,20.2,7,21.2-2,1-7.7-10.7-9.3-14.7-1.6-4-4.2-4.9-5.3-2.7-.8,1.5,3.9,14.1,5.7,18.1,1.7,4,6.6,14.9,0,11.5-6.7-3.4-13-3.4-14.8-2.1-1.7,1.2-.7,4.1,1.6,4.2,1.9,0,4.9,1.1,7.2,2,1.9.7,3.6,1.8,5.2,3.1,1.8,1.6,3.2,3,4.4,4.2l8.9,18.9,39.4,79,82.5,69.8,20.8-38.3-77.2-67.2Z"/>
          <path class="st13" d="M1428.5,610.5c.5,1.7,1.1,3.6,1.6,6,.5,2,.6,4.1.4,6.1-.3,2.5-.7,5.8-1.6,7.5-1,2.1,1,4.4,2.9,3.4,1.9-1,4.8-6.8,4.9-14.4.1-7.6,7.4,1.8,10,5.2,2.7,3.4,11.5,13.4,13.2,13.4,2.5,0,2.9-2.7.1-6-2.8-3.4-10.4-13.8-8.5-15.2,1.8-1.3,15.2,16.1,15.2,16.1,0,0,2.3,4.2,4.4,2.7,3.9-2.7-11.8-20.1-13.3-21.8-1.1-1.1.9-2.7,1.9-1.4,1.1,1.3,13,17.7,17,15,3-2.1-12.7-14.5-13.4-19.3-.6-4.8,11,10.6,13.9,8.5,1.1-.8,1.7-1.5-6.2-9.4-3.9-3.8-18.6-15.3-18.6-15.3l-31.3-105.2-38.9.6,46.3,123.6Z"/>
          <path class="st18" d="M1308.2,361.1h0s-12.7-5-18.6-8.5l-61.7-47.8-27.5,37.6s70.4,64.9,71.6,64.6c1.2-.3,36.2-45.9,36.2-45.9"/>
          <path class="st18" d="M1312.8,360.9l-4.7.2c-13.5.5-25.3,9.4-29.5,22.5-4.7,14.5-4.4,19.2-7.7,30-7.8,25.8,6.2,57.1,6.2,57.1l-4.8,45.4,95.1,1.8,4.8-54.7,17.8-81.9s-4-17.6-19-19c-7.9-.7-58.2-1.3-58.2-1.3"/>
          <path class="st18" d="M1373.8,363.7s22.5-.1,29.4,26.4c6.9,26.5,20.5,96.4,20.5,96.4l-42.7,13.1-22.9-95.9c-1.6-5.4-2.3-11.1-1.9-16.8.7-9.6,4.2-22,17.6-23.3"/>
          <polygon class="st18" points="1306.1 362.3 1313.6 347.6 1326.3 354.9 1326.3 361.3 1330.3 354.9 1360.3 347.6 1360.3 365.7 1325.3 369.6 1306.1 362.3"/>
          <path class="st19" d="M1282.6,384.6c0,0-.5,1.2-1.6,3.1-.6,1-1.2,2.2-1.9,3.6-.7,1.4-1.5,3-2.2,4.9-.8,1.8-1.6,3.9-2.3,6.1-.8,2.2-1.4,4.6-2.1,7.2-1.2,5.1-2.2,10.9-2.7,17-.4,6.1,0,11.9.5,17.2.4,2.6.7,5.1,1.2,7.4.4,2.3,1,4.4,1.5,6.4.5,2,1.1,3.6,1.6,5.2.5,1.5,1,2.8,1.4,3.8.8,2.1,1.2,3.3,1.2,3.3,0,0-.6-1.1-1.6-3.1-.5-1-1.1-2.3-1.6-3.8-.5-1.5-1.3-3.2-1.8-5.2-.6-1.9-1.2-4.1-1.7-6.4-.6-2.3-.9-4.8-1.3-7.5-.6-5.3-.9-11.2-.6-17.4.4-6.2,1.5-12,2.8-17.2.7-2.6,1.4-5,2.3-7.2.8-2.3,1.6-4.3,2.5-6.1.8-1.9,1.7-3.5,2.4-4.9.7-1.4,1.4-2.6,2-3.6,1.2-1.9,1.9-2.9,2-2.9"/>
          <path class="st19" d="M1324,353.8c.1,0-.3,1.7-1.1,4.4-.8,2.7-2,6.4-3.4,10.5-.2.6-.4,1.3-.7,1.9l-.2.6-.6-.4c-3.3-2-5.9-4.2-7.6-6-1.7-1.7-2.6-2.9-2.5-3,.2-.2,4.2,4.2,10.6,8l-.8.3c.2-.6.4-1.2.6-1.9,1.4-4.1,2.7-7.7,3.7-10.4,1-2.6,1.7-4.2,1.9-4.2"/>
          <path class="st19" d="M1348.6,367.3c0,.1-1.7.9-4.5,2-2.8,1.1-6.8,2.5-11.2,4.1l-.6.2v-.7c0,0-.2-.6-.2-.6-.7-4.8-1.3-9.2-1.6-12.4-.4-3.2-.5-5.2-.4-5.2.2,0,.6,1.9,1.1,5.1.6,3.2,1.2,7.5,1.9,12.4v.6c0,0-.6-.5-.6-.5,4.4-1.5,8.4-2.8,11.3-3.7,2.9-.9,4.7-1.4,4.8-1.2"/>
          <path class="st19" d="M1364.4,498.5c.2-.2,3.1,3,3.9,8.2.9,5.2-.9,9.2-1.2,9-.3,0,.9-4,0-8.8-.7-4.8-3.1-8.2-2.9-8.4"/>
          <path class="st16" d="M1420.1,471.1c0,.1-2.3.9-6.1,1.9-3.8,1-9.1,2.2-15,3.4-5.9,1.1-11.3,1.9-15.2,2.4-3.9.5-6.3.6-6.4.5,0-.2,2.4-.6,6.2-1.3,3.9-.7,9.2-1.6,15.1-2.7,5.9-1.1,11.2-2.2,15-3.1,3.8-.8,6.2-1.3,6.3-1.1"/>
          <path class="st16" d="M1415.2,444.6c0,.1-2.3,1.1-6.3,2.4-3.9,1.3-9.4,2.8-15.6,4.3-6.1,1.5-11.6,2.9-15.6,4-4,1.1-6.4,1.8-6.5,1.6,0-.1,2.3-1.1,6.3-2.4,3.9-1.3,9.4-2.8,15.6-4.3,6.1-1.5,11.6-2.9,15.6-4,4-1.1,6.4-1.8,6.5-1.6"/>
          <path class="st19" d="M1381,499.7c0,0-.3-.9-.8-2.5-.5-1.9-1-4.2-1.7-7-1.4-5.9-3.3-14.1-5.3-23.1-2-9.1-3.7-17.3-5-23.2-.5-2.8-1-5.2-1.4-7.1-.3-1.7-.4-2.6-.4-2.6,0,0,.3.9.8,2.5.5,1.9,1,4.2,1.7,7,1.4,5.9,3.3,14.1,5.3,23.2,2,9.1,3.7,17.3,5,23.2.5,2.8,1,5.2,1.4,7.1.3,1.7.4,2.6.4,2.6"/>
          <path class="st16" d="M1413,424.2c0,.3-31.9-.3-71.3-1.4-39.4-1.1-71.3-2.2-71.3-2.5,0-.3,31.9.3,71.3,1.4,39.4,1.1,71.3,2.2,71.2,2.5"/>
          <path class="st16" d="M1402,387.1s-.4.1-1.2.2c-.9,0-2.1.2-3.5.3-3.1.3-7.5.6-13.1.9-11,.7-26.3,1.4-43.1,1.9-16.9.5-32.1.6-43.2.5-5.5,0-10,0-13.1-.2-1.4,0-2.6,0-3.6-.1-.8,0-1.2,0-1.2-.1s.4,0,1.2-.1c.9,0,2.1,0,3.6,0,3.2,0,7.7-.1,13.1-.2,11-.1,26.3-.4,43.2-.8,16.8-.5,32.1-1.1,43.1-1.5,5.4-.2,9.8-.4,13.1-.5,1.4,0,2.6,0,3.6-.1.8,0,1.2,0,1.2,0"/>
          <path class="st16" d="M1249.5,388.8c-.2-.2,7-9.2,16.3-20,9.2-10.9,16.9-19.5,17.1-19.3.2.2-7,9.2-16.3,20-9.2,10.9-16.9,19.5-17.1,19.3"/>
          <path class="st16" d="M1369,464.8c0,.3-21.8-1.7-48.6-4.4-26.8-2.7-48.5-5.2-48.5-5.5,0-.3,21.8,1.7,48.6,4.4,26.8,2.7,48.5,5.2,48.5,5.5"/>
          <path class="st16" d="M1370,494.7c0,.3-21.1,0-47.1-.5-26-.6-47.1-1.3-47.1-1.7,0-.3,21.1,0,47.1.5,26,.6,47.1,1.3,47.1,1.7"/>
          <path class="st19" d="M1306.1,515.8s0-.6,0-1.6c0-1,0-2.6,0-4.6,0-4,.3-9.7.7-16.8.2-3.5.5-7.4,1-11.6.4-4.2,1-8.6,1.6-13.2,1.1-9.3,2.1-19.6,3.2-30.4,2-21.6,4.5-41.1,7.7-55,1.5-6.9,3.1-12.5,4.3-16.3.6-1.8,1.1-3.2,1.5-4.3.3-1,.5-1.5.6-1.5,0,0,0,.5-.4,1.6-.3,1.1-.7,2.6-1.3,4.4-1.1,3.8-2.5,9.4-4,16.3-3,13.9-5.4,33.3-7.4,54.9-1,10.8-2.1,21.1-3.3,30.4-.6,4.7-1.2,9.1-1.7,13.2-.5,4.1-.8,8-1.1,11.6-.6,7.1-.9,12.8-1.1,16.8-.1,1.9-.2,3.4-.2,4.6,0,1-.1,1.6-.1,1.6"/>
          <rect class="st16" x="1340.4" y="420.3" width="23" height="6.1"/>
          <polygon class="st6" points="1296.8 1009.7 1297.2 1014.1 1297.3 1014.1 1296.9 1009.6 1296.8 1009.7"/>
          <path class="st20" d="M1297.3,1014.1h0s.2,1.8.2,1.8v-1.8ZM1297.4,1015.9l-26.9,1.1,26.9-1.1Z"/>
        </g>
        <path class="st19" d="M1226.6,324c0,10.7,13.7,17.7,13.2,28.4-.2,4.6-3.1,8.6-3.8,13.2-.9,6.1,2.2,12,3.3,18.1,2.1,12.6-5.3,25.5-16,32-10.7,6.5-23.8,7.4-36,5.2"/>
        <path class="st19" d="M1142.9,318.5c.2,5.8-3.6,10.8-7.5,15-3.9,4.2-8.1,8.6-9.1,14.2-1.7,10.1,7.6,19.8,5.3,29.7-1.2,5.3-5.6,9.5-6.6,14.9-.9,5.2,1.7,10.4,4.9,14.5,3.3,4.1,7.2,3.7,10.1,8.1,3,4.6,7.9,9.5,12.6,12.3,10.6,6.4,23.8-1.9,29.1-3.3"/>
        <path class="st19" d="M1228.5,330.2c.3-5.2-4.3-9.4-8.9-11.5-4.7-2.1-9.9-3-14-6-3.6-2.7-6-6.8-9.1-10.2-7.5-8.3-19.4-12.1-30.2-9.4-10.7,2.6-19.8,11.5-22.8,22.4-2,7.4-1.1,16.2,4.5,21.3,6.4,5.9,16.3,5,24.8,3.5,8.5-1.5,18.1-2.9,25,2.4,4.2,3.2,6.4,8.3,8.9,13,2.5,4.7,5.6,9.6,10.4,11.5,4.9,1.9,11.6-.9,12-6.2"/>
        <path class="st12" d="M1209.3,328.3l-44.6-13.3c-14.4-2.1-24.5,15.8-26,30.7-1.6,16.5-2.8,36.7-1.4,49.1,3,24.9,21.4,28.8,21.4,28.8,0,0-.2,7.3-.5,16.1-.4,14.5,10.5,26.7,24.6,27.4,14.1.7,26.2-10.4,27.1-24.9l6.6-104.8c.2-4.5-2.9-8.5-7.3-9.1"/>
        <path class="st19" d="M1141.8,363.8c-.1,1.7,1.2,3.2,2.9,3.3,1.7.2,3.2-1.1,3.3-2.8.1-1.7-1.2-3.2-2.9-3.3-1.7-.2-3.2,1.1-3.3,2.8"/>
        <path class="st19" d="M1141.9,358.7c.4.4,2.8-1.3,6.1-1.1,3.3,0,5.7,1.9,6.1,1.5.2-.2-.2-.9-1.2-1.8-1-.8-2.8-1.7-4.9-1.7-2.1,0-3.8.7-4.9,1.4-1,.8-1.4,1.5-1.2,1.7"/>
        <path class="st19" d="M1174.2,364.7c-.1,1.7,1.2,3.2,2.9,3.3,1.7.2,3.2-1.1,3.3-2.8.1-1.7-1.2-3.2-2.9-3.3-1.7-.2-3.2,1.1-3.3,2.8"/>
        <path class="st19" d="M1174.5,360.5c.4.4,2.8-1.3,6.1-1.1,3.3,0,5.7,1.9,6.1,1.5.2-.2-.2-.9-1.2-1.8-1-.8-2.8-1.7-4.9-1.7-2.1,0-3.8.7-4.9,1.4-1,.8-1.4,1.5-1.2,1.7"/>
        <path class="st19" d="M1161.6,385.4c0-.2-2-.6-5.4-1.2-.8-.1-1.6-.3-1.8-.9-.2-.6.2-1.6.7-2.6.9-2.1,1.8-4.3,2.7-6.6,3.8-9.4,6.6-17.1,6.2-17.2-.4-.2-3.7,7.3-7.6,16.7-.9,2.3-1.8,4.5-2.6,6.6-.4,1-.9,2.1-.6,3.4.2.7.8,1.2,1.4,1.3.5.2,1,.2,1.4.3,3.4.3,5.5.4,5.5.2"/>
        <path class="st25" d="M1158.7,423.5s15.9,2,32.2-7.4c-.3,0-9.4,17-32.4,13.6l.2-6.2Z"/>
        <path class="st18" d="M1162.8,393.7c1.2-1.6,3.4-2.4,5.5-2.1,1.4.2,2.9,1,3.7,2.2.8,1.2,1,3,.1,4.1-.9,1.3-2.8,1.5-4.4,1-1.6-.5-2.9-1.6-4.2-2.8-.3-.3-.7-.6-.9-1-.2-.4-.2-.9,0-1.3"/>
        <path class="st19" d="M1171.3,388.2c-.5,0-.7,3.7-3.8,6.2-3.2,2.5-7,2-7.1,2.5,0,.2.8.8,2.5.9,1.6.1,3.9-.3,5.9-1.9,1.9-1.6,2.8-3.7,3-5.2.2-1.5-.2-2.5-.4-2.5"/>
        <path class="st19" d="M1173.2,354.4c.3.9,3.6.6,7.5,1.2,3.9.5,7,1.8,7.6,1,.2-.4-.3-1.3-1.5-2.2-1.2-.9-3.2-1.9-5.6-2.2-2.3-.3-4.5,0-5.9.5-1.5.5-2.2,1.2-2.1,1.7"/>
        <path class="st19" d="M1143.4,348.8c.6.8,2.9,0,5.6.1,2.8,0,5.1.7,5.6,0,.2-.4,0-1.2-1.1-2-1-.8-2.6-1.4-4.5-1.4-1.9,0-3.6.6-4.5,1.4-1,.8-1.3,1.6-1.1,1.9"/>
        <path class="st19" d="M1216.1,414c-6.7,1.2-7.2-2.3-12-7.2-4.8-4.9-7.1-12.2-6.1-19.1.9-6.1,4.3-12.2,2.5-18-2.5-7.7-12.8-10.4-15.3-18.1-1.5-4.5.1-9.6-1.5-14-1.6-4.1-5.7-6.6-9.7-8.3-4-1.6-8.3-2.8-11.6-5.7-3.3-2.8-5.3-8-3-11.8,17.9,2.8,35.5,7.8,52.3,14.9,3.9,1.6,8,3.6,10.2,7.3,2.3,3.9,2.1,8.8,1.7,13.4-1.7,22.2-3.4,44.5-5.1,66.7"/>
        <path class="st19" d="M1232.9,363.8c1-8.2,7.7-15.2,15.6-16.4,7.9-1.2,16.3,3.5,19.6,11,3.1,7.1,1.7,15.6-1.6,22.6-4,8.3-11.8,15.8-20.8,15.1-8.5-.7-15-8.6-17.2-17-2.2-8.4-.9-17.4.4-26"/>
        <path class="st15" d="M1236.5,398s.6-.4,1.3-1.4c.7-1,1.5-2.7,2-4.9.4-2.2.4-4.9,0-7.8-.4-2.9-1.3-6-1.9-9.3-.6-3.3-.8-6.4-.2-9.2.6-2.7,1.9-5.1,2.5-7.2.7-2.2.7-4.1.3-5.3-.3-1.2-.8-1.8-.9-1.7,0,0,.3.6.5,1.8.2,1.2.1,2.9-.6,5-.7,2-2.1,4.3-2.8,7.2-.7,2.9-.5,6.3.2,9.6.6,3.3,1.5,6.4,1.9,9.2.5,2.8.5,5.4.2,7.6-.6,4.3-2.7,6.3-2.5,6.4"/>
        <path class="st15" d="M1237.8,368.2c0,0,1,1.8,3.6,3.8,2.5,2,6.7,4.1,11.7,4.4,5,.3,9.4-1.4,12.1-3.2,2.8-1.7,4-3.4,3.9-3.5-.1-.1-1.6,1.3-4.3,2.8-2.7,1.5-6.9,3-11.7,2.8-4.7-.2-8.8-2.1-11.3-3.9-2.6-1.8-3.9-3.3-4-3.2"/>
        <path class="st15" d="M1238.9,372.1c-.1,0,.4,1.7,1.9,4,1.5,2.3,4,5.2,7.5,7.5,3.5,2.3,7,3.5,9.7,3.9,2.6.4,4.3.3,4.3.2,0-.2-1.6-.3-4.1-.9-2.5-.6-5.9-1.9-9.3-4.1-3.3-2.2-5.8-4.9-7.4-7-1.6-2.1-2.4-3.6-2.5-3.5"/>
        <path class="st15" d="M1231.7,406.1s.1,0,.3-.3c.2-.2.4-.5.7-1,.6-.9,1.3-2.3,1.7-4.3.4-2,.6-4.5-.2-7.3-.7-2.8-2.5-5.8-5.4-8-2.8-2.2-6.5-3.7-8.7-7.1-1.1-1.7-1.6-3.8-1.1-5.9.4-2.1,1.4-4.2,2.3-6.4,2-4.4,2.2-9.9.2-14.8-1-2.4-2.6-4.7-4.7-6.4-2.1-1.8-4.7-2.7-7.3-3.4-2.6-.7-5.2-1.1-7.6-2-2.4-.8-4.7-2-6.3-3.8-1.7-1.8-2.3-4.2-2.6-6.6-.3-2.4-.3-4.9-.9-7.3-1-4.7-3.2-8.9-6.1-12-2.9-3.1-6.6-4.9-10.1-5.6-3.5-.7-6.8-.1-9.4,1.1-2.6,1.2-4.4,3-5.5,4.6-1.2,1.6-1.7,3.1-2,4.2-.3,1-.3,1.6-.3,1.6.2,0,.3-2.3,2.6-5.5,1.2-1.5,3-3.2,5.5-4.3,2.5-1.2,5.6-1.6,9-.9,3.3.7,6.8,2.5,9.6,5.4,2.8,3,4.8,7,5.8,11.5.5,2.3.6,4.6.9,7.2.2,2.5,1,5.2,2.8,7.2,1.8,2,4.2,3.3,6.7,4.1,2.5.9,5.1,1.3,7.6,2,2.5.7,5,1.6,6.9,3.2,2,1.6,3.4,3.7,4.4,6,1.9,4.6,1.8,9.8,0,14-.9,2.2-1.9,4.3-2.3,6.6-.5,2.3,0,4.8,1.3,6.6,2.5,3.6,6.3,5.2,9,7.2,2.8,2,4.5,4.8,5.2,7.5.7,2.7.7,5.2.3,7.1-.8,3.9-2.4,5.6-2.3,5.6"/>
        <path class="st15" d="M1232.3,336.8s.2-.4.3-1.1c.1-.8,0-2-.7-3.3-.7-1.3-2-2.7-3.9-3.6-2-.8-4.4-.9-6.9-.5-2.5.4-5.2,1.4-8.1,1.8-2.8.5-6.2.4-8.7-1.7-2.5-2.1-3.7-5.6-4.9-9.1-1.2-3.6-2.9-7.2-5.2-10.4-4.7-6.5-11.2-11-17.9-12.8-3.3-.9-6.7-.9-9.6,0-3,.8-5.5,2.5-7.2,4.5-1.8,2-2.7,4.4-2.9,6.5-.2,2.1.1,4,.6,5.3.5,1.4,1.2,2.3,1.7,2.9.5.6.8.8.9.8.1,0-1.3-1.1-2.2-3.8-.4-1.3-.7-3.1-.4-5.1.3-2,1.1-4.2,2.8-6,1.7-1.9,4.1-3.4,6.9-4.1,2.8-.8,6-.7,9.2.2,6.3,1.7,12.7,6.2,17.3,12.4,2.3,3.1,3.9,6.6,5.1,10.1,1.2,3.5,2.4,7.2,5.2,9.5,1.4,1.2,3.1,1.8,4.7,2,1.6.2,3.2,0,4.7-.2,3-.5,5.6-1.5,8.1-2,2.4-.5,4.8-.5,6.6.3,1.8.7,3.1,2,3.8,3.2.7,1.2.9,2.3.8,3.1,0,.8-.2,1.1-.1,1.2"/>
        <path class="st4" d="M1158.3,453.6s-14.1,8.8-19.3,19.7c-5.2,10.9-32.4,84-32.4,84,0,0-17.7,49.7-16,50.5,7.4,3.4,25.5-39.2,33.6-40.5,15.4-2.4,8.8,22.4,14.1,7.4l21.3-30.1-3.7-89.4,2.4-1.6Z"/>
        <path class="st22" d="M1139.1,496.3c-15.7,23.5-18.3,34.5-20,63-.6,9.4,0,19.6,5.5,27.2,1.5,2-6.3,0-4.1,0s5.2-4.2,5.9-4.8c2.5-2.2,5.2,1.2,4.4-2-4.9-19.1-4.5-33.5-1-50.4,3.5-16.8,2.6-16.6,9.3-32.3v-.7Z"/>
        <path class="st4" d="M1137.4,671.4l-10,309.1h163.5s-4.8-221-10.9-258.8c-6.4-66.8-26.6-76.7-40.8-108.9l8-156.2-34.6-16.5-1.4-8.2-53.7,6.7-1.6,16.6s-4.9,14.7-7.7,22.2c-8.7,23.5-20.5,51.7-18.8,72.2.8,9.3,13.2,71.4,13.2,71.4l-4.8,50.1c-.3,0-.4.1-.4.1"/>
        <path class="st4" d="M1150.2,469s-.1.5-.4,1.4c-.3,1-.8,2.2-1.4,3.8-1.2,3.3-3.1,8.1-5.5,13.9-2.3,5.9-5.1,12.9-7.6,20.8-2.5,8-4.6,16.9-5.8,26.5-1.3,9.6-1.2,18.8.3,27.1,1.4,8.2.6,8.5-.8.1-1.5-8.3-1.7-17.7-.4-27.3,1.2-9.6,3.4-18.7,5.9-26.7,2.5-8,5.4-15,7.8-20.8,2.4-5.8,4.3-10.5,5.7-13.8.6-1.6,1.2-2.8,1.5-3.8.4-.9.6-1.3.6-1.3"/>
        <path class="st22" d="M1212.6,620.4c-16.3,0-32.7,3-48.8,6l-20.2,5c-1.7,8.6,5.1,17.1,13.1,20.2,4,1.5,8.3,2.1,12.6,2.1s8.6-.5,12.8-1c19.8-2.4,39.6-4.8,59.3-7.2,3.1-.4,6.8-1.1,8.1-4.1.7-1.6.6-3.5,0-5.2-1.5-5-5.4-9-10-11.3-4.6-2.3-9.7-3.3-14.7-3.8-4.1-.4-8.2-.6-12.3-.6"/>
        <path class="st18" d="M1114.9,586.6c-.3,0-.2-7-2.6-15.1-2.4-8.2-6.2-14-5.9-14.1,0,0,1.2,1.3,2.6,3.7,1.4,2.4,3,6,4.3,10.1,1.2,4.1,1.7,8,1.9,10.9.1,2.8,0,4.6-.1,4.6"/>
        <path class="st18" d="M1276.3,615.6s-.1.2-.4.6c-.3.4-.6,1-1.1,1.7-1.1,1.4-2.6,3.6-5.1,6-2.4,2.4-5.8,5-10.1,7.2-4.3,2.2-9.6,4-15.7,4.5-24.3,1-58.1,2-96.5,3.3h-.5s0-.5,0-.5c0-7.6,0-15.5,0-23.6,0-4.1,0-8.2,0-12.3v-.4h.4c29.7-5.5,57-10.5,79.5-14.6l-.3.4c-2.1-20.4-3.8-37.3-5-49-.6-5.8-1-10.4-1.3-13.6-.1-1.5-.2-2.7-.3-3.6,0-.8,0-1.2,0-1.2,0,0,0,.4.2,1.2.1.8.2,2,.4,3.5.4,3.2.9,7.7,1.5,13.5,1.3,11.8,3.1,28.6,5.3,49v.4s-.3,0-.3,0c-22.5,4.2-49.8,9.2-79.5,14.7l.4-.5c0,4,0,8.1,0,12.3,0,8.1,0,16,0,23.6l-.5-.5c38.3-1.2,72.2-2.2,96.5-3,6-.4,11.3-2.1,15.6-4.3,4.3-2.2,7.6-4.7,10.1-7,2.5-2.3,4.1-4.4,5.2-5.8.5-.7.9-1.2,1.2-1.7.3-.4.4-.6.4-.5"/>
        <path class="st18" d="M1212.9,439.9s-.6.6-1.9,1.4c-1.3.8-3.4,1.5-5.9,2.5-5,2-11.6,5.4-19.1,8.8-7.5,3.4-14.9,5.3-20.3,5.4-2.7.1-4.9,0-6.4-.3-.7-.1-1.3-.3-1.7-.4-.4-.1-.6-.2-.6-.2,0-.2,3.3.7,8.6.2,5.3-.3,12.5-2.3,20-5.6,7.5-3.3,14.2-6.7,19.2-8.5,2.5-.9,4.6-1.5,6-2.2,1.4-.6,2-1.1,2.1-1"/>
        <path class="st18" d="M1218.9,534.9s-.2.3-.7.7c-.6.5-1.3,1.1-2.3,1.9-2,1.6-4.9,3.9-8.6,6.4-3.8,2.5-8.5,5.2-14.3,6.8-5.7,1.6-12.7,2.1-19.2-.7-6.5-2.7-11.5-7.2-16.3-10.7-4.7-3.6-9.5-6-13.9-6.9-4.3-1-8-.4-10.3.5-2.3.9-3.3,1.9-3.4,1.8,0,0,1-1.1,3.3-2.2,2.3-1.1,6.1-1.8,10.6-.8,4.5.8,9.5,3.2,14.3,6.9,4.9,3.5,9.8,7.9,16.1,10.5,6.3,2.6,13,2.2,18.6.7,5.7-1.5,10.4-4.2,14.2-6.5,3.8-2.4,6.7-4.6,8.8-6.1,1-.7,1.7-1.3,2.4-1.7.5-.4.8-.6.9-.5"/>
        <path class="st18" d="M1139.6,490.6c-.2.1-1-1.4-2.8-2.4-1.7-1-3.4-.9-3.4-1.2,0-.2,1.9-.8,3.9.4,2,1.2,2.6,3.2,2.3,3.2"/>
        <path class="st18" d="M1233,451.9c0,.1-1.3-.2-3.7,0-2.3.2-5.7,1.2-9.2,3.5-1.8,1.2-3.6,2.6-5.4,4.4-1.8,1.7-3.6,3.8-5.5,5.9-3.8,4.2-8,9.2-14,12.2-6,3-12.4,3.7-18,3.3-5.7-.3-10.6-1.7-14.7-3-4.1-1.3-7.3-2.6-9.5-3.5-1-.4-1.9-.8-2.5-1.1-.6-.3-.9-.4-.9-.4,0,0,.3,0,.9.3.7.2,1.5.5,2.6.9,2.2.8,5.5,2,9.5,3.2,4.1,1.2,9,2.5,14.6,2.8,5.5.3,11.8-.4,17.6-3.3,5.8-2.9,9.9-7.8,13.7-12,1.9-2.1,3.7-4.1,5.6-5.9,1.9-1.7,3.8-3.2,5.6-4.3,3.7-2.3,7.2-3.2,9.6-3.3,1.2,0,2.1,0,2.8.1.6.1.9.2.9.2"/>
        <path class="st18" d="M1209.7,435.4c0,0-.7.4-1.9,1-1.2.6-3.1,1.3-5.4,2.2-4.6,1.7-11,3.8-18.3,5.4-7.3,1.6-14,2.4-18.8,2.7-2.4.2-4.4.2-5.8.2-1.4,0-2.1,0-2.1,0,0,0,.7-.2,2.1-.3,1.4,0,3.3-.3,5.7-.5,4.8-.5,11.5-1.4,18.7-2.9,7.2-1.6,13.7-3.5,18.3-5.1,2.3-.8,4.2-1.4,5.4-1.9,1.3-.5,2-.7,2-.6"/>
        <path class="st18" d="M1265.6,659.4s-.4-.2-1.2-.6c-.7-.5-1.9-1.1-3.4-1.8-3-1.4-7.8-2.8-13.7-3.1-6-.3-13.1.6-20.7,2.7-7.6,2.1-15.7,5.6-24.4,8.6-8.7,3.1-17.3,5.3-25.3,5.3-8,.1-15.2-1.5-20.8-3.5-5.7-2.1-10-4.6-12.8-6.5-1.4-1-2.5-1.8-3.1-2.3-.7-.6-1.1-.9-1-.9,0,0,1.5,1.1,4.4,2.9,2.8,1.8,7.1,4.2,12.8,6.2,5.7,1.9,12.7,3.5,20.6,3.3,7.9-.1,16.4-2.3,25.1-5.4,8.6-3.1,16.7-6.5,24.5-8.6,7.7-2.1,14.9-2.9,21-2.5,6,.4,10.8,1.9,13.8,3.4,1.5.8,2.7,1.4,3.4,2,.7.5,1.1.8,1.1.8"/>
        <path class="st18" d="M1277.9,725.7s-1.5,1.6-4.8,3.6c-3.3,2-8.5,4.2-15.4,5-3.4.4-7.2.5-11.2.1-4-.4-8.3-1.2-12.6-2.4-8.8-2.3-18-6.2-27.7-9.8-9.8-3.5-19.5-6-28.4-5.9-4.5,0-8.7.6-12.5,1.7-3.8,1.1-7.4,2.4-10.7,3.1-6.7,1.7-12.6.6-15.9-1.4-1.7-1-2.8-2.1-3.4-2.9-.6-.8-.9-1.3-.9-1.3,0,0,.3.4,1,1.2.7.8,1.8,1.8,3.4,2.7,3.3,1.9,9,2.9,15.6,1.1,3.3-.8,6.8-2.1,10.7-3.2,3.9-1.2,8.2-1.8,12.7-1.8,9.1,0,18.9,2.4,28.7,5.9,9.8,3.5,19,7.5,27.7,9.8,4.3,1.2,8.5,2,12.5,2.4,4,.4,7.7.3,11,0,6.7-.7,12-2.8,15.3-4.7.8-.4,1.6-.9,2.2-1.3.6-.4,1.1-.7,1.5-1.1.8-.6,1.2-.9,1.3-.9"/>
        <path class="st18" d="M1284.6,779.8s-.5-.2-1.4-.7c-.9-.5-2.3-1.1-4.1-1.8-3.6-1.4-9.2-2.9-16.3-3.2-7.1-.3-15.5.6-24.6,2.8-9.1,2.2-18.6,5.7-28.9,8.8-10.3,3.2-20.5,5.4-30.1,5.5-9.5.1-18-1.5-24.7-3.6-6.8-2.1-11.8-4.7-15.1-6.7-1.7-1-2.9-1.8-3.7-2.4-.8-.6-1.2-.9-1.2-.9,0,0,1.8,1.1,5.2,3,3.4,1.9,8.4,4.3,15.2,6.3,6.7,2,15.1,3.5,24.5,3.4,9.4-.1,19.5-2.3,29.7-5.5,10.3-3.1,19.9-6.6,29-8.8,9.1-2.2,17.7-3,24.9-2.6,7.2.4,12.8,2,16.4,3.5,1.8.8,3.2,1.5,4,2,.9.5,1.3.8,1.3.8"/>
        <path class="st18" d="M1287.1,847.1s-1.6,1.5-5.2,3.3c-3.5,1.9-9.2,3.9-16.6,4.7-3.7.4-7.8.5-12.1.1-4.3-.3-8.9-1.1-13.7-2.2-9.5-2.2-19.4-5.8-30-9.1-10.6-3.3-21.1-5.6-30.8-5.5-4.8,0-9.4.6-13.6,1.6-4.2,1-8,2.2-11.6,2.9-7.2,1.6-13.6.6-17.2-1.3-1.8-.9-3-1.9-3.7-2.7-.7-.8-.9-1.2-.9-1.2,0,0,.4.4,1.1,1.1.7.7,1.9,1.7,3.7,2.5,3.6,1.7,9.7,2.7,16.8,1,3.6-.7,7.4-2,11.6-3,4.2-1.1,8.9-1.7,13.8-1.7,9.9,0,20.5,2.2,31.1,5.5,10.6,3.3,20.5,7,29.9,9.2,4.7,1.1,9.2,1.9,13.5,2.3,4.3.3,8.3.3,12,0,7.3-.7,12.9-2.6,16.5-4.3.9-.4,1.7-.8,2.3-1.2.7-.4,1.2-.7,1.7-1,.9-.6,1.3-.8,1.4-.8"/>
        <path class="st18" d="M1194.2,593.1c0,.2-3-1.5-8.2-3.4-2.6-.9-5.7-1.8-9.2-2.5-3.5-.6-7.5-1.1-11.6-1.1-4.1,0-8.1.4-11.6,1-3.5.7-6.7,1.5-9.2,2.4-5.1,1.8-8.1,3.5-8.2,3.3,0,0,.7-.5,2.1-1.2.7-.4,1.5-.8,2.5-1.3,1-.4,2.1-1,3.4-1.4,2.6-1,5.7-1.9,9.3-2.7,3.6-.7,7.6-1.1,11.8-1.1,4.2,0,8.2.5,11.7,1.2,3.6.8,6.7,1.7,9.3,2.7,1.3.4,2.4,1,3.4,1.5,1,.4,1.8.9,2.5,1.3,1.3.8,2.1,1.2,2,1.3"/>
        <polygon class="st1" points="655.2 229.3 750.5 134.1 808.6 192.3 713.4 287.5 655.2 229.3"/>
        <rect class="st19" x="487.9" y="306.6" width="41.3" height="9.7"/>
        <rect class="st19" x="487.9" y="385.1" width="41.3" height="9.7"/>
        <path class="st4" d="M546.5,969.5l3.4-435.2-120-10.3s-6.4,63.7-6.2,72.2c0,4.1,18.1,43.7,18.1,43.7l22.7,328.3,82,1.4Z"/>
        <path class="st3" d="M461.1,290.5l54.2,14.5,1.8-48.6s22.9-2.6,24.1-26c1.3-23.4-.5-77.3-.5-77.3-25.8-12.8-56.4-10.2-79.8,6.8l-3.5,2.5,3.6,128.1Z"/>
        <path class="st5" d="M517.1,256.1s-14.4.6-29.3-10c0,0,6.3,17.1,29.1,16l.2-6.1Z"/>
        <path class="st3" d="M459.3,186.8c-.4-.2-15.4-5.4-15.6,10.6-.2,16,15.5,12.9,15.5,12.4,0-.5,0-23,0-23"/>
        <path class="st5" d="M454.5,203.7c0,0-.3.2-.7.4-.4.2-1.2.3-2,0-1.6-.6-3-3.3-3-6.2,0-1.5.3-2.8.8-4,.5-1.2,1.2-2,2.1-2.1.8-.2,1.4.3,1.6.8.2.5.1.8.2.8,0,0,.3-.3.2-.9,0-.3-.2-.7-.6-1-.4-.3-.9-.5-1.5-.4-1.2,0-2.3,1.2-2.9,2.5-.6,1.3-1,2.8-1,4.5,0,3.2,1.6,6.3,3.9,7,1.1.3,2,0,2.5-.4.5-.4.6-.7.5-.8"/>
        <path class="st19" d="M534.2,189.2c0,1.8-1.5,3.2-3.3,3.2-1.8,0-3.2-1.4-3.2-3.2,0-1.8,1.5-3.2,3.3-3.2,1.8,0,3.2,1.4,3.2,3.2"/>
        <path class="st19" d="M535.1,185.9c-.4.4-2.8-1.6-6.3-1.7-3.5-.2-6.1,1.5-6.5,1.1-.2-.2.3-1,1.4-1.8,1.1-.8,3-1.5,5.2-1.4,2.2.1,4,1,5,1.9,1,.9,1.4,1.7,1.2,1.9"/>
        <path class="st19" d="M500,188.9c0,1.8-1.5,3.2-3.3,3.2-1.8,0-3.2-1.4-3.2-3.2,0-1.8,1.5-3.2,3.3-3.2,1.8,0,3.2,1.4,3.2,3.2"/>
        <path class="st19" d="M500.7,185c-.4.4-2.8-1.6-6.3-1.7-3.5-.2-6.1,1.5-6.5,1.1-.2-.2.3-1,1.4-1.8,1.1-.8,3-1.5,5.2-1.4,2.2.1,4,1,5,1.9,1,.9,1.4,1.7,1.2,1.9"/>
        <path class="st19" d="M512.3,212.2c0-.2,2.2-.5,5.7-.8.9,0,1.7-.2,1.9-.8.2-.7,0-1.7-.5-2.7-.7-2.3-1.5-4.6-2.3-7.1-3.3-10.1-5.6-18.4-5.2-18.5s3.4,8,6.6,18.1c.8,2.5,1.5,4.9,2.2,7.1.3,1.1.8,2.3.3,3.6-.3.7-.9,1.1-1.5,1.3-.6.2-1.1.1-1.5.2-3.5,0-5.7,0-5.8-.2"/>
        <path class="st19" d="M502.2,171c-.4,1-3.9.3-8,.7-4.1.2-7.5,1.3-8,.4-.2-.4.4-1.3,1.8-2.2,1.4-.9,3.5-1.7,6-1.9,2.5-.2,4.7.3,6.2,1,1.5.7,2.2,1.5,2,1.9"/>
        <path class="st19" d="M534.2,175.4c-.6.8-3-.2-5.9-.3-2.9-.3-5.4.3-5.9-.6-.2-.4.2-1.2,1.3-2,1.1-.7,2.9-1.3,4.9-1.1,2,.2,3.7,1,4.6,1.8,1,.9,1.3,1.7,1,2.1"/>
        <path class="st19" d="M552.4,138.9c.4-2.9-.6-6-2.8-7.9-2.2-1.8-5.8-1.9-7.7.3,1.2-3.9-1.7-8.5-5.6-8.9-3.7-.4-7,2.3-10.6,3.2-3.5.8-7.3-.2-10.6-1.7-3.3-1.5-6.4-3.6-9.7-5-7-3-15.1-3-22.1,0-7,2.9-12.8,8.8-15.8,16-4.9-1.8-10.7.5-13.9,4.7-3.2,4.2-4.3,9.9-3.9,15.2.3,3.6,1.1,7.1,2.2,10.6,0,.3,0,.6,0,.9-.3,12.9.5,28,5.8,28.4,9.3.6,7.8-17.6,7.8-17.6,11.6-4,8.1-21.8,11-24.4,3-2.5,9.2-8.5,32.5,5.1,9.1,5.3,21.4,5.7,28.2,4.4.2,0,.4,0,.6,0h.1s.2,0,.2,0c2.2-.5,4.3-1.2,6.2-2.4,2.2-1.3,4.3-3.1,5.3-5.6,1-2.4.8-5.5-1-7.4,1.9-2.2,3.3-4.8,3.7-7.7"/>
        <path class="st5" d="M514.1,223.4c-.6,1.4-1.2,2.8-2.2,4-1,1.2-2.4,2.1-3.8,2.1-1.6,0-3.1-1-3.9-2.4-.8-1.4-1.1-3.1-.9-4.7.1-1.5.9-3.2,2.3-3.3.6,0,1.2.2,1.7.5,2.5,1.2,4.9,2.3,7.4,3.5"/>
        <path class="st19" d="M510.9,229.6c0-.2-1.7.4-4-.7-1.1-.5-2.3-1.5-2.9-3-.6-1.5-.7-3.4.1-5.1.2-.4.4-.8.7-1.1.3-.3.3-.3.6-.2.3,0,.8.4,1.2.5.4.2.8.4,1.2.6,1.6.7,3,1.4,4.2,1.9,2.4,1.1,4,1.6,4,1.4,0-.2-1.3-1-3.6-2.3-1.2-.6-2.5-1.4-4.1-2.2-.4-.2-.8-.4-1.2-.6-.4-.2-.8-.4-1.3-.6-.3,0-.7-.2-1.1,0-.4.1-.7.4-.9.6-.4.4-.7.9-.9,1.4-1,2.1-.9,4.4,0,6.2.8,1.8,2.4,2.9,3.7,3.3,1.3.5,2.5.4,3.2.3.8-.2,1.1-.4,1.1-.5"/>
        <path class="st15" d="M475.2,150.3c0,0-.2-1,.1-2.8.3-1.8,1.4-4.3,3.8-6.4,2.4-2.1,6.2-3.3,10.4-3,4.2.2,8.6,1.8,13.2,3.6,2.3.9,4.5,1.7,6.8,2.4,2.3.6,4.5,1,6.6,1.1,4.3.3,8.1-.2,11.3-1,3.1-.8,5.5-1.9,7.1-2.8.8-.4,1.4-.8,1.8-1,.4-.3.6-.4.6-.4,0,0-.9.5-2.5,1.2-1.6.8-4,1.8-7.1,2.5-3.1.7-6.9,1.2-11.1.9-2.1-.2-4.3-.5-6.5-1.1-2.2-.6-4.4-1.5-6.7-2.4-4.5-1.8-9-3.4-13.4-3.6-4.3-.3-8.3,1-10.7,3.3-2.5,2.2-3.6,4.9-3.8,6.7-.2,1.9.2,2.9.2,2.9"/>
        <path class="st15" d="M455.9,189.1s.1-.2.3-.5c.2-.3.5-.8.8-1.5.6-1.3,1.4-3.2,2.1-5.7.6-2.5,1.1-5.6,1-9,0-3.4-1-7.1-1.6-11-.6-3.8-.7-7.6.4-10.8.5-1.6,1.4-2.9,2.3-4,1-1,2.2-1.7,3.4-2.1,2.3-.7,4.4-.3,5.6.4,1.2.7,1.6,1.4,1.7,1.3,0,0-.4-.8-1.6-1.6-1.2-.8-3.4-1.3-5.9-.6-1.2.3-2.5,1-3.6,2.1-1.1,1.1-2,2.5-2.5,4.2-1.2,3.3-1.2,7.2-.5,11.1.6,3.9,1.5,7.5,1.6,10.9.1,3.4-.2,6.4-.8,8.9-.6,2.5-1.3,4.4-1.8,5.7-.5,1.3-.9,2-.8,2.1"/>
        <path class="st15" d="M473.1,148.3s0-.3,0-.9c0-.7,0-1.6,0-2.7,0-2.3.1-5.7,1.5-9.7.7-1.9,1.7-4,3.3-5.8,1.6-1.8,3.7-3.3,6.3-3.9,2.6-.6,5.4-.2,8.1.7,2.7.9,5.4,2.5,8,4.2,2.6,1.7,5.2,3.4,7.9,4.6,2.7,1.2,5.5,1.9,8.2,2.1,2.7.2,5.3,0,7.6-.6,2.3-.6,4.5-1.4,6.3-2.4,3.6-1.9,6.1-4.3,7.6-6.1.8-.9,1.3-1.6,1.6-2.2.3-.5.5-.8.5-.8,0,0-.2.2-.6.7-.4.5-.9,1.2-1.7,2.1-1.5,1.7-4,4-7.6,5.8-1.8.9-3.9,1.7-6.2,2.2-2.3.5-4.8.7-7.5.6-2.6-.2-5.4-.9-8-2.1-2.6-1.2-5.2-2.9-7.8-4.6-2.6-1.7-5.3-3.3-8.1-4.2-2.8-.9-5.8-1.3-8.5-.7-2.7.6-5,2.2-6.5,4.1-1.6,1.9-2.7,4-3.3,6-1.3,4-1.3,7.5-1.3,9.8,0,1.2,0,2.1.1,2.7s0,.9.1.9"/>
        <path class="st23" d="M507.4,282.4l63.5,64.6,57.4-64.9,8.8-4,11.7-12.1,27.1,31.4-68.3,92.9c-7.4,10-17.9,17.1-29.8,20.1-18.1,4.6-37.2-.8-50.5-14.2l-48.8-49.3,28.9-64.6Z"/>
        <path class="st4" d="M577,384.6c-.1,0-.1-2.2-.1-5.6,0-3.5-.2-8.3-1-13.5-.8-5.2-2.1-9.8-3.2-13.1-1.1-3.3-1.9-5.3-1.7-5.3,0,0,.3.4.7,1.3.4.9,1,2.2,1.6,3.8,1.2,3.2,2.7,7.9,3.5,13.2.8,5.3.9,10.1.8,13.6,0,1.7-.1,3.2-.2,4.1,0,1-.2,1.5-.2,1.5"/>
        <path class="st10" d="M526.7,303.6l.2,1.1,17.5,44.1,3.2,60.1,9.1,2.5c4.9-.4,9.7-6,11.3-10.8,1.7-4.7,1.2-10-.2-14.8-4.6-16.2-16.4-31.1-23-46.5-5.6-13.1-8.1-25.8-18.1-35.7"/>
        <path class="st4" d="M664.8,313.5c-.2.2-6.1-7.2-13.1-16.4-7-9.2-12.6-16.8-12.4-17,.2-.2,6.1,7.2,13.1,16.4,7,9.2,12.6,16.8,12.4,17"/>
        <path class="st14" d="M459.8,248.7l-7.2,17.8s-9.3,20.3-19.7,34.2c-11.3,15.1-14,63.8-14,63.8l10.7,149.6-3.7,7.3c-1.7,3.3-.8,15.5,2.8,15.7l120.5,5.8c2.9.1,4.8-10.3,4.7-13.3l-9.7-180.7-19.5-49.3-6.3-9.7v-12.2c-.1,0-42.1-13.4-42.1-13.4-7.5-2.4-13.7-8.1-16.7-15.7"/>
        <polygon class="st9" points="553.3 515.7 552.7 500.2 552.5 500.1 553.3 515.7"/>
        <path class="st10" d="M437.6,467.3l-5.5,11.7c18.3,12,36.8,24.1,57.1,31.9,12.9,5,26.9,8,40.7,8s15.9-1,23.5-3.2h0s-.8-15.6-.8-15.6l-114.9-32.8Z"/>
        <path class="st24" d="M465.1,304.8s-33-2.9-39.8,39.4c-6.8,42.4,4.2,134.3,7.3,135,0,0,58.9,25.9,120.3,32.1l43-8.1-5.1-42.1-31.7,1.7s-1.4-8.1-13.3-11.6c-17.2-4.9-51.8-13.2-51.8-13.2,0,0,1.5-42.2,1.9-54.6.3-12.4,4.5-66.2-23-76.3"/>
        <path class="st19" d="M524.9,299.6s.2.4.6,1.3c.4.9.9,2.1,1.6,3.7,1.4,3.3,3.3,7.9,5.6,13.6,2.4,5.8,5.1,12.7,8.2,20.3.8,1.9,1.6,3.9,2.4,5.9.8,2,1.6,4.1,2,6.4.5,2.2.6,4.6.7,6.9.1,2.3.3,4.7.4,7.1,1.1,19,2.1,36.3,2.5,48.8.2,6.2.4,11.3.4,14.8,0,1.7,0,3,0,4,0,.9,0,1.4,0,1.4s0-.5-.1-1.4c0-1-.1-2.3-.2-4-.2-3.6-.4-8.6-.7-14.8-.7-12.6-1.7-29.8-2.8-48.8-.1-2.4-.2-4.7-.4-7.1-.1-2.3-.2-4.6-.7-6.7-.4-2.2-1.1-4.2-2-6.2-.8-2-1.6-4-2.3-5.9-3-7.6-5.7-14.5-8-20.3-2.2-5.7-4.1-10.4-5.4-13.7-.6-1.6-1.1-2.8-1.4-3.8-.3-.9-.5-1.3-.4-1.3"/>
        <path class="st19" d="M518.2,277.7s0,.6-.4,1.8c-.3,1.2-.7,2.9-1.4,5-1.4,4.2-3.7,10.2-7.5,16.7l-.2.4-.4-.3c-4.7-4.1-11.1-7.5-18.1-10.4-5.8-2.5-11.5-4.6-16.4-7-5-2.4-9.2-5-12.5-7.7-3.3-2.6-5.5-5.3-6.8-7.2-.7-1-1.1-1.8-1.4-2.3-.3-.5-.4-.8-.4-.9,0,0,.7,1.1,2.1,3,1.4,1.8,3.6,4.4,6.9,6.9,3.2,2.6,7.5,5.1,12.4,7.4,4.9,2.3,10.6,4.4,16.4,6.9,7,2.9,13.5,6.4,18.3,10.6h-.6c3.8-6.3,6.2-12.2,7.7-16.3.7-2.1,1.3-3.7,1.6-4.9.4-1.1.6-1.7.6-1.7"/>
        <path class="st4" d="M472.9,307.2s.8.3,2.3.9c.7.3,1.6.9,2.7,1.5,1,.7,2.2,1.5,3.3,2.6,2.4,2.1,4.9,5.2,7.1,9.4,2.1,4.2,4,9.3,5.4,15.2,2.7,11.9,3.4,26.8,2.7,43.8-.6,17-1.2,36.4-1.9,57.6l-.3-.4c10.5,2.5,21.6,5.2,33.2,8.2,5.8,1.5,11.7,3,17.7,4.7,6.2,1.4,11.6,6.1,14.6,12.1l-.4-.2c10-.5,20.7-1.1,31.7-1.7h.4s0,.4,0,.4c1.6,13.4,3.4,27.6,5.1,42.1v.4s-.4,0-.4,0c-12.8,2.4-26.3,5-40,7.6-1,.2-2,.4-3,.6h0s0,0,0,0c-11-1.2-21.9-2.8-32.5-5-10.6-2.2-21-4.6-31-7.5-20.1-5.7-39.2-12.2-56.9-19.7h0s-.3-.2-.3-.2l-.2-.2-.2-.4c-.1-.2-.2-.5-.3-.7-.2-.4-.3-.9-.4-1.3-.2-.9-.4-1.8-.6-2.7-.4-1.8-.7-3.6-1-5.3-.6-3.5-1.1-7.1-1.5-10.5-.9-7-1.6-13.8-2.3-20.5-1.3-13.4-2.1-26.1-2.6-38.2-.5-12-.6-23.4-.1-33.9.5-10.5,1.3-20.2,3.5-28.7,2.2-8.5,6-15.6,10.6-20.6,4.6-5.1,9.7-8,14-9.6,4.4-1.6,7.9-2,10.3-2.2,1.2,0,2.1,0,2.7,0,.6,0,.9,0,.9,0,0,0-.3,0-.9,0-.6,0-1.5,0-2.7.1-2.4.2-5.9.7-10.2,2.3-4.3,1.6-9.4,4.5-13.8,9.6-4.5,5-8.2,12.1-10.4,20.5-2.1,8.5-2.9,18.1-3.4,28.6-.4,10.5-.3,21.8.2,33.8.5,12,1.4,24.8,2.6,38.1.6,6.7,1.4,13.5,2.3,20.4.5,3.5,1,7,1.5,10.5.3,1.8.6,3.5,1,5.3.2.9.4,1.8.6,2.6.1.4.2.9.4,1.3,0,.2.1.4.2.6v.2c.1,0,.2,0,.2,0h0s0,.2,0,.2v-.2c17.7,7.4,36.8,13.9,56.9,19.6,10,2.8,20.4,5.3,31,7.4,10.6,2.1,21.4,3.8,32.4,5h-.1c1-.2,2-.4,3-.6,13.7-2.6,27.2-5.1,40-7.6l-.4.5c-1.8-14.5-3.5-28.7-5.1-42.1l.4.4c-11,.6-21.7,1.2-31.7,1.7h-.3s-.1-.2-.1-.2c-2.9-5.7-8-10.2-14-11.6-6-1.7-11.9-3.2-17.7-4.7-11.6-3-22.7-5.7-33.2-8.2h-.3c0,0,0-.4,0-.4.8-21.2,1.4-40.5,2-57.6.8-17,.2-31.9-2.5-43.7-1.3-5.9-3.1-11-5.2-15.1-2.2-4.1-4.6-7.2-7-9.4-1.1-1.1-2.3-1.9-3.3-2.6-1-.6-1.9-1.1-2.6-1.5-1.5-.7-2.2-1-2.2-1"/>
        <path class="st4" d="M556.9,506.8c-.2,0,.2-8.9.9-19.8.7-10.9,1.6-19.7,1.8-19.7.2,0-.2,8.9-.9,19.8-.7,10.9-1.6,19.7-1.8,19.7"/>
        <path class="st4" d="M467.3,460.9c0,0,0-.5.4-1.4.3-.9.9-2.1,1.7-3.5,1.7-2.9,4.7-6.4,8.7-9.4,4-3,8-5.1,10.9-6.5,2.9-1.4,4.8-2.2,4.8-2,0,.1-1.7,1.1-4.5,2.6-2.8,1.6-6.8,3.7-10.7,6.6-3.9,2.9-6.9,6.3-8.7,9-1.8,2.7-2.5,4.6-2.7,4.6"/>
        <path class="st4" d="M515.6,521.5s-.3,0-.8.2c-.6.1-1.4.2-2.4.4-2.1.3-5.1.7-8.8,1-3.7.3-8.2.5-13.2.5-5,0-10.4-.4-16.1-1-5.7-.7-11.1-1.7-15.9-2.8-4.8-1.1-9.1-2.3-12.7-3.5-3.6-1.2-6.4-2.2-8.4-3-.9-.4-1.6-.7-2.2-.9-.5-.2-.8-.4-.8-.4,0,0,.3,0,.8.2.6.2,1.4.5,2.3.8,2,.7,4.8,1.7,8.4,2.8,3.6,1.1,7.9,2.2,12.7,3.3,4.8,1,10.2,2,15.8,2.7,5.7.7,11.1,1,16,1.1,4.9,0,9.4,0,13.1-.3,3.7-.2,6.7-.5,8.8-.7,1,0,1.7-.2,2.4-.2.5,0,.8,0,.8,0"/>
        <g>
          <path class="st3" d="M663.6,450c-1.3-1.9-3.4-1.6-5.2-.2l-6,4.1c-1.7,1-3.5,1.7-5.3,2.3l-2.5.5c-5,.9-10.2-.2-14.4-3.1l-1-.7s16.4-3.8,18.9-6h0c2.5-2.3.3-6.6-2.9-6.1l-20.6,3.3c-6.8,1.1-13.2,3.8-18.7,8-5.2,4-14,9.9-14.5,9.8l3.6,32.2,5.9-1.5,10.7,1c7.2.6,14.4-.8,20.9-4.3,4-2.1,7.7-4.2,8.1-4.9.9-1.6,2.5-8,2.5-8,0,0,4.1-2.6,4.2-4.4s-.3-5-.3-5c0,0,10.4-6.3,13.1-8.5,4.8-3.9,4.9-6.6,3.7-8.3"/>
          <path class="st5" d="M634.6,473.2c0,.2,3.2-.7,6.7-2.5,3.5-1.8,6.1-3.8,6-4-.1-.2-2.8,1.6-6.3,3.4-3.5,1.8-6.4,2.9-6.4,3.1"/>
          <path class="st5" d="M636.8,479.3c0,.2,1.8,0,3.7-1.1,1.9-1,3.1-2.3,3-2.4-.1-.2-1.5.8-3.3,1.8-1.8,1-3.4,1.5-3.4,1.7"/>
          <path class="st5" d="M626.1,450.9c0,0,.9.8,2.5,1.8,1.6,1,3.9,2.3,6.7,3.3,2.8,1,5.4,1.3,7.3,1.3,1.9,0,3.1-.2,3-.3,0-.3-4.7.3-10.1-1.6-2.7-.9-5-2.2-6.6-3-1.7-.9-2.7-1.5-2.7-1.4"/>
        </g>
        <path class="st10" d="M458,273.1c4.6,7.5,11.4,13.2,18.5,18.3,7.4,5.2,15.6,9.3,23.7,13.4,3.4,1.7,7.1,3.4,10.8,3.4s.7,0,1,0c1.1,0,2.3-.4,3.1-1.1,1.2-1.1,1.5-2.8,1.8-4.4,1.1-7.5,1.5-17.2,1.2-24.8,0,.2-.1.8-.4,1.7-.3,1.2-.8,2.8-1.4,5-1.4,4.2-3.7,10.2-7.5,16.7l-.2.4-.4-.3c-1.5-1.3-3.2-2.5-5-3.7-1.8-1.1-4.1-2.4-7.1-4-2-1-4-1.9-6.1-2.8-5.8-2.5-11.5-4.6-16.4-7-5-2.4-9.2-5-12.5-7.7-1.3-1-2.4-2.1-3.4-3.1"/>
        <path class="st4" d="M457.4,272.1c.2.3.4.7.6,1,1,1,2.1,2,3.4,3.1,3.2,2.7,7.5,5.3,12.5,7.7,5,2.4,10.6,4.5,16.4,7,2.1.9,4.1,1.8,6.1,2.8-3.8-2-8.5-4.2-14.5-6.7-20.5-8.5-24.4-14.8-24.4-14.8M518.2,277.7c-2.3,8.8-5.7,16.9-9.7,23.4,0,0-1.5-1.3-5.1-3.6,1.8,1.2,3.5,2.4,5,3.7l.4.3.2-.4c3.8-6.5,6.1-12.5,7.5-16.7.7-2.1,1.1-3.8,1.4-5,.2-.9.3-1.5.4-1.7,0,0,0,0,0,0"/>
        <path class="st3" d="M662.9,261.3c1.5,1.6,4.1,1.4,6,.4,1.9-1,3.4-2.6,5.3-3.8,5.5-3.4,13-1.9,18.3-5.6.7-.5,1.5-1.4,1.2-2.2-.3-.8-1.3-1-2.1-1-7.1-.4-14.1-.7-21.2-1.1"/>
        <path class="st5" d="M670.3,248c0,0,.8-.1,2.3-.1s3.6,0,6.3.1c2.8,0,5.9.2,9.3.3.9,0,1.8,0,2.7.1.8.1,2-.1,3.1.9.5.6.5,1.5.2,2.1-.3.6-.7,1-1.2,1.3-.9.6-1.8,1.1-2.8,1.5-3.9,1.5-7.9,1.6-11.2,2.4-1.7.4-3.2.9-4.5,1.7-1.3.8-2.4,1.7-3.5,2.5-2.2,1.7-4.6,2.2-6.1,1.7-1.5-.4-2-1.3-1.9-1.3,0-.1.6.6,2,.9,1.4.3,3.5-.3,5.5-2,1-.8,2.1-1.8,3.5-2.7,1.4-.9,3-1.5,4.7-1.9,3.5-.9,7.4-1,11-2.4.9-.3,1.8-.8,2.5-1.3.7-.5,1.1-1.3.8-1.6-.3-.4-1.3-.5-2.2-.5-.9,0-1.8-.1-2.7-.2-3.4-.2-6.5-.4-9.3-.6-2.6-.2-4.8-.4-6.2-.5-1.5-.2-2.3-.3-2.3-.4"/>
        <path class="st1" d="M1071.4,645.4s19.9-19.6,37.5-37.5c13.2-13.5,26.1-26,26.1-26-7.3-34.8-9.9-73.6-9.9-73.6l-47.9-48.4-90.5,38.7-17.6,38.2,44.2,50.5,58.2,58.2Z"/>
        <path class="st12" d="M1097.3,600.4l15.1,1.4,6.6,3.4s-1.6-1.7-3-3.5c-1.4-1.8-6.7-5.7-6.7-5.7l-11.2-1.2s-6.3-.5-6.7-5l8.6-.9s-8.9-.6-8.7-5.2l6.5-1.2s-2.2,0-2-2.4l17.9-2.1,17.1,12.5,16.6,15.1,3.7.2,1.3,24.6s-14.7-1.9-18.7-3.9c-4-2-21.8-18.6-21.8-18.6,0,0-9.3-.8-11.9-3.1-2.6-2.3-2.7-4.4-2.7-4.4"/>
        <g>
          <path class="st25" d="M1121.9,596.5c0,0-1.2-.7-3.1-2-1.8-1.3-4.3-3.2-7.1-5.2-.3-.2-.5-.4-.7-.6h.3c-3.2.2-6,.3-8.1.3-2,0-3.3,0-3.3-.2,0-.1,1.2-.3,3.3-.4,2-.2,4.9-.3,8.1-.5h.1s.1,0,.1,0c.2.2.5.4.7.6,2.7,2.1,5.2,4,6.9,5.4,1.7,1.4,2.8,2.4,2.7,2.5"/>
          <path class="st25" d="M1119.9,588.3c0,0-1.1-.6-2.8-1.8-1.7-1.2-4-2.9-6.6-4.9h.3c-.3.1-.7.2-1,.2-3.4.4-6.5.6-8.7.8-2.2.2-3.6.2-3.6,0,0-.1,1.4-.4,3.6-.7,2.2-.3,5.3-.7,8.7-1.1.3,0,.7,0,1-.1h.2s.1,0,.1,0c2.6,2,4.8,3.8,6.4,5.1,1.6,1.3,2.5,2.2,2.5,2.3"/>
          <path class="st25" d="M1156,630.8h-.2c-.2,0-.4,0-.7,0-.6,0-1.5-.2-2.7-.3-2.4-.3-5.8-.7-10.2-1.5-2.2-.4-4.6-.8-7.3-1.7-1.3-.4-2.6-1.3-3.7-2.1-1.2-.9-2.4-1.9-3.6-2.9-4.9-4.1-10.2-8.9-16.1-14.2h.2c-2.7-.2-5.6-.6-8.4-1.4-.7-.2-1.4-.5-2.1-.8-.4-.2-.7-.3-1-.6l-.5-.4-.4-.4c-.6-.6-1.1-1.2-1.5-1.9-.4-.7-.8-1.5-.9-2.4v-.5c0,0,.4,0,.4,0,4.8.4,9.9.9,15.1,1.4h0s0,0,0,0c2.1,1.1,4.3,2.2,6.6,3.4l-.5.7c-.7-.8-1.4-1.7-2.1-2.5-.4-.4-.7-.8-1.1-1.3-.3-.4-.7-.8-1.1-1.2-1.6-1.5-3.4-2.9-5.3-4.3h.2c-2.2-.2-4.4-.4-6.7-.6-1.1-.1-2.3-.2-3.5-.4-.6,0-1.2-.1-1.8-.2-.6-.1-1.2-.2-1.8-.4-1.1-.3-2.1-.9-3-1.7-.9-.8-1.5-1.9-1.6-3.1v-.4s.4,0,.4,0c2.9-.3,5.7-.6,8.6-.8v.9c-1.9-.2-3.7-.6-5.5-1.3-.9-.4-1.7-.8-2.4-1.6-.7-.7-1.2-1.8-1.1-2.8v-.3s.4,0,.4,0c2.3-.3,4.6-.7,6.9-1v.8c-.7,0-1.3-.3-1.9-.9-.6-.5-.8-1.3-.7-2.1v-.3s.4,0,.4,0c6.2-.7,12.1-1.5,17.8-2.1h.1s.1,0,.1,0c6.2,4.5,11.9,8.7,17.1,12.5h0s0,0,0,0c6.4,5.8,11.9,10.9,16.5,15.1h-.1c6.5.3,11.7.6,15.3.8,1.8.1,3.1.2,4.1.3.4,0,.8,0,1,0,.2,0,.4,0,.4,0s-.1,0-.4,0c-.2,0-.6,0-1,0-.9,0-2.3,0-4.1-.1-3.6-.2-8.7-.4-15.3-.6h0s0,0,0,0c-4.6-4.2-10.2-9.2-16.6-15h0c-5.2-3.8-11-8-17.2-12.4h.3c-5.7.8-11.6,1.5-17.8,2.3l.4-.4c0,.5.1,1,.5,1.4.4.4.9.6,1.4.6l2.9.4-2.9.4c-2.3.3-4.6.7-6.9,1l.4-.4c0,.8.3,1.6.9,2.2.6.6,1.4,1,2.2,1.4,1.6.7,3.4,1,5.2,1.2v.9c-2.8.3-5.7.6-8.6.9l.4-.5c0,1,.6,1.9,1.3,2.6.7.7,1.7,1.2,2.7,1.5.5.2,1.1.3,1.7.4.6,0,1.1.1,1.7.2,1.2.1,2.3.2,3.5.4,2.3.2,4.6.5,6.7.7h.1s0,0,0,0c1.8,1.4,3.7,2.8,5.3,4.3.4.4.8.8,1.2,1.2.4.4.7.9,1.1,1.3.7.8,1.4,1.7,2.1,2.5l1.4,1.6-1.8-1c-2.3-1.2-4.5-2.4-6.6-3.4h.1c-5.2-.5-10.3-.9-15.1-1.4l.4-.4c0,.7.4,1.4.8,2,.4.6.8,1.2,1.4,1.7,1,1.1,2.4,1.5,3.8,1.9,2.8.8,5.6,1.2,8.3,1.5h.1s0,0,0,0c5.8,5.4,11.1,10.2,15.9,14.3,1.2,1,2.4,2,3.6,2.9,1.2.9,2.3,1.7,3.6,2.1,2.5.8,5,1.3,7.2,1.7,4.4.8,7.8,1.3,10.2,1.7,1.2.2,2.1.3,2.7.4.3,0,.5,0,.7.1h.2Z"/>
        </g>
        <g>
          <path class="st4" d="M1276.3,615.6c5.6-8.8,7.9-19.3,6.5-29.7l-13.1-79c-1.5-13.2-3.3-31.3-12.2-40.9-6.1-6.6-13.6-12.4-20.9-12.3l-15.7,45.8,5.9,88.4-79.5,14.7v35.9s60.8-2.1,94.6-3c13.9-.4,26.7-7.8,34.3-19.8Z"/>
          <path class="st18" d="M1245.5,456.6c0,.2-2.7,1.2-6.6,3.9-2,1.3-4.2,3.1-6.5,5.2-2.2,2.2-4.5,4.8-6.6,7.8-2,3-3.6,6.1-4.8,9.1-1.2,3-2,5.7-2.5,8.1-1,4.7-1,7.8-1.2,7.7,0,0,0-.8,0-2.1,0-.7,0-1.5.2-2.5.1-1,.2-2.1.5-3.3.4-2.4,1.2-5.2,2.3-8.3,1.2-3,2.8-6.2,4.9-9.3,2.1-3.1,4.4-5.7,6.8-7.9,2.4-2.2,4.7-3.9,6.7-5.1,1-.7,2-1.1,2.8-1.6.8-.5,1.6-.8,2.2-1,1.2-.5,1.9-.7,2-.7"/>
          <path class="st18" d="M1268.9,499.3c0,.2-2.7-.7-7.1-1.3-2.2-.3-4.8-.6-7.8-.6-2.9,0-6.1.1-9.5.6-3.3.5-6.5,1.3-9.3,2.2-2.8.9-5.3,1.9-7.3,2.9-4,1.9-6.3,3.5-6.4,3.3,0,0,.5-.5,1.6-1.2,1-.7,2.6-1.7,4.6-2.7,2-1.1,4.5-2.1,7.3-3.1,2.8-.9,6-1.7,9.4-2.3,3.4-.5,6.7-.6,9.6-.6,3,.1,5.6.4,7.8.8,2.2.4,4,.9,5.2,1.3,1.2.4,1.8.6,1.8.7"/>
          <path class="st18" d="M1278.7,564.8c0,.2-3.2-.8-8.1.9-2.4.8-5.1,2.2-8.1,4-3,1.7-6.4,3.6-10.3,4.5-7.9,1.8-15.3-.3-19.8-2.8-2.3-1.3-4-2.6-5-3.6-1.1-1-1.6-1.6-1.5-1.7.1-.2,2.3,2.3,6.9,4.7,4.5,2.3,11.7,4.2,19.3,2.5,3.8-.9,7.1-2.6,10.1-4.3,3-1.7,5.8-3.1,8.3-3.8,2.5-.8,4.7-.9,6.1-.8,1.5.1,2.2.4,2.2.5"/>
          <path class="st18" d="M1206.9,636.6c-.2,0,1-2.4,2-6.4,1-4,1.8-9.7.7-15.9-1-6.2-3.5-11.4-5.7-14.8-2.2-3.4-4-5.2-3.9-5.3,0,0,.5.4,1.3,1.2.8.8,1.9,2.1,3.1,3.8,2.4,3.4,5.1,8.7,6.1,15,1,6.4.2,12.3-1,16.3-.6,2-1.2,3.6-1.7,4.6-.5,1-.8,1.6-.9,1.6"/>
        </g>
      </g>
      <g>
        <path class="st19" d="M757.3,680.5c1.8-.4,16.4,66.5,14.5,92.5-1.9,26-14.5,202.5-14.5,202.5h-60.2l-10.8-214,2,214h-80.8s-18.7-174-15.4-200.6c3.3-26.6,21.1-96.6,21.1-96.6l144.1,2.3Z"/>
        <path class="st15" d="M692.4,695.9c0,0,.1.9.1,2.5,0,1.6,0,3.9,0,6.8-.1,5.7-.5,13.7-1.2,22.4-.7,8.7-1.7,16.6-2.6,22.3-.4,2.8-.8,5.1-1.1,6.7-.3,1.6-.5,2.5-.5,2.4,0,0,0-.9.2-2.5.2-1.8.5-4,.8-6.8.7-5.7,1.5-13.6,2.3-22.3.7-8.7,1.2-16.6,1.5-22.4.1-2.7.3-5,.4-6.8,0-1.6.2-2.5.2-2.5"/>
        <path class="st15" d="M703.2,701.3s.5-.2,1.3,0c.8.2,2.1.7,3.1,1.9.5.6,1,1.4,1.2,2.3.2.9.2,2-.2,3-.8,2-2.8,3.8-5.4,3.8-2.6,0-4.6-2-5.2-4-.3-1-.4-2.1-.1-3,.3-.9.8-1.7,1.3-2.2,1.1-1.1,2.4-1.5,3.3-1.5.9,0,1.3.2,1.3.3,0,0-.5,0-1.3,0-.8.1-1.9.6-2.9,1.6-1,1-1.5,2.8-.9,4.5.6,1.7,2.3,3.3,4.4,3.3,2.1,0,3.9-1.5,4.6-3.2.7-1.7.2-3.5-.7-4.6-.9-1.1-1.9-1.7-2.7-1.9-.8-.2-1.2-.2-1.2-.3"/>
        <path class="st15" d="M766.3,712.5c0,0-.5.3-1.6.6-1,.3-2.6.6-4.5.8-3.8.4-9.4,0-14.9-2.6-5.4-2.6-9.3-6.6-11.4-9.8-1.1-1.6-1.8-3-2.2-4-.4-1-.6-1.6-.5-1.6.2,0,1,2.2,3.3,5.2,2.2,3.1,6,6.9,11.3,9.4,5.2,2.5,10.6,3,14.4,2.8,3.8-.2,6.1-.9,6.1-.8"/>
        <path class="st19" d="M628.7,392c-4.6,16.6-11.5,29.9-18.2,36.6-6.7,6.7-13.9,14.5-13.7,24,0,3.7,1.3,7.7-.3,11-2.1,4.4-7.7,5.3-12,7.7-6.2,3.5-9.7,10.9-9.5,18.1.3,7.1,3.8,13.9,8.9,19,5.2,5.3,13.5,9,20,5.4,3.9-2.2,6.2-6.4,8.1-10.4,10.3-20.9,19.5-42.2,27.8-63.9"/>
        <path class="st19" d="M670.7,321c11.5-12.8,31.3-17.5,47.3-11.2,16.1,6.3,27.4,23.1,27.2,40.3-.1,11.1-4.5,22.8,0,33,3.1,7.2,10.3,12.7,11.3,20.5,1.1,9.1-6.6,17.3-6.2,26.4.3,6,4,11.2,8.3,15.3,4.3,4.1,9.3,7.5,13.2,12,10.9,12.4,11.6,32.1,3.4,46.4-8.3,14.3-24.2,23.3-40.7,25.3-16.4,1.9-33.2-2.6-47.7-10.5-9.5-5.1-18.4-11.9-24-21.1-5.6-9.2-7.6-21.1-3.1-30.9l11.1-145.4Z"/>
        <path class="st7" d="M705.6,459.5s37.1,11,40.7,16.8c3.6,5.9,15.3,74.8,15.3,74.8l-19.6,28.2s4.3,29.7,5.8,39.6c5.5,34.4,8.5,46.4,9.4,61.7-42.1,27.2-88.4,16.9-138.1-4.8l-3.5-79.4-4.7-126.8,30.6-10.7,64,.6Z"/>
        <path class="st18" d="M744.8,596.5s-.5,0-1.4.1c-1,0-2.3.1-3.9.2-3.5.2-8.4.4-14.3.7-12.2.5-28.9,1.2-47.3,2-18.5.7-35.2,1.3-47.4,1.7-6,.2-10.9.3-14.4.4-1.6,0-2.9,0-3.9,0-.9,0-1.4,0-1.4,0,0,0,.5,0,1.4-.2,1,0,2.3-.1,3.9-.2,3.5-.2,8.4-.4,14.3-.7,12.2-.5,28.9-1.2,47.4-2,18.5-.7,35.2-1.3,47.4-1.7,6-.2,10.9-.3,14.4-.4,1.6,0,2.9,0,3.9,0,.9,0,1.4,0,1.4,0"/>
        <path class="st18" d="M749.3,629.1s-.5.1-1.3.3c-1,.2-2.2.4-3.8.7-3.4.6-8.3,1.4-14.2,2.3-12.1,1.9-28.6,4.5-46.8,7.3-18.3,2.8-34.8,5.2-46.9,7.1-5.9.8-10.8,1.5-14.2,2-1.6.2-2.9.4-3.9.5-.9.1-1.4.1-1.4.1,0,0,.5-.1,1.3-.3,1-.2,2.2-.4,3.8-.7,3.4-.6,8.3-1.4,14.2-2.3,12.1-1.9,28.6-4.5,46.8-7.3,18.3-2.8,34.8-5.2,46.9-7.1,5.9-.8,10.8-1.5,14.2-2,1.6-.2,2.9-.4,3.9-.5.9-.1,1.4-.1,1.4-.1"/>
        <path class="st18" d="M757.3,670.3s-.5,0-1.4.2c-1,0-2.3.2-3.9.3-3.5.2-8.4.5-14.3.9-12.2.7-28.9,1.6-47.3,2.6-18.4.9-35.1,1.8-47.3,2.4-6,.3-10.9.5-14.4.6-1.6,0-2.9,0-3.9.1-.9,0-1.4,0-1.4,0,0,0,.5,0,1.4-.2,1,0,2.3-.2,3.9-.3,3.5-.2,8.4-.5,14.3-.9,12.2-.7,28.9-1.6,47.3-2.6,18.4-.9,35.1-1.7,47.3-2.4,6-.3,10.9-.5,14.4-.6,1.6,0,2.9,0,3.9-.1.9,0,1.4,0,1.4,0"/>
        <path class="st18" d="M737.3,559.2c0,.3-23.9.5-53.4.5s-53.4-.2-53.4-.5,23.9-.5,53.4-.5,53.4.2,53.4.5"/>
        <path class="st7" d="M746.3,476.3l37.2,101,25-49.8,32.7,6.7-18.8,78.4c-2,13.9-10.8,22.1-24.6,24.9-11.5,2.4-23.7,1.5-31.6-7.2l-3.6-3.5c-6.1-6.7-13.2-19.3-15.9-28l-5.4-18.7,5.1-104Z"/>
        <path class="st18" d="M782.8,638.5c0,0-.1-.4-.2-2-.1-1.6-.2-3.9-.3-6.7-.2-5.7-.3-13.5,0-22.1.3-8.6.8-16.4,1.4-22.1.3-2.8-.3-5.2-.1-6.8.2-1.6,0-1.7.2-1.7,0,0,.5,1.4.4,3-.1,1.7.4,2.8.2,5.5-.4,5.6-.8,13.4-1.1,22-.3,8.6-.3,16.4-.2,22.1,0,2.7,0,4.9,0,6.7,0,1.6,0,2,0,2"/>
        <path class="st18" d="M830.9,579.5c0,.2-9.2-3-20.4-7.3-11.2-4.3-20.2-7.9-20.1-8.1,0-.2,9.2,3,20.4,7.3,11.2,4.3,20.2,7.9,20.1,8.1"/>
        <polygon class="st12" points="849 522.7 833.4 534.3 816 530 820.2 525.4 849 522.7"/>
        <path class="st12" d="M836.3,481l17.3,6.9,3.7,14-8.4,20.8-30.7,4.5,9-9.2-1.2-8s-8.6-2.7-8.8-4c-.2-1.3,1.1-5.7,2.4-5.9s10.3,3.1,10.3,3.1c0,0-10.6-8.4-10.3-9.8.3-1.4,1.4-4.8,3.6-5.2,2.1-.4,19.3,7.7,19.3,7.7l2.8,6.3,2.4-10.1s-15.2-4.3-11.5-11.2"/>
        <path class="st25" d="M834.2,513.8c.1,0,.4-.6.6-1.7.2-1.1,0-2.7-.5-4.4-.6-1.6-1.6-2.9-2.5-3.7-.9-.8-1.5-1-1.6-.9-.2.2,2.1,1.8,3.2,4.9,1.2,3,.5,5.8.8,5.8"/>
        <path class="st25" d="M842.4,510.7c.1,0-.5-1.7-.7-4.5-.1-1.4-.2-3.2-.9-5-.3-.9-.8-1.9-1.6-2.7-.8-.8-1.8-1.4-2.8-1.8-4.1-1.5-7.9-2.7-10.6-3.6-2.7-.9-4.4-1.4-4.5-1.2,0,.1,1.6.8,4.3,1.8,2.7,1,6.4,2.4,10.5,3.8,1,.4,1.9.9,2.5,1.6.7.7,1.1,1.5,1.5,2.4.6,1.7.8,3.4,1,4.8.3,2.9,1.2,4.5,1.3,4.5"/>
        <path class="st25" d="M846.4,507.6c.2,0,.2-1.6-.1-3.4-.3-1.8-.7-3.3-1-3.3-.2,0-.2,1.6.1,3.4.3,1.8.8,3.3,1,3.3"/>
        <path class="st7" d="M614.9,721.1l-23.9-44.3c-13.4-31.5-16.3-49.7-14-75.8,3.2-36.5,7.5-84.5,8.8-96.5,2.1-20.1,25.1-34.9,25.1-34.9,31.7,2.1,24.6,64.7,24.6,64.7l-12.7,72,18.3,101.9s-2.7,6.5-11.8,10.2c-9.3,3.8-14.5,2.6-14.5,2.6Z"/>
        <path class="st19" d="M622.9,606.3c0,0,0-1,.1-2.9.1-1.9.4-4.5.8-7.8.8-6.6,2.2-15.6,4.1-25.6,1.8-9.9,3.7-18.9,5.2-25.4.7-3.2,1.3-5.8,1.8-7.6.5-1.8.7-2.8.8-2.8,0,0-.1,1-.4,2.8-.4,2-.9,4.6-1.5,7.7-1.3,6.5-3.1,15.5-4.9,25.4-1.8,9.9-3.3,18.9-4.3,25.5-.4,3.2-.8,5.8-1.1,7.8-.2,1.8-.4,2.8-.5,2.8"/>
        <path class="st19" d="M743.4,587.8c0,0,0-.7-.3-2-.3-1.4-.6-3.2-1.1-5.4-.9-4.6-1.9-10.9-2.9-18-1-7.1-1.8-13.5-2.4-18.2-.3-2.2-.5-4.1-.7-5.5-.2-1.3-.3-2-.4-2,0,0,0,.8,0,2.1,0,1.3.2,3.2.4,5.6.4,4.7,1.1,11.2,2.1,18.3,1,7.1,2.1,13.4,3.2,18,.5,2.3,1,4.1,1.4,5.3.4,1.2.6,1.9.7,1.9"/>
        <path class="st19" d="M640,700.7s-.1-.3-.3-.9c-.2-.7-.4-1.6-.6-2.7-.5-2.4-1.2-5.8-2.1-10.1-1.7-8.6-3.8-20.5-6.1-33.6-2.2-13.1-4.3-24.9-5.8-33.6-.7-4.2-1.3-7.7-1.8-10.2-.2-1.1-.3-2-.5-2.8,0-.6-.1-1-.1-1,0,0,.1.3.3.9.2.7.4,1.6.6,2.7.5,2.4,1.2,5.9,2.1,10.1,1.7,8.6,3.8,20.5,6.1,33.6,2.2,13.1,4.3,24.9,5.8,33.6.7,4.2,1.3,7.7,1.8,10.2.2,1.1.3,2,.5,2.8,0,.6.1,1,0,1"/>
        <path class="st18" d="M626.8,579c0,0-.7,0-1.9,0-1.4-.1-3.1-.2-5.1-.4-4.3-.3-10.3-.7-17-1-6.6-.3-12.6-.4-17-.4-2,0-3.7,0-5.2,0-1.2,0-1.9,0-1.9-.1,0,0,.7-.1,1.9-.2,1.2,0,3-.2,5.2-.2,4.4-.1,10.4-.2,17,.1,6.6.3,12.7.8,17,1.3,2.2.3,3.9.5,5.1.7,1.2.2,1.9.3,1.9.4"/>
        <path class="st18" d="M773.8,550.7c0,0-.4.4-1.3.9-1,.6-2.2,1.4-3.6,2.3-3.1,1.9-7.3,4.6-11.9,7.6-4.6,3.1-8.6,6-11.5,8.2-1.3,1-2.5,1.8-3.5,2.5-.8.6-1.3.9-1.3.8,0,0,.4-.4,1.1-1.1.8-.7,1.9-1.6,3.3-2.8,2.8-2.3,6.8-5.3,11.4-8.4,4.6-3.1,8.9-5.7,12.1-7.4,1.6-.9,2.9-1.6,3.8-2,.9-.4,1.4-.7,1.5-.6"/>
        <path class="st18" d="M635.6,529.3c0,.3-11.7,0-26.1-.6-14.4-.6-26.1-1.3-26.1-1.6,0-.3,11.7,0,26.1.6,14.4.6,26.1,1.3,26.1,1.6"/>
        <path class="st18" d="M576.7,636c0,0,.5-.6,1.4-1.5,1-.9,2.4-2.2,4.3-3.8,3.8-3.1,9.2-7,15.8-10.7,6.5-3.7,12.8-6.4,17.5-8.1,2.3-.9,4.2-1.5,5.6-1.9,1.3-.4,2.1-.6,2.1-.5,0,.2-2.8,1.2-7.4,3-4.6,1.9-10.7,4.7-17.2,8.3-6.5,3.7-12,7.5-15.8,10.4-3.9,2.9-6.1,4.8-6.3,4.7"/>
        <path class="st18" d="M631.7,658.3c.1.2-8.4,5.5-19,11.8-10.6,6.3-19.3,11.2-19.5,11-.1-.2,8.4-5.5,19-11.8,10.6-6.3,19.3-11.2,19.5-11"/>
        <path class="st21" d="M660.8,647.9h-.2c0,.2,0,.3,0,.4,0,.2.1.4.1.4,0,0,0-.1,0-.4,0,0,0-.2,0-.3"/>
        <path class="st19" d="M632.3,365.4c2.2-5,.3-11.4-4.3-14.5-4.5-3.1-11.1-2.7-15.3.8-4.2,3.5-6,9.6-4.4,14.9,1.9,6.3,8.5,10.8,15,10.3,6.5-.5,12.4-5.9,13.4-12.3"/>
        <path class="st12" d="M649.6,335.2v8.5c0,0-1.9,126.5-1.9,126.5-.2,14.7,12.3,26.6,28,26.7,15.9.1,29.1-11.8,29.6-26.7.5-15.6,1.3-31.9,1.3-31.9,0,0,20.1-2.8,25-28.8,2.4-13,2.4-34.3,1.7-51.8-.6-15.7-14.1-27.8-29.8-26.6l-53.9,4.2Z"/>
        <path class="st19" d="M724.4,372.8c0,1.8-1.5,3.2-3.3,3.3-1.8,0-3.4-1.3-3.4-3.1,0-1.8,1.5-3.2,3.3-3.3,1.9,0,3.4,1.4,3.4,3.1"/>
        <path class="st19" d="M728.4,368.6c-.4.4-2.9-1.5-6.5-1.6-3.6-.1-6.3,1.6-6.7,1.2-.2-.2.3-1,1.4-1.8,1.2-.8,3.1-1.6,5.4-1.5,2.2,0,4.1,1,5.2,1.8,1.1.9,1.4,1.7,1.2,1.9"/>
        <path class="st19" d="M689.1,372.5c0,1.8-1.5,3.2-3.3,3.3-1.8,0-3.4-1.3-3.4-3.1,0-1.8,1.5-3.2,3.3-3.3,1.9,0,3.4,1.3,3.4,3.1"/>
        <path class="st19" d="M692.8,368.2c-.4.4-2.9-1.5-6.5-1.6-3.6-.1-6.3,1.6-6.7,1.2-.2-.2.3-1,1.4-1.8,1.2-.8,3.1-1.6,5.4-1.5,2.3,0,4.1,1,5.2,1.8,1.1.9,1.4,1.7,1.2,1.9"/>
        <path class="st19" d="M705.2,395.4c0-.2,2.2-.5,5.9-.9.9,0,1.8-.2,2-.9.2-.7-.1-1.7-.5-2.7-.8-2.3-1.6-4.6-2.5-7.1-3.5-10.1-6-18.4-5.6-18.5.4-.1,3.6,7.9,7.1,18,.8,2.5,1.6,4.9,2.4,7.1.3,1.1.9,2.3.4,3.6-.3.7-1,1.2-1.6,1.3-.6.2-1.1.2-1.6.2-3.7,0-5.9,0-5.9-.2"/>
        <path class="st25" d="M706.5,438.2s-17.6.6-34.8-10.3c0,0,8,18.2,34.3,16.5l.5-6.2Z"/>
        <path class="st25" d="M703.4,404c-1.3-1.8-3.5-2.8-5.8-2.6-1.6.1-3.2.8-4.2,2.1-1,1.2-1.2,3.1-.4,4.3.9,1.4,3,1.8,4.7,1.3,1.7-.4,3.3-1.5,4.7-2.6.4-.3.8-.6,1.1-1,.3-.4.3-1,0-1.3"/>
        <path class="st19" d="M694.5,397.6c.6,0,.5,3.9,3.8,6.8,3.3,2.9,7.5,2.6,7.5,3.1,0,.2-1,.7-2.7.7-1.7,0-4.2-.6-6.2-2.4-2-1.8-2.8-4.1-2.9-5.7-.1-1.6.4-2.6.6-2.6"/>
        <path class="st19" d="M694.2,354.1c-.4,1-4,.4-8.2.8-4.3.3-7.7,1.5-8.2.6-.2-.4.4-1.3,1.8-2.2,1.4-.9,3.6-1.8,6.2-2,2.6-.2,4.9.3,6.4.9,1.5.7,2.3,1.5,2.1,1.9"/>
        <path class="st19" d="M727.3,358.1c-.7.8-3.1-.1-6.1-.2-3-.2-5.5.4-6.1-.5-.2-.4.2-1.2,1.3-2,1.1-.7,3-1.3,5-1.2,2.1.1,3.8.9,4.8,1.8,1,.9,1.4,1.7,1.1,2.1"/>
        <path class="st19" d="M682.5,326.9c7,9.3-.3,22.5-8.3,30.8-8.1,8.4-17.9,18.1-15.7,29.6,2.5,13.2,20.7,21.7,18,34.9-1,4.8-4.8,8.9-4.8,13.9,0,8.9,11.5,13.2,14.8,21.4,4.5,11.3-7.9,22.6-8.1,34.7-.1,6.9,3.8,13.4,4,20.3.4,14.2-16.3,24.5-30,21-13.7-3.5-23.1-16.9-26.1-30.7-3-13.8,1.5-33.3,3.8-47.3l-23.8,5.5c-4.4-4.2,1.6-8.7,2.6-14.8,2.5-15.1,12.5-28,17.2-42.6,4.1-12.8,4.2-26.4,6-39.7,1.8-13.3,5.9-27.1,16.1-35.9,10.2-8.8,27.7-9.8,35.9.8"/>
        <path class="st15" d="M629.1,369.9c0-.2,4,1.1,10.5.3,6.4-.7,15.1-3.9,22.8-10.3,7.6-6.4,12.9-13.8,16.6-19.2,1.8-2.6,3.2-4.7,4.4-6.4,1-1.5,1.6-2.3,1.7-2.3,0,0-.4.9-1.4,2.5-.9,1.6-2.3,3.8-4.1,6.6-3.6,5.4-8.8,13-16.6,19.5-7.8,6.5-16.7,9.7-23.3,10.2-3.3.3-6,0-7.8-.3-.9-.1-1.6-.4-2.1-.5-.5-.1-.7-.2-.7-.2"/>
        <path class="st15" d="M660.1,373.4c0,0-1.3,1.3-3.8,2.7-2.5,1.4-6.3,2.9-10.7,3.5-4.4.6-8.4.3-11.2-.3-2.8-.6-4.5-1.4-4.4-1.5,0-.2,1.7.4,4.5.8,2.8.4,6.7.7,11,0,4.3-.6,8-2,10.5-3.2,2.6-1.2,4-2.2,4.1-2.1"/>
        <path class="st15" d="M745.2,355.8c0,.2-4,.3-8.1-2.2-4.2-2.4-6-6-5.8-6.1.2-.2,2.4,3,6.3,5.3,3.9,2.4,7.7,2.7,7.7,3"/>
        <path class="st15" d="M743.5,364.6c0,.2-2.2.8-5,.1-2.8-.7-4.5-2.3-4.3-2.5.2-.2,2,.9,4.6,1.6,2.5.7,4.7.5,4.8.8"/>
        <path class="st18" d="M631.1,375.6c-.2,0-1.2-3.8-.8-8.7.4-4.9,2.1-8.5,2.3-8.4.3,0-.9,3.8-1.3,8.5-.4,4.7.1,8.5-.2,8.6"/>
        <path class="st18" d="M756.9,504.8c0,0-1,.2-2.9.3-2.1.1-4.8.3-8,.5-6.8.4-16.1.9-26.5,1.7-10.3.8-19.7,1.6-26.4,2.3-3.3.3-6,.6-8,.8-1.9.2-2.9.2-3,.2,0,0,1-.2,2.9-.5,1.9-.3,4.6-.6,8-1.1,6.7-.8,16.1-1.8,26.4-2.6,10.3-.8,19.7-1.2,26.5-1.4,3.4,0,6.1-.2,8-.2,1.9,0,3,0,3,0"/>
        <path class="st15" d="M608.8,720.3c0,0,.5.3,1.6.6,1,.3,2.6.6,4.5.8,3.8.4,9.4,0,14.9-2.6,5.4-2.6,9.3-6.6,11.4-9.8,1.1-1.6,1.8-3,2.2-4,.4-1,.6-1.6.5-1.6-.2,0-1,2.2-3.3,5.2-2.2,3.1-6,6.9-11.3,9.4-5.2,2.5-10.6,3-14.4,2.8-3.8-.2-6.1-.9-6.1-.8"/>
        <path d="M779.9,638.1c-9.7-2-17-9.6-22.5-17.3-1.2-1.5-2.4-3.5-3.5-5.2-1.7-2.7-3.5-6.2-4.8-9.2-2.7-6.2-4.8-13.2-6-19.8,1.4,4.6,3.4,11.2,5.1,15.7,1.5,3.6,3.3,7.8,5.1,11.3,1.3,2.4,2.7,4.9,4.2,7.1,2.2,3.3,5.3,6.5,8.3,9.1,4.1,3.6,8.9,6.7,14,8.3h0Z"/>
      </g>
    </g>
  </g>
</svg>