<?xml version="1.0" encoding="UTF-8"?><svg id="a" xmlns="http://www.w3.org/2000/svg" viewBox="0 0 200 200"><defs><style>.b{fill:#fff;}.c{fill:#ff001f;}</style></defs><path class="c" d="M169.2367379,45.6776081h-15.4580127v-15.3312215c-14.8722015-11.4995988-33.5246524-18.3464376-53.7787472-18.3464376C51.3989112,11.9999491,12.0000059,51.3989101,12.0000059,99.9999769s39.3989054,88.0000278,87.9999722,88.0000278c48.6011225,0,88.0000278-39.398961,88.0000278-88.0000278,0-20.5001077-7.009864-39.362894-18.763268-54.3223688Z"/><path class="b" d="M142.2748708,73.7059268l-.0523791.0524384c4.5741256,7.4159298,7.2174042,16.14373,7.2174042,25.4782665,0,26.8404494-21.8360768,48.6765773-48.6765761,48.6765773-26.8404487,0-48.6765761-21.8361279-48.6765761-48.6765773,0-26.8405,21.8361274-48.6766279,48.6765761-48.6766279,9.3345362,0,18.0622856,2.6433293,25.4782658,7.2174637l.0521853-.0521853v-16.3660363c-7.8129124-3.4597684-16.4503625-5.3863724-25.5304511-5.3863724-34.8839684,0-63.2637,28.3797889-63.2637,63.2637582s28.3797316,63.2637076,63.2637,63.2637076,63.2637566-28.3797383,63.2637566-63.2637076c0-9.0802407-1.9265948-17.717691-5.3864735-25.5307048h-16.3657322Z"/><path class="b" d="M119.2936028,99.2366317c0,10.2176371-8.3125954,18.5302327-18.5302829,18.5302327-10.2176369,0-18.5302323-8.3125956-18.5302323-18.5302327,0-10.2176877,8.3125954-18.5302833,18.5302323-18.5302833.8103652,0,1.6069121.0580062,2.3900535.1593398l11.6251641-11.6251721c-4.2594029-1.9981753-9.0076063-3.121298-14.0152176-3.121298-18.2611566,0-33.1173622,14.856206-33.1173622,33.1174137,0,18.2611571,14.8562056,33.1173631,33.1173622,33.1173631,18.2612072,0,33.1174128-14.856206,33.1174128-33.1173631,0-5.0076115-1.1231732-9.7558656-3.1213485-14.015218l-11.6251212,11.6251215c.1013336.7831843.1593398,1.5797313.1593398,2.3900965Z"/><path d="M176.4635423,44.0693512h-20.5330304v-20.5332665l-.0000394-2.3218586-22.1422935,22.1427658c-.1802545.1803332-.2817165.4249755-.2816771.6799687l-.0000394,16.3358956-35.8033781,35.8033781c-1.6900234,1.6900234-1.6900627,4.4305604-.0000394,6.1205837,1.6900234,1.6900234,4.4305604,1.689984,6.1205837-.0000394l35.8033781-35.8033781,16.3358956-.0000394c.2549932.0000394.4996355-.1014227.6799687-.2816771l22.1427264-22.1423328h-2.3220554Z"/></svg>