<?xml version="1.0" encoding="UTF-8"?><svg id="a" xmlns="http://www.w3.org/2000/svg" xmlns:xlink="http://www.w3.org/1999/xlink" viewBox="0 0 200 200"><defs><style>.c,.d{fill:none;}.e{stroke-width:2.0968029px;}.e,.d{stroke:#000;stroke-miterlimit:10;}.f{fill:#fff;}.g{fill:#ff001f;}.h{fill:#ff001f;}.d{stroke-width:8px;}.i{clip-path:url(#b);}</style><clipPath id="b"><circle class="c" cx="100" cy="100" r="75.7444037"/></clipPath></defs><circle class="h" cx="99.9999788" cy="99.8997655" r="88"/><polygon class="f" points="139.0889957 152.9057928 144.4754518 138.1084679 108.2344722 154.6555059 102.5459151 140.457176 138.2071144 124.6690293 123.3997908 119.2828571 131.8082384 106.5571852 167.0689571 119.3902597 154.2368503 154.6555059 139.0889957 152.9057928"/><g class="i"><path class="e" d="M65.5789622,145.9460117l12.1909309,4.8784352-8.1539892,35.6716928-18.9775636-1.4073537,9.6651398-42.2877889c1.5574384,1.2966091,3.3273315,2.3716021,5.2754821,3.1450147Z"/><path d="M88.5047183,182.8742865l2.2822266-30.3505859-22.9296875-9.1787109c-5.7275391-2.3359375-8.9873047-8.2041016-7.9433594-14.2773438l4.2148438-23.5732422-1.2451172.4892578-8.3681641,23.140625-21.3847656-7.8974609,10.1181641-27.9013672c1.1337891-3.0625,3.5107422-5.4902344,6.5292969-6.6767578l18.0458984-7.0986328c2.7734375-1.09375,5.7119141-1.6484375,8.7314453-1.6484375,2.2421875,0,4.4619141.3115234,6.6005859.9248047l16.3193359,4.6308594,15.4140625-3.1337891,14.4726562-19.4472656,8.7109375,24.7314453-7.9052734,10.8603516c-1.6464844,2.7802734-4.3925781,4.734375-7.5566406,5.3710938l-20.0263672,3.7421875-6.4716797,21.1572266,13.0185547,5.2109375c5.2060547,2.0810547,8.4638672,7.2294922,8.1054688,12.8105469l-2.8632812,40.0332031-25.8691406-1.9189453Z"/><path class="g" d="M128.5642887,66.1360205l6.7138672,19.0625-7.2050781,9.8993835c-1.2792969,2.2226562-3.4462891,3.7851562-5.9550781,4.2900543l-21.4804688,4.0136566-7.5869141,24.8037109,15.1523361,6.0654449c4.200203,1.6787109,6.8281327,5.8291168,6.5390702,10.3291168l-2.6828918,37.5144501-20.8740234-1.5478516,2.2326965-29.6824493-24.6318359-9.8603363c-4.6191406-1.8837891-7.2519531-6.625-6.4082031-11.5322418l4.9990234-27.9609222-6.4599609,2.5400238-7.8964844,21.8369293-16.6923887-6.1650238,9.2715055-25.5644836c.8818054-2.382782,2.7372894-4.2763672,5.0927582-5.2021332l18.046875-7.0995941c2.4870605-.9806213,5.1485901-1.474823,7.8167725-1.4747314,1.9898376.0000763,3.9837036.2750549,5.90979.8282318l16.9121094,4.7988434,16.9462891-3.4453278,12.2402344-16.4472504M130.160358,55.6165198l-5.6071777,7.5343628-11.0988159,14.9135284-13.8813477,2.8221893-15.7424927-4.4669495c-2.3467712-.6740265-4.799408-1.0180359-7.2744446-1.0181427-3.3353271-.0001068-6.5823669.613327-9.651001,1.8232422l-18.0433044,7.0982056c-3.6781616,1.4456177-6.5769196,4.4053192-7.9515076,8.1196594l-9.2827301,25.5951385-1.6947479,4.6728973,4.6628723,1.7221222,16.6923981,6.1650238,4.7223969,1.7441406,1.5396423-4.2577362-.0942841.5272827c-1.2503662,7.271347,2.6346893,14.2658234,9.4420319,17.0420074l21.2591248,8.5103149-1.9577942,26.0276489-.3753967,4.9912109,4.9916077.3701477,20.8740234,1.547821,4.9993896.3707275.357605-5.0003662,2.6828918-37.5144501c.430481-6.699585-3.4568787-12.8451691-9.6707153-15.3286591l-10.882019-4.3560486,5.3564148-17.5115356,18.5033875-3.4573975.0341187-.0063934.0339966-.0068359c3.8182068-.7684021,7.1373901-3.1092224,9.1511536-6.4416962l7.0651245-9.7071228,1.5464172-2.1247101-.8729553-2.4786377-6.7138672-19.0625-3.1199951-8.85849h0Z"/></g><path d="M160.1178367.1298378l-1.0601258,1.294449c-5.9680164,7.2826518-14.3685497,8.0916167-23.261681,8.9482547-8.8995201.857411-18.10189,1.7438154-24.5850296,9.6562615l-.361773.4410126,12.4702934,32.0710004,1.0601258-1.294449c5.968036-7.2835617,14.3685693-8.0925266,23.2617006-8.9491646,8.8995006-.8565011,18.1018705-1.7429055,24.58501-9.6553516l.361773-.4410126L160.1178367.1298378Z"/><line class="d" x1="144.5722345" y1="99.0693061" x2="125.0426378" y2="45.5002548"/><path d="M96.945148,44.475849c-4.6738281-.3408203-9.2138672,1.1494141-12.7685547,4.2128906-3.5537109,3.0625-5.7021484,7.3261719-6.0488281,12.0058594-.3466797,4.6787109,1.1494141,9.2128906,4.2119141,12.7675781,3.0634766,3.5537109,7.328125,5.7021484,12.0078125,6.0498047.4433594.0322266.8847656.0488281,1.3242188.0488281,4.2041016,0,8.2246094-1.4892578,11.4423828-4.2617188,3.5537109-3.0634766,5.7021484-7.328125,6.0488281-12.0068359.7158203-9.6582031-6.5585938-18.0996094-16.2177734-18.8164062Z"/></svg>