<?xml version="1.0" encoding="UTF-8"?><svg id="a" xmlns="http://www.w3.org/2000/svg" viewBox="0 0 1000 1000"><defs><style>.b{fill:#9dbcff;opacity:.6;}</style></defs><path class="b" d="M247.9158487,446.8268476v115.3497203h70.4205419c3.3073922,10.3885957,7.5071515,20.3763921,12.4664792,29.912095l-49.8442867,49.8333763,81.5867003,81.5558569,49.8392565-49.8283475c9.5393742,4.9589477,19.5314713,9.1580364,29.9244797,12.4650073v70.3928185h115.3819608v-70.3928185c10.3930084-3.3069709,20.3851055-7.5060596,29.9244797-12.4650073l49.8392565,49.8283475,81.5867003-81.5558569-49.8442867-49.8333763c4.9593277-9.5357029,9.159087-19.5234994,12.4664792-29.912095h70.4205419v-115.3497203h-70.4205419c-3.3078952-10.3906072-7.5081576-20.3809181-12.4684913-29.9186325l49.8462988-49.834885-81.5867003-81.5558569-49.8407655,49.8298562c-9.5388712-4.9594506-19.5304653-9.1585393-29.9229707-12.4655102v-70.3938243h-115.3819608v70.3938243c-10.3925054,3.3069709-20.3835964,7.5050538-29.9224676,12.4645044l-49.8372444-49.8288504-81.5947488,81.5558569,49.8478079,49.8399138c-4.9593277,9.5362058-9.158584,19.5245051-12.4659762,29.9136037h-70.4205419ZM441.0172503,504.5017077c0-32.5145243,26.4591376-58.9702916,58.9827497-58.9702916s58.9827497,26.4557673,58.9827497,58.9702916-26.4591376,58.9622454-58.9827497,58.9622454-58.9827497-26.4477212-58.9827497-58.9622454ZM892.505551,443.5529034l106.1981334,20.3305921c10.0326907,139.8514743-38.1609601,283.148839-144.8884202,389.8223685-195.0888503,195.058848-512.5389883,195.058848-707.6398962,0l-81.4797409,81.4690277L8.7340965,643.0175568l292.2393953,55.9454918-81.4922004,81.4694295c154.6871943,154.643971,406.3529125,154.643971,561.0401068,0,91.6973142-91.6837459,129.0210779-217.4322231,111.9841527-336.8795748ZM146.1874256,146.2757534c195.0888503-195.0343379,512.5269307-195.0343379,707.6278386,0l81.4922004-81.4694295,55.9486692,292.1577367-292.2269358-55.9454918,81.4801428-81.4449193c-154.6751368-154.643971-406.3529125-154.643971-561.0280492,0-91.6969122,91.6592358-129.0210779,217.4077129-111.9962103,336.8550646L1.2990054,536.0981219C-8.7461448,396.2466476,39.4599655,252.9737931,146.1874256,146.2757534Z"/></svg>