<?xml version="1.0" encoding="UTF-8"?><svg id="a" xmlns="http://www.w3.org/2000/svg" xmlns:xlink="http://www.w3.org/1999/xlink" viewBox="0 0 200 200"><defs><style>.d{fill:none;}.e{fill:#fff;}.f{fill:#ff001f;}.g{fill:#ebebde;}.h{clip-path:url(#c);}.i{clip-path:url(#b);}</style><clipPath id="b"><circle class="d" cx="99.9999788" cy="99.8997655" r="88"/></clipPath><clipPath id="c"><circle class="d" cx="130.3595704" cy="129.9557005" r="29.6788795"/></clipPath></defs><circle class="g" cx="99.9999788" cy="99.8997655" r="88"/><path class="f" d="M118.6788462,104.0119236v-20.2741395h-12.3739461c-.5810716-1.8258804-1.3191113-3.5814789-2.1904775-5.2574676l8.7582108-8.7588542-14.335887-14.3346004-8.7574067,8.75805c-1.6761495-.871527-3.4319089-1.6095667-5.2581109-2.19096v-12.3723378h-20.2743004v12.3723378c-1.826202.5813932-3.5819614,1.319433-5.2581109,2.19096l-8.7574067-8.75805-14.3360478,14.3346004,8.7583717,8.7588542c-.8713661,1.6759887-1.6094059,3.4315872-2.1904775,5.2574676h-12.3739461v20.2741395h12.3739461c.5812324,1.8263629,1.3192722,3.5822831,2.1907991,5.2585934l-8.7586933,8.7591758,14.3360478,14.3346004,8.7577284-8.7583717c1.6759887.8716878,3.431748,1.6097275,5.2577892,2.19096v12.3726595h20.2743004v-12.3726595c1.8260412-.5812324,3.5816397-1.3191113,5.2577892-2.1907991l8.757085,8.7582108,14.3373344-14.3346004-8.759015-8.7599799c.871527-1.6761495,1.6094059-3.431748,2.1904775-5.2577892h12.3739461ZM74.3840787,104.239656c-5.7148624,0-10.3640785-4.6498594-10.3640785-10.3647218s4.6492161-10.3634352,10.3640785-10.3634352,10.3640785,4.6485727,10.3640785,10.3634352-4.6492161,10.3647218-10.3640785,10.3647218Z"/><g class="i"><path class="g" d="M130.3591412,178.4465522c-26.7382812,0-48.4912109-21.7539062-48.4912109-48.4921875,0-26.7373047,21.7529297-48.4892578,48.4912109-48.4892578s48.4912109,21.7519531,48.4912109,48.4892578c0,26.7382812-21.7529297,48.4921875-48.4912109,48.4921875Z"/><path class="g" d="M130.3595685,85.227497c24.6636353,0,44.7282104,20.0645294,44.7282104,44.7272644,0,24.6646118-20.0645752,44.7291565-44.7282104,44.7291565s-44.729126-20.0645447-44.729126-44.7291565c0-24.662735,20.0654907-44.7272644,44.729126-44.7272644M130.3595685,77.7028235c-28.8128662,0-52.2537842,23.4401245-52.2537842,52.2519379,0,28.8128662,23.440918,52.2538147,52.2537842,52.2538147,28.8123169,0,52.2528687-23.4409485,52.2528687-52.2538147,0-28.8118134-23.4405518-52.2519379-52.2528687-52.2519379h0Z"/></g><circle class="e" cx="130.3595704" cy="129.9557005" r="29.6788795"/><rect x="158.5028267" y="145.8582681" width="23.976847" height="50.8708753" rx="6.7035335" ry="6.7035335" transform="translate(-71.1872098 170.726284) rotate(-45)"/><g class="h"><path class="f" d="M160.03845,110.4074466v-28.3564597h-17.3068408c-.8127168-2.5537707-1.8449773-5.0092416-3.063715-7.353366l12.2496865-12.2505862-20.0509127-20.0491132-12.2485618,12.2494615c-2.3443493-1.2189627-4.8000452-2.2512232-7.3542657-3.0643899v-17.3045913h-28.3566846v17.3045913c-2.5542206.8131667-5.0099164,1.8454272-7.3542657,3.0643899l-12.2485618-12.2494615-20.0511376,20.0491132,12.2499114,12.2505862c-1.2187377,2.3441244-2.2509983,4.7995953-3.063715,7.353366h-17.3068408v28.3564597h17.3068408c.8129417,2.5544455,1.8452022,5.0103663,3.0641649,7.3549406l-12.2503613,12.2510361,20.0511376,20.0491132,12.2490116-12.2499114c2.3441244,1.2191876,4.7998202,2.2514481,7.3538159,3.0643899v17.3050412h28.3566846v-17.3050412c2.5539956-.8129417,5.0094665-1.8449773,7.3538159-3.0641649l12.2481119,12.2496865,20.0529372-20.0491132-12.2508112-12.2521608c1.2189627-2.3443493,2.2509983-4.7998202,3.063715-7.3538159h17.3068408ZM98.0854981,110.7259649c-7.9931021,0-14.495736-6.5035337-14.495736-14.4966358s6.5026339-14.4948362,14.495736-14.4948362,14.495736,6.5017342,14.495736,14.4948362-6.5026339,14.4966358-14.495736,14.4966358Z"/></g><path d="M130.3595704,174.6839057c-24.6636623,0-44.7291237-20.0645429-44.7291237-44.7291237,0-24.6627438,20.0654614-44.7272867,44.7291237-44.7272867s44.7282052,20.0645429,44.7282052,44.7272867c0,24.6645809-20.0645429,44.7291237-44.7282052,44.7291237ZM130.3595704,100.276821c-16.3655906,0-29.6797981,13.313289-29.6797981,29.677961s13.3142075,29.6797981,29.6797981,29.6797981c16.364672,0,29.6788795-13.315126,29.6788795-29.6797981s-13.3142075-29.677961-29.6788795-29.677961Z"/><path d="M171.1827933,52.5964981v-14.6163855h-8.9208406c-.4189162-1.3163455-.9509967-2.5820221-1.5791971-3.790305l6.3141218-6.3145856-10.3352771-10.3343495-6.313542,6.3140058c-1.2083989-.6283164-2.4741915-1.1603968-3.7907688-1.579545v-8.9196811h-14.6165014v8.9196811c-1.3165773.4191481-2.5823699.9512286-3.7907688,1.579545l-6.313542-6.3140058-10.3353931,10.3343495,6.3142377,6.3145856c-.6282004,1.2082829-1.1602809,2.4739596-1.5791971,3.790305h-8.9208406v14.6163855h8.9208406c.4190322,1.3166933.9511126,2.5826018,1.579429,3.7911167l-6.3144696,6.3148175,10.3353931,10.3343495,6.3137739-6.3142377c1.2082829.6284323,2.4740755,1.1605128,3.7905369,1.579545v8.919913h14.6165014v-8.919913c1.3164614-.4190322,2.5821381-.9509967,3.7905369-1.579429l6.3133101,6.3141218,10.3363206-10.3343495-6.3147015-6.3153972c.6283164-1.2083989,1.1602809-2.4740755,1.5791971-3.7905369h8.9208406ZM139.2490387,52.7606789c-4.1200581,0-7.4718518-3.3522575-7.4718518-7.4723156s3.3517937-7.471388,7.4718518-7.471388,7.4718518,3.35133,7.4718518,7.471388-3.3517937,7.4723156-7.4718518,7.4723156Z"/></svg>