<?xml version="1.0" encoding="UTF-8"?><svg id="a" xmlns="http://www.w3.org/2000/svg" viewBox="0 0 200 200"><defs><style>.b{fill:#fff;}.c{fill:#ff001f;}.d{fill:#ebebde;}</style></defs><circle class="d" cx="99.9999788" cy="99.8997655" r="88"/><path d="M50.0135929,118.4286503s-1.7575824-8.7245323-1.7575824-15.1883543,3.3659729-11.260472,11.5714198-13.7613111c3.7174378,5.0962405,9.5707214,8.5433835,16.2892068,8.9962089l-.0067302.0067982v.0607755c0,3.3051973.6556145,6.4548528,1.8316282,9.3409436-7.651193,2.737415-12.040928,8.8558587-13.9604565,13.4181717l-13.9674858-2.8732326Z"/><path d="M100.895114,118.3129041c10.9022769,0,19.7768668-8.8745898,19.7768668-19.7768668s-8.8745898-19.7768668-19.7768668-19.7768668-19.7767988,8.8678596-19.7767988,19.7768668c0,10.9022769,8.8745218,19.7768668,19.7767988,19.7768668Z"/><path d="M76.5694625,93.7979919c1.8316962-9.4017871,8.9827485-16.9178326,18.1817465-19.2767261-1.0070794-8.5703722-8.3136057-15.2482726-17.1543406-15.2482726-9.5370025,0-17.289556,8.1040184-17.289556,17.289488,0,9.1855376,7.2050977,16.7015152,16.2621501,17.2355107Z"/><path d="M129.9509251,61.091297c-2.2841137-1.1467136-4.8389302-1.8183038-7.5477929-1.8183038-8.840803,0-16.1472612,6.6779004-17.1544086,15.2482726,9.198998,2.3588935,16.3500503,9.874939,18.1817465,19.2767261,8.1182265-.4786584,14.7309326-6.5725289,16.0182321-14.4445261l-23.2973618-4.4606806,13.7995847-13.8014882Z"/><path d="M122.0583974,107.8837111c7.651193,2.737415,11.6052067,7.137524,13.5247351,11.6998371h12.217313c2.3994785-5.8560709,3.690721-12.1371627,3.7962284-18.5832458-.7189734-5.3888333-4.1874625-9.3157224-11.4241717-11.5213174-3.7174378,5.0962405-9.5707214,8.5433835-16.2892068,8.9962089l.0067982.0067982v.0607755c0,3.3051973-.6556145,6.4548528-1.8316962,9.3409436Z"/><path d="M68.5330178,140.4256186v.5102699c8.973571,6.9101256,19.9705463,10.6716834,31.4680702,10.6716834,12.3254037,0,23.9721472-4.2813451,33.2561901-12.1216629v-11.5211814c0-7.2929299-3.7782813-12.5244539-13.0245945-15.2685991-4.3663221,5.947914-11.4092157,9.8208257-19.3375697,9.8208257-7.928286,0-14.9711796-3.8729117-19.3375017-9.8208257-6.6672953,1.9738457-10.4790915,5.2509667-12.0937224,9.6586896l14.3847703,2.7540705-15.3156423,15.31673Z"/><path class="c" d="M174.7491568,94.5889222l-.1033183-1.4401096-1.4181295-.271578-15.5167929-2.9716659-2.5861322-.4953168.3714289,2.6068193c2.5214847,17.6954112-3.2496498,35.0606503-15.8338004,47.6430965-10.5765541,10.5774357-24.6619942,16.4025802-39.6617252,16.4025802-14.36983,0-27.9001838-5.345872-38.3104177-15.0948215l10.5552792-10.5536924,2.5088491-2.5084965-3.4844963-.6672202-42.7025051-8.1774881-2.7208339-.5210583.5208819,2.7208927,8.1756662,42.7042682.6671027,3.4844375,2.508614-2.508614,10.5953019-10.5953019c13.9816516,13.3115516,32.2609466,20.6185915,51.6863817,20.6185915,20.0545721,0,38.8878955-7.7887807,53.0306368-21.931522,15.365753-15.3658118,23.2817716-36.6677266,21.7180092-58.4438009Z"/><path class="b" d="M173.6340475,78.741781l-8.1775469-42.704327-.667279-3.4844375-2.5084377,2.5087903-10.59348,10.5950668c-13.9816516-13.313256-32.2612405-20.6211186-51.6872633-20.6211186-20.0551598,0-38.8888359,7.7897798-53.0316359,21.934343-15.3640487,15.3605812-23.2800085,36.662496-21.7179504,58.4435071l.1032596,1.4402859,1.418247.271578,15.5184972,2.9716659,2.5863672.4952581-.3717227-2.6069956c-2.522954-17.6938244,3.2477104-35.0603565,15.8323311-47.6466228,10.5772006-10.5772006,24.6629345-16.4024039,39.6623717-16.4024039,14.3696537,0,27.9004189,5.3459896,38.3114168,15.0949978l-10.5571599,10.5571599-2.5084965,2.5084377,3.4842024.6672202,42.7043858,8.1774881,2.7209514.5210583-.5210583-2.7209514Z"/><path d="M76.5694625,93.7979919c1.8316962-9.4017871,8.9827485-16.9178326,18.1817465-19.2767261-1.0070794-8.5703722-8.3136057-15.2482726-17.1543406-15.2482726-9.5370025,0-17.289556,8.1040184-17.289556,17.289488,0,9.1855376,7.2050977,16.7015152,16.2621501,17.2355107Z"/><path d="M123.4304903,93.7979919c-1.8316962-9.4017871-8.9827485-16.9178326-18.1817465-19.2767261,1.0070794-8.5703722,8.3136057-15.2482726,17.1543406-15.2482726,9.5370025,0,17.289556,8.1040184,17.289556,17.289488,0,9.1855376-7.2050977,16.7015152-16.2621501,17.2355107Z"/></svg>